<mxfile host="app.diagrams.net" agent="Mozilla/5.0 (Macintosh; Intel Mac OS X 10_15_7) AppleWebKit/537.36 (KHTML, like Gecko) Chrome/137.0.0.0 Safari/537.36" version="27.1.6">
  <diagram name="第 2 页" id="pIHFF_78TfLxUVuqAqjn">
    <mxGraphModel dx="673" dy="1603" grid="1" gridSize="10" guides="1" tooltips="1" connect="1" arrows="1" fold="1" page="1" pageScale="1" pageWidth="827" pageHeight="1169" math="0" shadow="0">
      <root>
        <mxCell id="0" />
        <mxCell id="1" parent="0" />
        <mxCell id="yftwJMYlTaSGauuBOo6N-56" value="" style="shape=image;verticalLabelPosition=bottom;labelBackgroundColor=default;verticalAlign=top;aspect=fixed;imageAspect=0;image=https://www.runoob.com/wp-content/uploads/2014/11/redis.gif;" vertex="1" parent="1">
          <mxGeometry x="336.5" y="314" width="65" height="65" as="geometry" />
        </mxCell>
        <mxCell id="yftwJMYlTaSGauuBOo6N-1" style="rounded=0;orthogonalLoop=1;jettySize=auto;html=1;exitX=0;exitY=0.5;exitDx=0;exitDy=0;entryX=1;entryY=0.5;entryDx=0;entryDy=0;endArrow=none;startFill=0;endFill=1;dashed=1;dashPattern=1 2;" edge="1" parent="1" source="yftwJMYlTaSGauuBOo6N-6" target="yftwJMYlTaSGauuBOo6N-9">
          <mxGeometry relative="1" as="geometry" />
        </mxCell>
        <mxCell id="yftwJMYlTaSGauuBOo6N-2" style="rounded=0;orthogonalLoop=1;jettySize=auto;html=1;entryX=0;entryY=0.5;entryDx=0;entryDy=0;endArrow=none;startFill=0;exitX=1;exitY=0.5;exitDx=0;exitDy=0;dashed=1;dashPattern=1 2;" edge="1" parent="1" source="yftwJMYlTaSGauuBOo6N-6" target="yftwJMYlTaSGauuBOo6N-10">
          <mxGeometry relative="1" as="geometry" />
        </mxCell>
        <mxCell id="yftwJMYlTaSGauuBOo6N-3" style="rounded=0;orthogonalLoop=1;jettySize=auto;html=1;exitX=1;exitY=1;exitDx=0;exitDy=0;entryX=0;entryY=0;entryDx=0;entryDy=0;endArrow=none;startFill=0;dashed=1;dashPattern=1 2;" edge="1" parent="1" source="yftwJMYlTaSGauuBOo6N-6" target="yftwJMYlTaSGauuBOo6N-11">
          <mxGeometry relative="1" as="geometry" />
        </mxCell>
        <mxCell id="yftwJMYlTaSGauuBOo6N-4" style="rounded=0;orthogonalLoop=1;jettySize=auto;html=1;entryX=1;entryY=0;entryDx=0;entryDy=0;endArrow=none;startFill=0;exitX=0;exitY=1;exitDx=0;exitDy=0;dashed=1;dashPattern=1 2;" edge="1" parent="1" source="yftwJMYlTaSGauuBOo6N-6" target="yftwJMYlTaSGauuBOo6N-13">
          <mxGeometry relative="1" as="geometry" />
        </mxCell>
        <mxCell id="yftwJMYlTaSGauuBOo6N-5" style="rounded=0;orthogonalLoop=1;jettySize=auto;html=1;entryX=0.5;entryY=0;entryDx=0;entryDy=0;endArrow=none;startFill=0;exitX=0.5;exitY=1;exitDx=0;exitDy=0;dashed=1;dashPattern=1 2;" edge="1" parent="1" source="yftwJMYlTaSGauuBOo6N-6" target="yftwJMYlTaSGauuBOo6N-12">
          <mxGeometry relative="1" as="geometry" />
        </mxCell>
        <mxCell id="yftwJMYlTaSGauuBOo6N-6" value="Server" style="ellipse;whiteSpace=wrap;html=1;fillColor=#dae8fc;strokeColor=#6c8ebf;" vertex="1" parent="1">
          <mxGeometry x="324" y="170" width="90" height="50" as="geometry" />
        </mxCell>
        <mxCell id="yftwJMYlTaSGauuBOo6N-7" style="rounded=0;orthogonalLoop=1;jettySize=auto;html=1;exitX=0;exitY=1;exitDx=0;exitDy=0;entryX=1;entryY=0.5;entryDx=0;entryDy=0;endArrow=none;startFill=0;dashed=1;dashPattern=1 2;" edge="1" parent="1" source="yftwJMYlTaSGauuBOo6N-9" target="yftwJMYlTaSGauuBOo6N-15">
          <mxGeometry relative="1" as="geometry" />
        </mxCell>
        <mxCell id="yftwJMYlTaSGauuBOo6N-8" style="edgeStyle=orthogonalEdgeStyle;rounded=0;orthogonalLoop=1;jettySize=auto;html=1;entryX=1;entryY=0.5;entryDx=0;entryDy=0;endArrow=none;startFill=0;dashed=1;dashPattern=1 2;" edge="1" parent="1" source="yftwJMYlTaSGauuBOo6N-9" target="yftwJMYlTaSGauuBOo6N-14">
          <mxGeometry relative="1" as="geometry" />
        </mxCell>
        <mxCell id="yftwJMYlTaSGauuBOo6N-9" value="Broker" style="ellipse;whiteSpace=wrap;html=1;fillColor=#ffe6cc;strokeColor=#d79b00;" vertex="1" parent="1">
          <mxGeometry x="180" y="170" width="90" height="50" as="geometry" />
        </mxCell>
        <mxCell id="yftwJMYlTaSGauuBOo6N-10" value="Backend" style="ellipse;whiteSpace=wrap;html=1;fillColor=#f8cecc;strokeColor=#b85450;" vertex="1" parent="1">
          <mxGeometry x="500" y="170" width="90" height="50" as="geometry" />
        </mxCell>
        <mxCell id="yftwJMYlTaSGauuBOo6N-11" value="Config" style="ellipse;whiteSpace=wrap;html=1;fillColor=#f5f5f5;strokeColor=#666666;fontColor=#333333;" vertex="1" parent="1">
          <mxGeometry x="450" y="280" width="90" height="50" as="geometry" />
        </mxCell>
        <mxCell id="yftwJMYlTaSGauuBOo6N-12" value="Lock" style="ellipse;whiteSpace=wrap;html=1;fillColor=#d5e8d4;strokeColor=#82b366;" vertex="1" parent="1">
          <mxGeometry x="324" y="280" width="90" height="50" as="geometry" />
        </mxCell>
        <mxCell id="yftwJMYlTaSGauuBOo6N-13" value="Scheduler" style="ellipse;whiteSpace=wrap;html=1;fillColor=#fff2cc;strokeColor=#d6b656;" vertex="1" parent="1">
          <mxGeometry x="200" y="280" width="90" height="50" as="geometry" />
        </mxCell>
        <mxCell id="yftwJMYlTaSGauuBOo6N-14" value="Worker" style="ellipse;whiteSpace=wrap;html=1;fillColor=#e1d5e7;strokeColor=#9673a6;" vertex="1" parent="1">
          <mxGeometry x="64" y="175" width="70" height="40" as="geometry" />
        </mxCell>
        <mxCell id="yftwJMYlTaSGauuBOo6N-15" value="Worker" style="ellipse;whiteSpace=wrap;html=1;fillColor=#e1d5e7;strokeColor=#9673a6;" vertex="1" parent="1">
          <mxGeometry x="80" y="225" width="70" height="40" as="geometry" />
        </mxCell>
        <mxCell id="yftwJMYlTaSGauuBOo6N-53" value="" style="shape=image;verticalLabelPosition=bottom;labelBackgroundColor=default;verticalAlign=top;aspect=fixed;imageAspect=0;image=https://www.runoob.com/wp-content/uploads/2014/11/redis.gif;" vertex="1" parent="1">
          <mxGeometry x="192.5" y="70" width="65" height="65" as="geometry" />
        </mxCell>
        <mxCell id="yftwJMYlTaSGauuBOo6N-51" value="" style="shape=image;verticalLabelPosition=bottom;labelBackgroundColor=default;verticalAlign=top;aspect=fixed;imageAspect=0;image=https://www.rabbitmq.com/img/rabbitmq-logo-with-name.svg;" vertex="1" parent="1">
          <mxGeometry x="188.5" y="70" width="85" height="13.6" as="geometry" />
        </mxCell>
        <mxCell id="yftwJMYlTaSGauuBOo6N-54" value="" style="shape=image;verticalLabelPosition=bottom;labelBackgroundColor=default;verticalAlign=top;aspect=fixed;imageAspect=0;image=https://docs.aws.amazon.com/assets/r/images/aws_logo_light.svg;" vertex="1" parent="1">
          <mxGeometry x="188.5" y="122" width="34" height="20" as="geometry" />
        </mxCell>
        <mxCell id="yftwJMYlTaSGauuBOo6N-55" value="" style="shape=image;verticalLabelPosition=bottom;labelBackgroundColor=default;verticalAlign=top;aspect=fixed;imageAspect=0;image=https://www.gstatic.com/devrel-devsite/prod/v18c0c2eee8563a4b6cc1af57fb933ddf1b6767fab13f530923a6c204c8d00f83/cloud/images/cloud-logo.svg;" vertex="1" parent="1">
          <mxGeometry x="173.08" y="150" width="103.85" height="18" as="geometry" />
        </mxCell>
        <mxCell id="yftwJMYlTaSGauuBOo6N-57" value="本地内存" style="text;html=1;align=center;verticalAlign=middle;resizable=0;points=[];autosize=1;strokeColor=none;fillColor=none;" vertex="1" parent="1">
          <mxGeometry x="190" y="40" width="70" height="30" as="geometry" />
        </mxCell>
        <mxCell id="yftwJMYlTaSGauuBOo6N-58" value="本地内存" style="text;html=1;align=center;verticalAlign=middle;resizable=0;points=[];autosize=1;strokeColor=none;fillColor=none;" vertex="1" parent="1">
          <mxGeometry x="334" y="360" width="70" height="30" as="geometry" />
        </mxCell>
        <mxCell id="yftwJMYlTaSGauuBOo6N-59" value="" style="shape=image;verticalLabelPosition=bottom;labelBackgroundColor=default;verticalAlign=top;aspect=fixed;imageAspect=0;image=https://www.runoob.com/wp-content/uploads/2014/11/redis.gif;" vertex="1" parent="1">
          <mxGeometry x="512.5" y="-0.20000000000000284" width="65" height="65" as="geometry" />
        </mxCell>
        <mxCell id="yftwJMYlTaSGauuBOo6N-60" value="" style="shape=image;verticalLabelPosition=bottom;labelBackgroundColor=default;verticalAlign=top;aspect=fixed;imageAspect=0;image=data:image/png,iVBORw0KGgoAAAANSUhEUgAAAJAAAACMCAYAAACTUiBYAAAMTmlDQ1BJQ0MgUHJvZmlsZQAASImVVwdYU8kWnltSIQQIhCIl9CaISAkgJYQWekcQlZAECCXGhKBiRxdXcK2ICJYVXQVR7ICIDXXVlUWxu5bFgsrKurguduVNCKDLvvK9+b65899/zvxzzrlz79wBgN7Fl0rzUE0A8iUFsriQANaklFQWqQdggAH0gC0AfIFcyomJiQCwDLd/L69vAETZXnVUav2z/78WLaFILgAAiYE4QygX5EN8CAC8VSCVFQBAlELeYmaBVInLIdaRQQchrlXiLBVuVeIMFb48aJMQx4X4MQBkdT5flgWARh/kWYWCLKhDh9ECZ4lQLIHYH2Lf/PzpQogXQmwLbeCcdKU+O+Mrnay/aWaMaPL5WSNYFctgIQeK5dI8/uz/Mx3/u+TnKYbnsIFVPVsWGqeMGebtce70cCVWh/itJCMqGmJtAFBcLBy0V2JmtiI0UWWP2grkXJgzwIR4ojwvnjfExwn5geEQG0GcKcmLihiyKc4UByttYP7QSnEBLwFifYhrRfKg+CGbk7LpccPz3siUcTlD/DO+bNAHpf5nRW4iR6WPaWeLeEP6mFNRdkIyxFSIAwvFSVEQa0AcJc+NDx+ySSvK5kYN28gUccpYLCGWiSQhASp9rCJTFhw3ZL8rXz4cO3YyW8yLGsJXCrITQlW5wh4L+IP+w1iwPpGEkzisI5JPihiORSgKDFLFjpNFksR4FY/rSwsC4lRjcXtpXsyQPR4gygtR8uYQJ8gL44fHFhbAxanSx0ukBTEJKj/xqhx+WIzKH3wfiABcEAhYQAFrBpgOcoC4o7epF96peoIBH8hAFhABxyFmeETyYI8EXuNBEfgdIhGQj4wLGOwVgULIfxrFKjnxCKe6OoLMoT6lSi54AnE+CAd58F4xqCQZ8SAJPIaM+B8e8WEVwBjyYFX2/3t+mP3CcCATMcQohmdk0YctiUHEQGIoMZhohxvivrg3HgGv/rC64GzccziOL/aEJ4ROwkPCdUIX4fY0cbFslJeRoAvqBw/lJ+Pr/ODWUNMND8B9oDpUxpm4IXDEXeE8HNwPzuwGWe6Q38qssEZp/y2Cr57QkB3FmYJS9Cj+FNvRIzXsNdxGVJS5/jo/Kl8zRvLNHekZPT/3q+wLYRs+2hL7FjuIncNOYRewVqwJsLATWDPWjh1T4pEV93hwxQ3PFjfoTy7UGb1mvjxZZSblzvXOPc4fVX0FolkFypeRO106WybOyi5gceCOIWLxJAKnsSwXZxc3AJT7j+rz9ip2cF9BmO1fuMW/AuBzYmBg4OgXLuwEAPs94CfhyBfOlg23FjUAzh8RKGSFKg5XXgjwy0GHb58BMAEWcH9zBC7AHXgDfxAEwkA0SAApYCr0PhuucxmYCeaCRaAElIFVYB2oAlvANlAL9oADoAm0glPgR3ARXAbXwR24errBc9AHXoMPCIKQEBrCQAwQU8QKcUBcEDbiiwQhEUgckoKkI1mIBFEgc5HFSBmyBqlCtiJ1yH7kCHIKuYB0IreRB0gP8ifyHsVQdVQHNUat0XEoG+Wg4WgCOgXNQmegRegSdAVaidagu9FG9BR6Eb2OdqHP0X4MYGoYEzPDHDE2xsWisVQsE5Nh87FSrAKrwRqwFvicr2JdWC/2DifiDJyFO8IVHIon4gJ8Bj4fX45X4bV4I34Gv4o/wPvwzwQawYjgQPAi8AiTCFmEmYQSQgVhB+Ew4Sx8l7oJr4lEIpNoQ/SA72IKMYc4h7icuIm4l3iS2El8ROwnkUgGJAeSDymaxCcVkEpIG0i7SSdIV0jdpLdkNbIp2YUcTE4lS8jF5AryLvJx8hXyU/IHiibFiuJFiaYIKbMpKynbKS2US5RuygeqFtWG6kNNoOZQF1ErqQ3Us9S71Fdqamrmap5qsWpitYVqlWr71M6rPVB7p66tbq/OVU9TV6ivUN+pflL9tvorGo1mTfOnpdIKaCtodbTTtPu0txoMDScNnoZQY4FGtUajxhWNF3QK3YrOoU+lF9Er6Afpl+i9mhRNa02uJl9zvma15hHNm5r9Wgyt8VrRWvlay7V2aV3QeqZN0rbWDtIWai/R3qZ9WvsRA2NYMLgMAWMxYzvjLKNbh6hjo8PTydEp09mj06HTp6ut66qbpDtLt1r3mG4XE2NaM3nMPOZK5gHmDeZ7PWM9jp5Ib5leg94VvTf6Y/T99UX6pfp79a/rvzdgGQQZ5BqsNmgyuGeIG9obxhrONNxseNawd4zOGO8xgjGlYw6M+cUINbI3ijOaY7TNqN2o39jEOMRYarzB+LRxrwnTxN8kx6Tc5LhJjynD1NdUbFpuesL0N5Yui8PKY1WyzrD6zIzMQs0UZlvNOsw+mNuYJ5oXm+81v2dBtWBbZFqUW7RZ9FmaWkZazrWst/zFimLFtsq2Wm91zuqNtY11svVS6ybrZzb6NjybIpt6m7u2NFs/2xm2NbbX7Ih2bLtcu012l+1Rezf7bPtq+0sOqIO7g9hhk0PnWMJYz7GSsTVjbzqqO3IcCx3rHR84MZ0inIqdmpxejLMclzpu9bhz4z47uznnOW93vjNee3zY+OLxLeP/dLF3EbhUu1ybQJsQPGHBhOYJL10dXEWum11vuTHcIt2WurW5fXL3cJe5N7j3eFh6pHts9LjJ1mHHsJezz3sSPAM8F3i2er7zcvcq8Drg9Ye3o3eu9y7vZxNtJoombp/4yMfch++z1afLl+Wb7vu9b5efmR/fr8bvob+Fv9B/h/9Tjh0nh7Ob8yLAOUAWcDjgDdeLO497MhALDAksDewI0g5KDKoKuh9sHpwVXB/cF+IWMifkZCghNDx0dehNnjFPwKvj9YV5hM0LOxOuHh4fXhX+MMI+QhbREolGhkWujbwbZRUliWqKBtG86LXR92JsYmbEHI0lxsbEVsc+iRsfNzfuXDwjflr8rvjXCQEJKxPuJNomKhLbkuhJaUl1SW+SA5PXJHdNGjdp3qSLKYYp4pTmVFJqUuqO1P7JQZPXTe5Oc0srSbsxxWbKrCkXphpOzZt6bBp9Gn/awXRCenL6rvSP/Gh+Db8/g5exMaNPwBWsFzwX+gvLhT0iH9Ea0dNMn8w1mc+yfLLWZvVk+2VXZPeKueIq8cuc0JwtOW9yo3N35g7kJeftzSfnp+cfkWhLciVnpptMnzW9U+ogLZF2zfCasW5GnyxctkOOyKfImwt04I9+u8JW8Y3iQaFvYXXh25lJMw/O0polmdU+2372stlPi4KLfpiDzxHMaZtrNnfR3AfzOPO2zkfmZ8xvW2CxYMmC7oUhC2sXURflLvq52Ll4TfFfi5MXtywxXrJwyaNvQr6pL9EokZXcXOq9dMu3+LfibzuWTVi2YdnnUmHpT2XOZRVlH5cLlv/03fjvKr8bWJG5omOl+8rNq4irJKturPZbXbtGa03RmkdrI9c2lrPKS8v/Wjdt3YUK14ot66nrFeu7KiMqmzdYbli14WNVdtX16oDqvRuNNi7b+GaTcNOVzf6bG7YYbynb8v578fe3toZsbayxrqnYRtxWuO3J9qTt535g/1C3w3BH2Y5POyU7u2rjas/UedTV7TLatbIerVfU9+xO2315T+Ce5gbHhq17mXvL9oF9in2/7U/ff+NA+IG2g+yDDYesDm08zDhc2og0zm7sa8pu6mpOae48EnakrcW75fBRp6M7W81aq4/pHlt5nHp8yfGBE0Un+k9KT/aeyjr1qG1a253Tk05fOxN7puNs+NnzPwb/ePoc59yJ8z7nWy94XTjyE/unpovuFxvb3doP/+z28+EO947GSx6Xmi97Xm7pnNh5/IrflVNXA6/+eI137eL1qOudNxJv3LqZdrPrlvDWs9t5t1/+UvjLhzsL7xLult7TvFdx3+h+za92v+7tcu869iDwQfvD+Id3HgkePX8sf/yxe8kT2pOKp6ZP6565PGvtCe65/Nvk37qfS59/6C35Xev3jS9sXxz6w/+P9r5Jfd0vZS8H/lz+yuDVzr9c/2rrj+m//zr/9Yc3pW8N3ta+Y7879z75/dMPMz+SPlZ+svvU8jn8892B/IEBKV/GH/wVwIDyaJMJwJ87AaClAMCA50bqZNX5cLAgqjPtIAL/CavOkIPFHYAG+E8f2wv/bm4CsG87ANZQn54GQAwNgARPgE6YMFKHz3KD505lIcKzwfdxnzLyM8C/Kaoz6Vd+j26BUtUVjG7/BebdgwsgGujHAAAAbGVYSWZNTQAqAAAACAAEARoABQAAAAEAAAA+ARsABQAAAAEAAABGASgAAwAAAAEAAgAAh2kABAAAAAEAAABOAAAAAAAAAJAAAAABAAAAkAAAAAEAAqACAAQAAAABAAAAkKADAAQAAAABAAAAjAAAAADwBZkNAAAACXBIWXMAABYlAAAWJQFJUiTwAABAAElEQVR4Ae29aZMkx5Gm6XFk5FkHgAJAAL1NWYp0rzT/x4jst/373dMry1my2WSTQJ15ZxzzPK+aeUTWAVZGYQb8AMv0w8zU9DI1tcPNPSb/z//93zbDL+EXDeypgeme5X4p9osGooFfDOgXQ/gkDcwfWnqSAtXrbYaKDZu65sxpw5/nCfcTbjdrTolgr+aneE4PJR+KoWNJcYdWboO7nYI3cJ2M9KvIeE7Ch069XM9vRHNp95sSBJ52cFuuATWSJXDHR17dchO4ljHi6gTraq7q7WUsMiE2afBBknxTgeK/YCxvmkmttBlFNHUQ/irLjG0QR2Ar6X0gHfjBBiQ7k82qGJvOYGRKvFQ4aRxtJmvwb4YpTCjoer02NgzzGQk6vVUE7Uw89DqFjnitwBxyA621qMOD+SaQHt7UBso03xCN/IhaLCZQB4kcnijrhaPyldM4cok/cnIrTXmcQlAe18qrPoAhT9Y8RCQuALiXXhE0yWDMYxX44t+8OfimyBY1ixOdrim/auVnFAJzcMtnq61hBpz01hIXZ4ORdILlG44wKDF55CJIZDapw3O/hwFJGwyRXGzeQgSmyoDKeDCbEFWJ84ODYZgdDJuDxaBVTVHAhPx9guJMNUYEXa1WGOdqWHGMhrSLNMIrPkE+m+BdEZXx/nOUti1aQF1xHdGIk4yeJ6S64b8neS1U8F43VU/gMa/nqysreT6bDVONj6CWll7FSZq6n8WA1lsDomGaHwMC2QGFhPR/pXGuljHuaQxErFuaiciTTHwg/EjWfgakF4mOOOVPo/Av9YqI8LyGWQ394GA+LE7Ohtnh8bDCiFTg4eZuQOQPsPu3kjG9yRyjGYa75ZLjbljf3hC5GxUVfXiaeeJAA5O02HL9a5MiwLu0LBHhIlmpLuemxVS5FQHgFD0Y1uAuU7CsetArmI5h45W0lnhNwMU/k/mUmAZuCTq9yGw2Hw4Wh8PJ0TF6WxR+8pbAS36KYXlda1IoWS+s5jczDpQfGAgf2JjJWwNzh/HMb6+H5c3tMNygK3iiSDyWKngnmCiilpduuiUF1rydsIcHAlsod6xi5BhbE4KRMptjOEdHw/HZo+Hs82fD7OhkuENJG4Sab5bI8CkGNKNlQRLjmdzeDpNrFHR1PUw51rd3wwalqWDruVesLVelflRQAIKNwxI6nE1OQWgGaQVkL2ljCbweohmPxFNZXDU0vbO8iGYKbxoUFjNMFgfD0QJjQVdzjsUhB0Y0o7FJ37DQQCk3AU+6qnRK4JCseG25XP2bwtc89mmXhgHf3Q4H15fD5uIKjV9iROhrQG8gLOwhkVOlSCg1upvxDmzP3MOARF6KRXNRisrdwGykJEVqR8cnw2dffT08/uqr4fTLL1HQyXC5XA+3tIA7FEjn03l40FW9R/fgmNCFzTGgw8vrYXV+OSxfnQ/L84thecH9DWl6p4zXon2dA6w1BH+DKlCEqkLls+Ll2PR4HuJLZNH7FEpgda/8q4ukqynieiSvK8dIwM+ovDkNbHp0OBw+fTKcfvXlcPzZZ8P80SOs5WC4QU9LYMswJ8Msrl1PhI7BOdVyQChPGlaYki/uNaDUS8ovh/XdDcZzOaxfoxs83PrNOUaE8UHD2ivmuXgn7yVAcip1RE9+AEiukuY/2IAk6UBQJIZ+V6ZULUtXfEy39QTDefT118P0yZNhOT8Yltc3KGc13FJWVewV1NqUqtTD6I4PcOsqxgG9AuLOw5SMXaMOFBUtq+nmHURRQSBDUwjpimbrFFfP9ToWCXh5k1Qe8YwB4wUEpKxGxRVOkqddJZA8xXAO8TBHpyfD4snj4eiLz4ZjDGiOjjZ4oFvo3tAo1JOTD4Ndl/gc84VT8clfkcGwvUF0OHZg7VjH7ks/TxtC33Rld8vhdnGNrmaDvk3eSigxgrDzaLp6bDiNGtRGQDiBfgwPNiBLFoJiIlapfKYzuJhSkbrho9Oz4fTzL4b548fDK4R5dXE+vMZLXDNWWduV7TI8svO3b+LtMKAoEkYmKHnCGGHC1GNy6iCdvDm5BwhMY5tcQQg3PtHYohQ5dTbYFJJU7lX6W0pTY7JZ+hK+7sYuSxwYzrQZreOdeB6uM/Jm6CJdF3FL2gUt8MxnXz0bHj/7YjjhmD06G+4OD4cLCL2+PB8u6II1Hj1Q6RlZlDPlORFQZ+ELR5VvOkPveKE0ACBWU41wGU/sWOgWI5qB21narFpKk4gE4qkTCRlavkaq5NpUaSCSCBCwvQyo1FpnERcq8HHv2OcQJR0x9lmcnQ1rlPMa43lBP3xBt2JLqKYZ+g8+6RkiKCUdT1Vf7jgD8gsr7JBKVWqVTr5sySNGVJqP6TW65sr2ThpFlacbS7xaoArScyo2iGvMk65LA8TzyI9dnGMcctPvYQt4nln0cvbF58Ojb78djr+kcWE8S2aol3iW13idF3TFVxhQN54MYJExnhZUs7gypIpjIkHBCJqnFR2aMi+DJKyxlHSn3C8BveWYc8Q21GNKc/ZfBNFWEgt1ACv+ofMeBqQ1FuOZOsPsuP4BlSkKOUYxR48fxXiu4O4Ns4ALZkpMJnGhlJ0wjc8ixofY+nA67RpF4WkQztaVVg+ujFPwBhO6NAYSHBoXh+RQTgwM76fHqooBxDwupcht+yKppZFvZfTQgEf4IIVSuizdAuMbzOYAY3GQvaS1O+5x1neIV/6cLv3xd98Mx//Hd8NwdjK8hp/zq6vhDV37pZ7nTs8jdjoYcMWTgFayxnMgUNadSjAyim9BvO+ylae2CKWxms0BXt9jDu4leiLdKrDp7IpYWEIxeUEr6WTkzF2/7jEGCsISSe0Wss4BQs0Z6xw/ejwsGBDe4dovcZ1XKOqWKXcUk1ZUWPY+p8JQgMrxCD8aDsowegBfm8WwdtBJBU5zdf2EdIyuNKbqDBSwjMHKEUfFRFf4enyEMb1BIruVVp6nvE7xBTDlHfMcMLY5/ezz4SnjweNnXw6r09PhEmN/dYfxMHO8uLpBP3Q3MC//nR3LayeVIl+6HhKyIiqv8iGTHMZSH9wCaUoOgZTLhovxbFzMddqPVZtfAubOWKGwjPcchafyJVMaSnZOe3ggywVTCARL4UcO/AMe6IQB4YIu7JzKe0PXcYsROW5Ig1VDG4QYl4WD4aNPCqHnURS7iKyvsC4UnsikKjl033NsaMHAlIHn7ZLpPuOSG3OFxHMBG0gSUuHjdauiJtY93izPQA8kDmr1ZuXl5CNjHgot6aZDCTjXwB7jeZ7+6qvh8Te/GtaPTocfWI95tbwdLi6vhusbjaf0Qy2HVpdiXMeKseJxIzx6hKbziGZd4cWCmc7nBiY0pm5Q6lxtORjHiNYY04blbeloSAni9mgaqsSKSYpMjirTSiR1DwMSUYXqN7mHgkjt2ly/WNDCJsdHw9XqFtd8GzeefBhM9cSIdtloCD/mEiHxLLKRQapmFOypTOfqGyvCkeKCA68zueXKbGTCIEC3PXHlLl1FJ0hcnhpL3YTShXSQnWs1epRPRap0B9LKnuKgckXYmdMhY8CzL74Ynn77DQPnL4bN4zM8z2R4c3k5vMbz3NCtuxia2RblMzMSScMbkkHKKfiB8BYaUcAoA7yYH91UVorFcIQlD36mLBG47rS6pntVgQB1kIIXtnSReMVMjLr7uUma9AcbUCGOBEVcBYJ+4jMxKnTqAtjBYTzA1c0l/TozIJWD4pwthe8YUOg//IT2QDceItSbyJGDyShED8EKRdZreEA2Pcaw6fenS9JsiayDrF0HUeGtrHgyLoiAqkicRkrWLaPS04AxEhORa67cMJWxoPi4nx8fZw3s6TffDI+++9UweXQyvMQTv2Ih7w2TiRvWZ5bEY4RdHu3D8h6O1RptB+k59LRlQ8DJQvEvm2GbPJOqgkuGUhRSMzN1oXLNeMtna3fIIA7L1VHwo3F2gck037Mc1X3P3HsMVAi6gCrSZzh6n/mcASz9/hKhb1CQ7lklCZOWpQ2pbK1gn6CEWYIFTxsTKBap45HODfxOm7PShSdan7geAo/4/vnmJqvhGeBSUeWNkCYslfo/yJqECGEjNx2e8lZI1sCOWH3/fPjsaxZRmbJP6bYuGci+oPJeMRvNTCvdFlUCotF7RR4JwJOVFYQwlQanPE1nThqEEdQ0k3Nt91U85VKC0xS+ZofUDR4o3odlDX23h+tHu6GMqMgmPXRDrHSsnK3Agz2Q5VSZxpMWwNX4TJfNAtmB4w5a5B3C3zJ4rVYGDBVVMyAYw0NsMLD9AtyzviF9vZ7KLV/APYL2v0x9NA5gVgwcN8cHw5q1oelsOZzdHfA8ij4txh1JWsv1PgI21hIDR4vKMkfsF1p2lZaoBb7Sywmt/HNW3z9jwOyYZ6Db0vM853HL95evhyuuGcdbyeJqOOM/0VnpFCnS4jxxAKSWq8eSmTqU1TsNqx5nABteOXltNEThzG1K417RuKM9DGgeIvrkAtdwYjzNcIs1PU+IxEbFG6riJ+xlQFWUM4QkYgOpdQ6e4+gmGaTpIn0WtHaRT5hWyGvdtxQzeyDJ1DFpvOkAJCStMsqFe2+pKpkcbretiBQNyHH7AmPi7+bmGOXiFa9vGSqxPoShlzdTlQ1V3Y3ytShwqI8KE5ILKvCxA90BjeaAqfoxE4jHv2K2hQE5YL5EFy8Y77y8vhiuXAfDaCd0qzF0EXSGwVxjqi5iKCQS6TSuMJHYDl8iEJtB7upuVIDxKoh3BCcN/c4xG38O2WnKgHoUHi+FgUIaZuKcjDYaHZ/RvQyoBs+2exErOJhwkYcuz5/61J15js0M43Hfit6mK15QKz6DWRU4sgVcGxQKs3Xrlk1KawEogWjSIjTADUcNIoVtQfSA66nklQ5sWB8Nw9VTnslR4Y9eXQyHekZmRBnIkqZUfV+NVWj5iMlFh5ZAy5W/KVaqHOJ2y8oZxvMI73P8zbfD6rMnww/owC7r9RUr8My2fAI802uG35jQjiwkK09EbTDqJ/qly4pYJVupLdw10Uk3q4BaWjg1sd+U/jCim9kCY1oMpzSmhfJ7xFLYdgPyNet0KZdWCJ1yQVV+xFY3Dzagzk6qvkVskVr3AQ8H54d0FRD2SXAEkrjAhIx9FGgHiTyG944LuAZecEaS52lExN0IRXoPDUmPci1lt8oivmGdymdOLvItmd7PHeTfYmBMZ53RjqR2yJUJk2k+zJrllDotl0SN55gZ11OM54xjwkLqFV7vFU/AX9NlXbmIGs9jmUZjl/1uOCFezBf5ajqW2AWXkcR3E7vxVPFRVfeiwmP8PjuE6SwFsNgRA7F41Q9A/IeyyoucFiyUsrobHmxAVVj0ClUSK44boHyMYVfmIM0WrZLDiK1Owo0hcVR5MHSGUtOAlOaKjHBdMeLq98D2YiPgR96EV3yGSrw55CHs0cFweMPMEX5XEIfr5rXkUQbaIWOOGYShy9Jbyo/7nQ5PTobHPKJ4xgrz4tmz4TWFXrMr4IpV5luWMZzxOYDpD0dbBxiOI/ZbwpTOkt1gAFDmBjfqYQvy0Xd6TutpwuG+JLswvaxiZtMaV2s246p3sHZlbDP2MiDrscucqiQSA0KZrrzaE2XrQqvwEriViBZk5K3QcXYlkX0PynLdgN4q+pBoFIjxrNmwtTw+HDY8rp4yO5rF4NlL5BpMaCGZPBFN14qSmbpxkkGvVjNdEpMGjecJM66jz58OS7zw+cUF3VYtEi7B75R8y3vMAywl3da3gDeoKz34aV1RlxnmhS+uCR2uxz/yCg7XqFwXSrcFa4V8tzy4RS/Nt0LqO5JXxl4GVMrb4o9seiAqRct2SOrelXggXUxjxMq7F4ibooEVvz2/KacJ4RqLwWjLSXyfU7aNMhuR8hLrcAB8y3OoOYYzufYxB9wji0xPWDBxxpVHDHocWwZZjn1c19IjHTFQfvYP/zA8YsZ1yxT5Fd3VC8Y8PqK45dlWunK4VnZpG2wHXQ6NNEoQXUtPHief4dllerXAp3ieEJZU40NeqssyR/3DQJFJrNLMU1OePRWTeb4mMGEPA6qCKT2eSjmudPow1UFoniibL+UU4SR9mDBqsoehZ4+JJvREDZDKErYcUDIstmeQVw7d+IAHwtBXZ47XmNaycj6h0jM90Vgah1lgHGPlM+aL1nWxJeOMJ+szHh6/ZGngJWOeCwbMN25baY5HvRvy1J5rMI9icDM2MvjqgrYyjYWUHw0IoJ6djIecKJj91hiQzier5lw1If96qPsw05OaOu6n7WFAW3yFEYOArot2Pgeb0I3Z6uKBZOg+vcRH8dVWWcUu0naPCORZ3KPOb9VI0h92ipqsM7BOWPicslfbmHskN6wOO9H3Kb4hnpHKrS2pKleezNuwXHE4POMRxVO2ZkwZNF/iXF5cMF13xsWAOVtuqaTMDCmTyo+emvQllGQIMkR60rrE0uO+/oWo8EF9dYAfv8YDOZ3XgMDlIXIbiToZ6YQXcTUGvJKrrW+B9vJAhXmHVCOCsjAe11xWKpDmV8wUPEDvBpgfGW65xV8ro3Dc1oV7gXuBH0H7LqH7KZlJZ2rvtF1JGDozG1u6Ust1hveYxn00KW3x0PMhpk+yZ8xgTthN6Ljn5Nnnw7UzLgbLPqJwlTnLAHZxUXrnWUF2+TB/K7+UYtSCJKvyqwKhn7JWoOmfECifzfnIIS4dbTB2cqK+R6Iz3Xnt8eJhLw9UMkBFXA2fzNgtuGXSbZTua1Eh0XzgiAeWUyvTmtwY73hH46yEDEKDohllhysRHnZOC/RhKx7TVqc/Wa3pbuB9yaxseT0dTq7JZjiUXgxDGCsWAeZ4Ldd73K57+uWzYWDt6wUD5h/SdbkZDGjWkzLaAT6zNdUQARqvqaCuBNKE42LyCFbKSgF57rVca11J3uskLh9rbJBXL5Q6CPqSsziwwRDvY6+xworB4rbI72VAStMreVSDBGWIwxa4igFBhHRhC65De4XrUUktVzfeme3aLD4jVxSZuJmfEoqe+Ox6J1M9J+tXdEvDzdGwyV5qdhRjXUI6KfDOGdmCB8WP2dNzhgEN7DjgPYfsJjxnJpdtGcBgP1UBeiwrYYfdLrIYIZ8s73dDF7134XXdQbIL/NB7ZU4XpvelkXBo7NXYvXkfHevvfel7dWEQeTvAiQTWGI+j+xiQ/X7ginA3ItM0kx6MBy4nxSEvRue1oAJvY6l2jdBjqY7mo6+qwi2i4Yen25KIx8AwZuzdcRF2w8LiwAPXGQuNbkq7kSLysE7Lnubj4TOesLsx7A3rKC9vLoYLurw7vKP7gyJBGgIoNCDoYaPxdsmUvlYU2aw6Q4TnqkEnISfhMvMrrCOUZXfAtgU+4k5d2mhc89HDOtTwTY7oo7PxQTzvAuzpgZrIEYQTDGhAeiBXczUgt3mW+rqwiiwDHBrIDi+Vo2KLc+OBUZukpQWa57iigAtwn3PDZ9uTwygUvqcsQWw2x8PmkDcYjmoD2iEG4VQKzsifDScMuE95yn7IKzgbFg/fvHk1vHJfj9N1PW7kkoAGJ3NqQFFkuhgfZRS2ydLTSjc0whSyRKq1dKAiWnq8RIAq6UFnyyGvxB1Ay7fLWx/yMFvcjf42IXd7G9A9PGqCQ+8nmT66VzFFVlUQCqyMxzJdc9ybX3tgRBVoS8R4sjWVex/+xYi6Mo0/OKCqTtcKRpnpxljRmMzYxzRfMihmy8OcGRl8uAnd97KOGes8+/pX2Ry2PjkestebnYUXPJC91XiQwNeZNJo1T981onSRLhmARz3g3HIVrxI2rUTG6EJe4E0vnjxaWdcf4Nw3hW7VY/IDg/xgQNCoetJr1hP5Igb9H8NvXjEVup9kQJ1OCasBYdUkps2iiF5PlR/7Ce2iv6uaUnBBNH1EV/gIupAlXYReyIGur9DYh+8a2cM0qAJ7CTklZBzk6iyzsAMexDAWWrmOA23f8DjgoajbNJ4waD5+9hkGNmWr7h17vX1Vxuf7IMRQ8kpzTEPmmwHVlI94wcTzqhvpKpNdn7TsSqhUB7hzZrMlH2VGXrkVx6cGjVc6HNZXyS8vHbE0Pp7OngY0UhsFTStrDGk4WrdQXeiwZM3ZqmixZva0KMtIU1AMzqjKZUngloU5FeyeI9eaDphuz5g67xNkIQtpMFCPW6jojWrAKPE8swWP649PGRfwmIKtGHMWeOZ0Uyd0ccdPHrHmczKc42FeXfnyH603PFMR9naOsqv5oBc9neIKg8xUmOtOCchU3paVcIzwhgF4GasfopAXX21uVaPKeoVyH62qqz2Dup45hUeXfczq2DJeydZP6MZbNfjjhPYzoCitLMBWN0fYA1ahtWxHFRkkorQSXDaAlbHkOXCssUEScyplF1QAUTAtm5a5ZIp8x+u4PrNyp+OMmc90+iheqG9Kg1QZX5QtwiQ0ql0hlSwPMfaRGNyFV+EwIw0TA506HlLRGOz08GSYPXnKlP1suMXIznlB8oJKv4PHGiEVsvARDciDlVEtXPweYAuReGoMy8Zx1+RbI+vcV27wdL7/5eHGPLXYQ99GU7h76sOuacPSQbaVXRn4rTOD3HoXaQRMjOt4T06JKnjCgw0opDQgb1DCHEZOzxhc8p6Tyg9+8m19PjPyRsFNn7CrK5UX0mVggujKVb6V6/+GbmNFK1+yp/ru9ath+P7FMGcv8QlPzhc8MrCVbniUsGJga//thvkiwL0IdQfkVCJJrPvYyqThcxwdYAhZ1jvjeA+/4GFZGwIvcuWlv7tTXlFyJx+vKV0dnuYjIBc8M7uGHz8rk3LSUh8tBD0jtl75GaybmC0uCgh3LFXfsXZ09+b1sP7rD7wxcjMcsw51jHzHyDmwLeYGA3Lj6QZYZ3SbmfTkUXl2CHbCH3PFGBwC+H7YNQY0ZXObTwbpvLNQquesYYiOoOnHMrIfwTxtaT/YgEYewRM3TUtZ4H3iermPu97pojQdFTgSjfeSoaZe9dEZ09L5N6qLX7oVAiVPef3lEAUfrfB0CD654o1X12wWx1GG2zAKhwXbwSUReOridjrjqyzk9DwRyJMVlFeVp+wbIrrG46z43Mot0/dzZmW+v3XDarM7C2Oo6bYaUS9ibDL6yZbww8k/t4wYtDu96x1vZ+hdZ2z9UL5j5DuhYRyRF6+FAd1i/H3LbIynMxxaQfewk+X1buh6mYa+64HgT6HlP3QaMS+dnteWLOGHG1BHZGlCxx0zQUGOVXyxXwNIA98hJnMjfQToY6HOrPZT6IETlsraUGnxH70ybkljo9aUsYpbSFe0pusZ3YElq36KMZE2hOKUcq6cdlkKcEDNxaD0PgLoxUhaYSDXPGRds7h4y2dpVij3jgo2iFHQMkOaiTxz9C+WmRPvG3yVp8xrN7Nds1cI41nTHS4YS7FdG29AWfLmyEjtDmv2cTPYgz5f2ECfGadEipDf+yQ7BnlNnZCg9EZV2Rh27s1/X3iwAXVEwS21RkRmVGCMh+suXG/nMtg0Ho57BZhYjAuposnGcBwj+LTcDxXMOTL9tvLOrxhMH7GF9oxuDF1T6akoXh7U3WcQGO9bLliyMchoQIYl0Hg3ardgyH24IV/vgTwkZn83FXqHAWkyS3z8qHyKaXPZ4hDGGyL4FTYhwlUZp/jputgztHxziTe9YZbHw1lamwP3KXLPmdlNcXCukLuD0if7smwoDdX93ufwI89l1BE8rBaRqr3GOxQVa5vd04v6gw0omKRjhcpIY0Z0XamFent2G4NMdCXcKxM1y5T4BPFUnmzlG560SDqtvDaUp+SkTddXjL0WvLj3aFgxVrk7obvh7473vWzhPuoKvtIHOUW6bIZYNx7BWjApULkWL+KwsN5thfH4fEy3ytKbN5E3e3XkEFArt268YlVcKrXd652R55avcNwy9vG7PYvru+EQ/SywwhgQ/M9pCAc0BJ+7rRnEn7My7vDJ3rKJJOL9Q/iSf/TlIa89NGXFiHbq1gpsxQLZ+Xi4AakmMY1H1FbktejOyL1rlYkRtaJWWIcd8QUpqWbQEtcakK0RYB9PZvM3A4jpHeMiBrZTWzBjocWxD3GZVaAH92On8jouUBVXTQHyLQiXEsTclmhaC44RksqpNww9rKGMpgC7TMFomRhnVQi2kOQsGxDRuFeM6+7O/RDWOYZyNxyRdkgFOsHXeyu3I/Uphua7dnd0YX3iIa3iu2jvde6ico08EUBGi+dtDSp/qJFXcr+P3o7pvS/73bRC2ZQr3khFaqzAOIf3PT5GKTOmdcbI3AnbiiYfPCuUaIt1V6DdmJ1CFOw2UcYQK1sxA9AFhrYg33WbiVPUjGOkp3iFy6v0a81D+o2HkadifXTryKUoBvH4vCzbQMG9RSsEcKkEMeqJOPhLjjhannjskv0UnwPngX1D7kQ6xUAWeCD9moM4u7hMHpApXTd0+8q1OApx7vY6yVs3SOsu8opJNakLrx1zU9GP0XywAXXc6mWXuLQ6Ye+LtpXQU3tJrxYumBgVwEJF1y3dBI3HI8v7Ci4QGbrdNa/i3DKOWNGSZ4wjHIjOMaAZnzBJY0IZ5Vm23ER5okgIMu62rjnOq3NudlOwvMjtroEU1jqXLgqmS26sdxHiWfc1H7qtDUZ0gIGcwOMxSx/2uOpSj+AWW18Hv+WQt6mNIhVb9JvWRP/JoWsAAiPbSRszdkm0REXeCQ/uwmIQIxXHHLhcw4iYzNKreiOgGNy0PFZo4yEjLVGwarMq0mSAuXEA7RhIuMon3Sw0znxoWLFOtD7nq6Z0ZXOWEhYnfNIF2FtmMXkTQo/Q/kJbQhzd8DvNESY8CuAN1yaaMstT+JKBFoybJz751cDkteMvHOYzIWA54ubVm3ifOV3UMUWOMB7WvqGDLMKA1+uG7ykxoBtOwJ3HG+CMJHF94OuD/s7IA66QjQ6jU3nlKIm2cnV098kofxVW5h4ebEC9YJCoOEIpt5xZS+lg7aoSA1nxRKpSVLJZyU4lKF8Jkw83YaAuLPagwPmguOXYgzyhK9vQJUyOFsMBg+k1i4s+HnDgW9UrtqYi8Be1ERuEyYumRqjKhGQZRoMVhaAcIzdRvlSwtBIg3rKRC3wmBIzjlhjQLd5yhQc6ZpxzTFfI2j1/DtD1PrLimoxdHavSLB1oKOmNZaETlY8Q6AnGHx6UI3vD6T6bZWyRhMY2ur17N2PvLqyj0njyjMrXRGSmay8cbkmHSdPeDmMaCtnNVj8aT46q+JyBWTtgxrWTi7EwKKVl+xXSA7yVY6GMJ2zJ0bp4qSgMpdlt6KQxhxfypeWRAKzw+RtTrN0coM1gWHjhuly9eDdQVeHjiJgXPK5YDF3R5bKEPRyResjYRvncOx4DkhTWIhmXDep1aZPAIeNhHhhp/hQBPHm9x7GdzIr2LdSRSdI/Qm8PDySxTg3hENpP1s59jJH0LTnV9w5jFm0gVkAUTpr6GeFlmISuN2G6/tJKU042SHfQeXnBBzV5K/b6CSviM/a3YFgopWZNEmwhdPFMKoygj/Jsciop8WK58sKRuS2HW+90F63pRYYgKAMNZk8cUQfdk4uGSwbNfqNZIz9knOaHDWwc/MtCjGc0Dq2UxLDZdWqD8F7YOnmzd1CizA5pjDXwD+JiuvEvHfVgtEIE7ZFc9zCgVh5hwgQMaEA+PV6RJomqEnlRi/fopUyxBZxW0fKFzUFSDT7FVKFwcg9sUvszGmNU5h3vYk0wojnfiVYpC/jxAw+3vNdlXRtGHOFAWpW6fcdJA+gmVUxlFtdpCm6hjo+rPV8qtY1NBDEEd7pFuiYGzw72lzy2WOBtjsjUeKTgDkb7rOgJvk3z+aHDajTKn75ULUtWYiLn2F4qss8ZPDb+zCxFKu5GqdA1QpVRZAPDqWcBuF8X1hAouK+89C5Mwql8am1rHJ1apSU9gJ4IVFqUw20UKTg8Flw4FipiGMuBn7dLCigt003xfljcbmz65qpWdt36gRF1yYPJAtukIDNppAeQNh0anVYr03qw5FnEEJzeiBNdFEemK2tNyVcY9w1fqY0BoZfjNi1P2RAqHXIWE4VrzcvNtn5krTxjZYWiDP4EIXVH4++D9OghJ5CnBUDtQ6R20vfzQCJoxMKIlgxRKz3PwjJuSdMqo4hCK1/ZO5+7RqJTEYfBrse8CDDSifpysnHnSBVCE5g1A88VHmjCvp0F72n5DOmGsYSr167iVsFCFrwpa7r8NCLcRzcCmNT4aamVS1q5fFPBDWz4DjzlRKDx0HWtGQjf3lzFgCZ0YYd8gtiZlxuvJZHPAaM7r47YVqw+KxgDArph6Og+7ePAbbdb+gL/JweZtNek3jykM8oacqUHYLoqUuA9pz08kMTbEaURlTj/VrwzJ/+KDQEIAfd0P7TcJGoQYzCjHYVrzOnJdR3xQtexEHtrfNB6yGZ4tjbXA0olBHmf+hbNXWK7tKRD3shMCJi4I0LLF8bb5PYrMf6taDeI3bHes+LbzxMeVxywTsWua7qv3k1S0EGOhtH0Jy7R1rqXiInshsAJ9YlBd9pxeQu68nTSK5q7VJK6m7Bzv58HCsWiFWWpsG48KCQtFMsu7W5NoNOVdzPHeoJp1JhBpTkRTsXmLylBpS2UMOZZUUVC4X34uqS7OGC6fHTBJ+x4Wn95xINPGnwGq7WcRKRxsSVeBETYGTTlrfzdLH8PzXgODHU0AARTHxqrq+i3PPRdn18Pj1YzVp3xKnglNEXLp7HRZdW+GwfLboqtKbtsuH0jD3AFpJtRzshaigNCqP0CWqcgeFlMs86kq5d2Z5U7D+SvdpEK6RisB/KiE1OsiQrbu57ygKuo7h0qz/LdusNeA2qsdB30CukVYXZcdDTVcdxXVRM9CEcSxKxKy/oNnpXbX93u0Z5yz2PQgkhAWE6duNEeSOs4cyW987Z7DTi4okx5zUHqeEuesysWC++Yuq/xQEcY2TFPeLHlBihucVCMNa78gVM6BqvRPxNinGNO8VRQn3LWOIqaelM13QOFrrT5z4EywqdKSYJ0zaywnwfqpf9XX2E6fHfNQi+sI3R5YfNtJboB0mhJdzygvGTWMz1hX/EjVqcnbIegvG0/ymmyB+8e/IcVC4NHutqPVV5VWzzYnfrQdIkBue7jOCaD1TyWEMajEwdXkMqdic2QGoNFr8FaLgm97M9//SQP9Cnsj/p7C0lPV08OTjOVjoZ3NQeUNYB3yQGcUZ92+wbHJVP6W6bNs4w7atrcPxHzFrmHR63YMGdVy4aEveEgPbMveIgnxHgmGHS2aaScZfU9LVS0IqJx/OiAFkT+eSf6Cq3cGO/pP+/15zEgK4AQBdXt9twVhKJrlqIRkd3KpFSDsa3mDctkqnIaO+OHawbTt7T+eQbT7rVhXYVpfX3TZxfXluxH33WDSQEoahDwI+3MarjR+/jsa+In9DBiu66aqe0Yj2mNb1FpiO6xdhZbmqk0vVI1JKHM8e/vJ/xvN6BReDX+odAqxKlrPFAs6F1gcWlEOVKXnKiIPN6wAvEAGpHPnLoBierHSL9L5cMpnb/CZ0VDPivPzL6Ygc1ddZY2h3k6Fw/5NoSXxkwMA97NS3fnANrQgcVRKX9X5//tBvTR0qPdrFHYTalpQvX/VRkmqW6fXlebbfCk1xikfsVwwyDWV3cXeqDgKVwfzcdbgNZn9wEjf6alouGF9Si7Tw3oiLRTvN+BMhDcMOZzr3R7SfFUhuFZT5PXpPJoqL9cGMSlAvLrbyz8s9/8fRiQ+t2t18RRFa2wdwtbTelvKtRsxQolqNwYiJVJRbrzj6f0/hTmnCn+AYNtlszGsg3Ffpeq06InTRnSOJwFspTgc68NHtDfOj0kv2ZfZWT3jaeRb7zLv4+EFnx30ffs7MLLMIXrUrcyfyeXvw8D2lVG05OXmrnwtBhFaiAJuegDbMlVKaXcPr4gkXmpnuDmjftv3uRX+uzGFLZDFbJPO1fllk/IAJ4lBMdeLh764NRvMPu2hSzLb8lgLELcI17Gg7finbdDXi70q/8Zs1kucnL6Oww/nwHd08dWqVE0iip33j3QjueIPqPRps6qQM+2bv80kg3vs98yG1s6pWcmlE3q5Niqd7DtVyWwK/vxJtzEwKG95EMLdl3uaXbRcIZXylfN0slKCso2hrptDSCYKikeSCNq79kBv13Zr2Ik/V2Fn2UdqFpuVfRWG8101Gezp3RJce+ppbYWCJyGYjqdg2dNwtqoGbCDWeCpwBXvU7mRa4o38FeKnY0tKbexqykmtuQ/8q7qT2OFZGZMjluKjxgQRuSvTB1pqDyEq+d6elDiMR45dtRmUJYyRBcmazHPxed6PpauGBr3uz05oNDfSfj5PNCPKKDUY8VsPVCB61ui9iheVcafZHTd8zpiDAov5LcPXQ2e8CmWBRXoVg/HVj9FiCHDkIZuF7bCUDd2XfBzxMDZJU5SORytxf/E4DWhmAGJ4igjY9wWY9HWkIry9XioG5AY/v7CT6PJPeUqlXh+VznUSSomlZ0IYGqdEGjuYzwtIS3ZiuSoskAhnV3ZHQPpFY83GJYOh74OJMCeobjlDMFuCHYzPr9auerMskF2HGaHJo7Q8ZgeUa7597ao7/AArr6IqEFpkDFK0+kG36OePbn/6Yv9PAa0q7vIZMJOYktTiXmlJRW+k98UHEVbDkVHyUFTcBaxx3Bh8YbZ2B0b791fc4AHchz0SQE88tu9n1s3XAFf4n3WeLo5BnUgjxpwf9YVHovPFN+1ivAdlDEcuzAPDfTdUKXfTf95Un6WMdA7onY97epGA4gV3IeO0QS+tX/rxMGPaak0boynuU9Y3eVHf1+/4aNRp+wIZFWYWhXtpwZROPbxKxtugr9jBrbkmLJ8gIVCAx40ILvXHBSQV8c/GlNzRUrhAkOY4uLmvOzwxNB9Er+V12IisKz4P1WCn6b8/gZUclS9fZAXgAgRFiU6IvCflDqiDG5Ni0K6VlqCCqSS8uXLBpbi4CrvQ6KFU6yVCQA1YQ6ENa41g+kVOxbnHNM7psfkOcYIO8LDR4qZzrENLbXXlobQg7hFwbhl5c9Fsf7DJzvyRqk/bOvbkHllON1X0UrlU77QaDrQI78/Cddl1QuMfmuJbblAhL1O86e6Ko/EW1D6UX7ziIzZ3t8H78Vy3c+ArPhGpVpIKSNMkGfMv7SYsNY4aJOPggZDCpSSZDlMczI5A0l377lZH3desy4hBBA3t77uY2vnNoWcFQWEV539EwZYu5L5+nY49rUavsFzMOclRPH6BQwNTL4E1qj49ysZuDGSwCG+GHEQU9mtUolu+A7wasLUnVetfY9rQVfmK8oahJsL1Xz+5CGMyabP72wU7P8x5hiHp/dmb3gXvmTFeIBZgic/GQGM6Kom5SMxU/YKTRLKekdQdv41lFzrUuncbxvru7SrqQL0oPAW/42NEEyWCRzlcut+hJGQQCOgCT1UQRlWmrx2YkVzbx33eu7lS24qwVZs0Y43tU4lZfO9uMiwklgXmrJKfIBB+k2jemWmylmxCeErp8iQ5JbV8dvpmGl35EzP1ecNsz0/0uSHEppzCwzWB28c+QsFyonQNFkjloFyTL7SWY3WaJV3+8V/Iv8rgkpMqGsZOpwZ7VnmkyS/b4f9DKhhSguFgdFQ3sIeQzANRnZ5GTkRT2r+XdbsYvzpKD/25ER4iZJruluKztmWibcoHUBhB435PZjvZrNLnlHdME5Z8MmUQz7KkKmyn7yAlveWsJw7BfMri+zfyWfu0JI2GYxcZTkmRMLmjp2QzL7WDKD9BM0CL+I4K4pNAbmoQvoRja7CDoci5IgeuZ2xGu23IA0diuSfLETOKG1ksHArD39N0o+it5cBdWEkFiP6MZIBLqbKFbbSuXRMu3VfQtlq/ZCmXshpcAwowpVclizIrcDVyssQdkDDo7/bdcGq9I1PyanQBa28cFC+GVA3+BiLmsF4sYYd5jqFxoPGyxN3p++uAWWW5wwKzPXWSF1jHOG3qqdz3iy/umvIpE4xJH+DbIaHjOdNdwqPMmsooet+3zOEOidd5hH1Vp33sZP+PtIPHgOVHJ4LY3mfTrUUfJ9ytawu/6gIgGx4Ywh3Wxb1CP6y3sCLgn7CTjdfv/dmB0LF3itcWBpXqYlg6myisDsGuBrQiq95nOI1DuJmApquLPhSWaRBL1tW07zgH6cRg5Am1lWsyhOHq9qsdruA6HtceqHeYaVxjUzBo8XLSog0WUlTa2BKniOjeQyI9/yB2nZhu4hK3n3OnfdOvnCIm6BhKZP3LaldzGyHmdsQFW2jH3kH1nfrz0TKbykC0yPN3pO/TQu1Hh1JB4iyeiC8BJ7Ct3Lu7MJage7JxqKtLjqKHk0+J+HdSuHPT97hLaau1bjRC8AsKjZAK/KeAMajN078l1fxVkXDjaNv1pnWPGvbOH1nEB1TCCyoMDZ7yF4x8lcqKXzB0xPJiG3RcKZ8YHPqR0RJ8BXnGJ2sUaydvNkvBIdFvYE/6BZP72Ie9VHsvpfegz3QO1jCQDGRemhWHG0koZfQsiuhmRMZozQF1KOARTC7GabESzxCHgtIi78SvWGJcDkFR+VxKyng9Qa1Ad76ZhTiVJtvPE+PeLRB3h3dlB+u08Agk0McGQiJw4gWnNotmjFlnnNNGUD7ajWriMBwj9HnENZyXq2ddlWmhJ5WsZ0z+Y6fHP/QeJbL64zdymsFYcF621DtFH7gbdVZFZIucfCKegyNhlKb976wnwdqyNSDFRriXTlSkZEdmPcRLlYboLANPrC5By/jCQ+3rfKWMpVTtITp+Du8Sh7TAGucJbtaWRLjMSY8G5vx0PPQ2RgDVtE6uFVRIe0gSAydr1wrN1lZXXb9hy/MM/ua4CWmvr3IdZ23GIMlMoUvcfWDm2oCylA8Fxkz0KYyYzx+QMIp/BLDdPKwDbv329SPvivR7oFHrfdSit/7Se+n+2ADKjQdWVmxDEiyt7Cqhi1MsaPaWlqDN5YUFdSyxDTeAudsyPfcVWgW2WihBbPbV1f5jl+jjlEkueC6EU1YjfYDTxMNiAH6oa0dS9lQ8ZkhcT8q1C4IYpGLxIyNXHtydgac76G5ed4tG4617a/kQSPLQVLqvkfI68aTlWrz+UvXDH5XtvNbXsjq5/r8BaCl/N4zIAp9Qujy9LraoiJnFHybmjv1yPG+8GADEknHVUygEhM6BZnYgfH+bb5SLQVWkDvlO251ntrDgFxMzKERiawDNZAAjvjGxCi+pvkaSBVyu+st76rfcUwZv2TRWFeT6TxXNdJwbSubtJ7ONTaM0fi11WwXwfPkM72W0xjDoqW94YgCzCRIqu56tMQBZs7yglP4fO+RXMc/brTXyAy75ZLwiafygB372/jTDIvCjxD+9DGQ4tFSHEOUmMXIj9C8L3YKeWoldgqmy8KlT5iJsXxMkwSMSg9oJ0bE+knoRkzE2zIaWjhfpKoWz5uqPPQ85+v3iwUbt57ylcK5z86pagy1qwxRUtGjalteCDVDyifrsvuQtz9YdvYrq/lGI8xM+gwPNBp8jF4jzX9dw287kYL34YNT2crK7At3xtyOQTR6ddxmIxKIII/+f2pQtjQu8SNv4u9BKilJjzp+C2YvAyr+C7WV5FRzjau11kpZ5umZti67Cz1WylYjjB2Kq3idkUFwqHy8jr8GHQPCeBQmugR3rgVGYvMXI0DDWcBErEjtj6fz1+xZPmdbB9N6XdCMynVVqBf1LtiRq/jW7TR8GIvGs+LN1xU/ssuPpOZrIO599qehtK/iS8Ys47XuY9DwnXihK1juXe865MPpCz5brME4sK8XBuCkEG5LxKu16L4XkNronUkGvyeOsBycIcpdTDbX95F6sAEVAc+l5NoLg0Kt3HDSSDZOZCO3nZ9wQSTdhmgKl8n9rreylMWAXFRjtMs+4/JyXeAYqJXjwDOFU+0NE0mmqQBuYtjEnH47+F3x1YzVGz5MxUxvwefx7CLvIGilRZEQyVS9UBQyeM33fui6bl5jhBjQ/Mb9P/UIQ5HShXWzsK+DdkRs+pJP2Qq7jT8jGtCRe6ExIj3v7sp7PRsROUdocPuJQR2m0VNv/uJQ11xxFhXAh8QI4ZNriyatnR5sQCk3Iiwr9kMC3YDMSoVB1QrujPUixUVxUhW8ZWfkr2XkGZJdg92XBw8uFdxslVwt2lZf2Kv9ABAg8Wo4jR/LSCCtDr4Z/N69eg0Epf0cDPgdc/gAcxsw2KCWFqn0nn6C95qua/kK47tiKYBFySNcj+9/uW6TrbKxQV8jKgNKS0cTEWsHfTUUExxAs9lND8Rm+vzyI7gK1MoNCFA7hYl9SlB3eYnR3oNnhvV97cIYvXpbrCXxQ9T2MKCIHdxhgq4r3/lr3YtayngiFVwMffhcFawuUkE7DLeazxe0MrB0IJ3AmpAVw79dp9xUt0k1UF48UT01nwrr+ZSt3X2W4Z6V45vnr9lBSG1jBHd4uIslRgWC/Kid4w75SjmU7WwI2DvK3bryjBGd4n38jMwhQAdWiN04ZdaMgaRdfLmIKW1YJjG/YCRSQ0hgFlz1QAu+beQ4qN62RQrSC6b4SJlPPHXSYlQfNX4lJi1nmJ2nSP63ie1hQCWMlaRSPPlpFY1pBhcu50vb/DAjjGAc8vh2SHbVdGW9Bei6yNyfW+JYOs0FS2Y8XP1r/yEgfltpWlCIWZEe8gTi3j0B5yeE135PiNoll5+PootkXw93zIIwVgayI1saqsbB54NnLETO8EK+6XEEPj8SLo2M9iBRxlKS5qNZYBRneY9ImxSRF37SANdoD3jA63Mwu9IlY61wFt6BDe9V9FPOxRkcQUPjqW6aVJmRFqGaWOnSuFx76K37HTcJDzYgxbKFiFFmNFrvp7S6A34F2W/7uUvPI+81YQBZY5FjAFEFyhALMRGIJZo0vSVSV2NrQKgZxrOZHw43jFeWxE+dNgsTbJYp3H7EQEX7F6bAGwNqRu13wIprDCRF/HFdPn75htefGUw/Ad4FS/kx2+Bd4eWqu+dwfcZvBMEWz+f4OQLg+eAwPRxTcApWWUpa6Qg1y/oQ91lrUl5nheWN1ITwEwx2xhdFphiRTvEG/a3cN8TPTtG3RmdiLq8UxYW/h5+avrnEA8Gjm9dcg8qwABprKtW6mDej9QFNTSzLwHYbwx4GFDFAqXJ7BdW9T6Hft2E9CpVv/6ItS3OjIQVRcpIUbZobo5AIOBHQwa4eyA95Msy0qkTIGeEA6+WEN0O83gVNarXRwJiyUzBM1erxhgH1dMkYBGOHWOETJ0F+uxEFGbjssiwujaySB4JII9oVrGl4Lx9Szw+4JeIJcAyxEUA+PC2D+QnPwVyBvs3gVjo7ukmxMJ7yn3SKAArCEbyefGAkTTXKQV5lmarxGPNAby082ICCQprc6GH6QFG8sWAyspuQvHKPxVJ5AvIsqGUTYjwU9I9Y0t53MseK6nt08rKdC3+05ORxiqi2bAUFnRgT6FO6Mfan+GvLjSTFQGlZsjWitBhYDA0gAC2fV2yoVB+oOuWv4q1srAwckLY+NBzPgQoh+bJ50cqTIxzeLGMm4FyqoHE425wymM+3hVgqyLirdbEqXLz3cIPr4QEOqp+VxdivTFe3L3cVRv0JpLTbrA6S64MNaCwtcRGLOwpuXYdJGYCW4mMspFXwRoAe71eQqejgLF4FKZ7Bo9FpkIxNVDZfhEt76IZhn13FraiqXDFbmWWsVia31nBggffOLiLG3BRIqrjLK8hMwalvD39szi5bPMkpAsGtKcumEfkCjJtEk3/vruULZ5EZfLiRfsr4J8sJLFfc+ZwNg1UIZROuSSHmvUN0psx4ORtLgjJ54ym0Kr3OgRhP8rEb9jOgRkhETlF94HfHYZ8Z95d6UokAqnn71PzBH631PmO7sWKvlNXZJKZBajisHk9ooXO+OXgArapY8IEiyu01CK1SVOFOBYg0XstZURlSeSsyVKhIQKhhZNUaWK/y7czJErMmhwuPEUIGKKdRpZyzL9lu2VwSHC+JSSeXIJ8tMyvQPMI4OGD8gwdaMRbzx3zdALdmz3b4Er6VKY5CpWN78DVdZwwItCOT6JFIbMq0np7bSiiqOxnk7WdAsiweMGZQ6bvgzGAOHSSGIzK7jFz7bUhzKm8hioakgadVN+iUATCVz7hk4u5EFDzxuMOQcPF575yy6Rj0Lk0bY8uiykJDZNTyuDAWLckYeMNP41Bi8kS+OOrxh1dlbUyWKZEQSDMihdcuUfoyYxSp/A5TacFNjsbjL14f8pusBywibvBCPq2JAWFEo6KgXXI0PkW7b4CpzL7Ar9fUl8pP/ys5CnmxnzMJyu89PPQkYnsZUPcmvR+/4am0U9taMJOGFJriZRCaaZskV84uD6bsKsb4TqCwYyrHBjNmKJt8wIBVZDFm3IIStJ3WrwUTM5gihFrIq8NxjJ7G76PKopCKn5gp6Xrl01lXeSUM0O0ZTZ5iU3PlAKkOyDxnKKKxEhKMe8tRm9CsJoPYiwfL1fMvfm3o9NFwyG/V+9OdN3gGZ3mO84T2P4YvD0Yb3qDb45TulX1MdmFuqHMXAf/Fu7gTh3IIAZa8TkiA+2EPA1KsiBZM3QP5K8bp02Eg3QcsVcuVJ1kk7ArfGKyM95wDKw7KotgJrXPGc6L1IYt9eKMb0rN9NM3cUZABeAwjurZVcR9boHZVRNG3y2nw0NAY9GGGLldweZIH6AQHcas0UDtyeJvxGUSbv+vSmpP7VJJ8tfIxNApmjYvFw6OTM36qCgOC1g2ewccpwui3LDMaZhCGu+ItFB54Ui+OrTicDOQFAFCKVTpFMYS4f5dMwW1pPtiAwn5OEIVCeSFnDHQppPdfqLEFW/elNDmpQsWkZ4PnUmwMJQgrOf2xuYCY5z4ZF9k2/p46g+k1RnVME+IHnoCyVYOTS34e09+DyngEmlw3xskPLmhqTqkWC+QOOI2Nv/ALYLh14J4O0jUefUfJoOI7jhovNan8UV6tzeBF3oHMCrRuUh6lKQw00uCQ5ejslJ+qOhl4NZH1n+0GMqk1bCL6aYI8aEAYqpXvK9gauPgzWclt1dpIe5dyZNry9WADKlyjWUQZzhZkChWVwG1wGa6a4GGmKzdMCtuNpxcUOwJaxgIKKwxCOmPKVk82gLkN1Wm9WyhcyKvtE7Za9EJhlxZcfU43A1fOnpIbxKEQ1jKd54PbmpQJNRbQqEKcJPlzyl+jhZW0yNtkqkYlCAevQnmvgWZATTlDuPc2fW3FM8mIwac0LY5JwfHJMDs+qvEPzxVjWK28eCrIE6GxVpGHn3uDdwtuNyANvDju+EoeEzs55bY+InAH4/pgAxJFDyEL0o48g8NQ5JTGzdV/GQnxVlEwLFidc5P78jrmtJAyllUgqjLTeDfZYxDipGJdPxm/wyMWV1T1S74ajOexmpdRBGbizCrGpDcgA9ga8CKJtBgbuJLtFz0EiHwYbh6FSDMpZUAaUe2n0cTsAjEucPtnt6BN+sHNIqQ62LEgXuhk7UzDJFcephgPT1J5kMsX6psBmaUB9vIFvI2av0+wHtxR4DeSZtz7y0H2HDYWWA85Lwmtnjon0VG4CucBebABWaoX7y3FBH+ww2diDs6amaRSogIY9ToyppqJkDyGGNkWIOnmJynGaBkqUwPBA6n4dEnkTfAi3quJDTAMDylX457QxXCMzamg8kXyw134kkgz6HYtvvQolWdZ1JzOrPABD8PVKIpH+Yz5gMMfyxVOaoFJd6XetgK6VuYKe2aWh3TNTBJueb52S8U6gK7wlt56csvd64JMDjfsNXyTthZF30Zc8Zxl+V52SdGT9jYgRdNQtAItWAPKz3TTgmyBc7uZPGStAaHqVenpjlJOvhobnRvTo2NO4LVCrEMhk2wK3ZZP510P8mfAbccaSwUrDq8DL250111PMJ4F3uKAY8H78X52TpglvNzioe78zQieN2l4jgE0k/XWkQAAIQlJREFU0jIvMGp4HPoPt3jpVgKj46YczZh0zVXblVHhhNI4idm1c90IC94pzwq1dHFlCo/hHLCFY8J1hb5u0d0d3xfaMItMOXAFoXyFK+KSKWWY++CgTvwYqG+T2EBSd+KLkTfkXgyhw8n/nvYW/QcbkOX1Frrrjkvx8NdxjRndOzbx2RW/46UiyC1Yy6GMCmSIgNO4PlMJlS0chUfGKxXHA+7jQ56M8xV4Ftv8XXkZ6t1cMMKLlXrAIPuYZnbG78qfsmfnhFqd041o2NdU1itWfM/5NZZLuw66vU0MSWPUixEa72Wk4qSRMA7ySZzjhkNmg8cs/D0+nA4naJKnWPCLgYLvGr7esF/oCrtjhYwccjEgjdN8P+Pi/p9Duq88/6Im9T7+VEP26agbVQU7XWPqPEyNKUQfGNKF9TErNNRTxxpUVljHb0bP1IjNeis82ICs1zICKlek+QMryO1b9Qp+1NsPOTkGcO1FHoqTxpFKjiLliKNbWQML/D1mSYnVok9wL06PaUH+djwjC3aVum6jYmzb4nKaTp0OT47mw5ePF8O3nx8OXx5Ph6eayYofv+XXnl+ym/A/Xy+H/7q4Hf7CQuibjWMQn8azGuzYiHs9SVpp4yU8Y1ruFlw0w/nmdDr8+snB8PXxZHg0ZWBKo7lhTezF+e3wHy+uh/+6Wg/P0Qm/cA91HgaLEzazAxHjOTo5zuTAXQAuhdzxmpBWk8dBcQ+llFQeMFGXSfsG9aR3xoiUrepPyQylQ3Upjz2kngPAKenbzAcb0C5S61S8CmeX4adtJxz53VIq+tbBpE0IhqScaJgkblKd2hVko5YCLoDFCBLwygW8s8Nj1oMYL8zZzwP6BYefZKkxC0oAz4wKfoTn+fp0Mfzm8eHwzfF6OFv58weUo+v5nt/wul1fDxfw/XqzGK7oZvBNjSP5LuHsouQ/f5UUYz2Ahp7n67P58H8+nQ/f8VXxR+CaYozXG4xyxid/h+vhGuO5oqu8xDBrcQ7czAD0QMenfPSKxrBi6naHZ1zBVxrcbu2FD/WlwpoeGh/qozEcdpuKwl/y2kkjSVAODMfdmH5NRJl6H5Y6FD0wgSehKI6lQdEId0Kk7GVATlU1nhUthMYYDzCl9cz4SevZ6fVw8OiU9SAdPi1OhqxcaasExhTpz2Fw1FMYkl1DsZ1b6zFBYRrXFJrMMKDZcriZvsTb4fF4af4A+7X7cN5zB19rXg0+YuX686OD4Tvyv1pfsIvwL/ng5vyKru01m8Jesy0VLzZlIWTKN4OkHRYRzs1x/nivVNdWrAoNP+Qhjx7uMc/mPjuaDp8fTobHU35W4fwVm9R4aZGdijM80ITfC5voIadsFEPT2aJLg5rCpHunjh6fDQdnx2zduKWrYwjgmIuuVmnlo/ejpTfitUbAjUHO1Gci7dQiFE6ZQKEvPRmgpm0w8PXlOS8DXKBDxl688TLB/dlzKFcI890jyVu34lcLYq4u1Pg2PNyAdkrHA2kFKpdB2R2fT9nw/Z3pGesazDDKQsyXPNwAh6uAR+IeXfodnLL2VtSkMaQSaL2sKvJjcvUGZ17bQTnTDNopzThpgrIPOI4wqVNa92Llzw/485NsSb3cDNcXdDU8FsEhZQOVSpKuSk4rhL/8NWaQkD9lURxGQeBeIAs913CMpg/5yJQ7HP2BuaVP0y/d+sq7+P7a04KBEFYz8Yi+4I+Hp4enZ1kDuqTibmiAkNbaohu1UwxxHSO5SXKdBOqBvOjZeMGp7tBT19BYa6TsqNzggSZ6IPWXSQNwwGQoQOnooaNVD+D1r3J6Rl0fbkCW01JjDFtk7ou+wKoPeGXGHXhz9p3CG5UJrBw147FELfyVkMYfEpxB0UzxnezUY1HRr3r568f+2p4NzSEuKdmxOKNSJzfMBjGYzYbfzrheDVcczxnZ/ul6ObxAoee4Fd4tzWMEvVcZCopu90lpItgiXdS2RWfg77oO+6np/2itNh5+I+xqNVzigc7Bf86M6hKkt/4o8MY9i1Rc7AP+D0+G+cnjYX7IIwz4vPMzeSLHa/d1p1iUakJ3+ZMBedEg1GkzlNwFzvKCo/vkc68gBCcOS7Y6LtmWS7dAPgB5ZkiDDlrSYigAI1/sXBzgrdFgksOSvPTwcAOybCsfnsXEjW9lXPr1L961OvGLXXQhfPsNz8SgMPAwSgvM7copeAnbGfnYK+0IHA4C6530cvgjS1FpHobCzy1f4uDzmsP3GMpqo/e5GV5d3jGwXQ5/xkv8gC7PqdFrLJ2JNZjLMOLqYUhKTs9tfSpRQePG0S71wZCPlxQvlsNz5Fwzvlq9uuYjVszuMJw/M8b6gZnea8ZWdGQYuMWRnusSD+rzvCWH4YpB9xW8ug7kq8xVeQBayR54O//qvXsKaCAiakGdBn23FhN6oLH79N0PbKkPP4bukCIr+OLWGXT4QgKyhrtfuHaD7Gj79eEG1EqWCM5TCJhwXu3xdRe+QzjDiFwpXhH3y11auxW/nuA+ZW4DWddG9gh5lkTFrPlc3cBsakLLndB9qojoAeWql1s8wyuU9ieMZTa7oxu74HfELoY3N3ggWt5zlqdfwuQ5Hswv+2hAXY+9ooPIqnLtKbw6pObA+G+Zpr+6WA1/sjuYXQ3Hd5f5HvUl+N9gBM8x2r8A94bxz3LKmG3KdH3CmgLe85Yx1yWV/YaPf86Q4dXFm+Gc7v8afuspvAuh3UQ046a/jPBcqHT5rzfAyi3mrQ2kUAFNGFfLXfdZYpw3vE2yopEvMP78hhq6qmbRK8LmWEXzVEA8xtVpbtrJSCp+z0G0aAwlpAZh/WFEMLlBEbcvX6ev9XcjHLRlYQzhVy7/WzDG0xVgwgMCdFz/mVxfoXxmVdxP45LB4SiXpoK8LBBOhtekM0zRX2WQfXNLxel1oM9v+AxXeILbubMgtolYKTVN5AqXytSaXVVl41fkKNbFynPw/xUHC1p+lZnrNZ0UVzrx4WK6GF7Txd7MT8jkgMbEdSB5tFIZHF29egWjXl8O18ij9yErxpExSdSiPBqR3SrCJDQDgq6hD5grkoTwKKY8+6LBrRw8Y0ATxmn+FMMhhpzHGNZiNxRF8/BPFYQX8DV9mOM/RcawnwcSQfws11CUCcYgCoiLvPnhRX741m/xTGDexUWaFkW4wpX8tLoZGfn4G8uzEIfhzGj9MzxBuWOrGQ7ga00ffgs/GgqjIUYe/vINbzvwS853jEV8ZWaFsSxdOGQwPpkdMe52mt28EGVVYn2TUbyJpXJVoKZkhTJdAM9ieOMqMzRWi1NmNQygmYHekea6z4b8zQwDhQ/dsh5hgSeevz4fbv70p2GNkS31plSwOnHIqBql0X10eW/1ZybyO2vytnU1vT4zYCY5Na9hCAKcBjbHC7mEMcVbn2DEvo5Ufs4CFbrhaKaiLzzegKlI17UTJOfhBmThYBdxBaNpMdKh/1+inDXvjmvZ/lbXBnduPxwDQzsa2w4PHc1HXqEmHfA5EJm5poIRx3g412u6XKlA2hsVzBsOdJkTDOSOisRPpsuLemmFvtJSo32fdoEXnku8qDP35ZHkmIMaybeAyHFYzF5MyokDI2G5IH9UrF119k7Hq2FIVJq4ld1ncnrP2+fP8wjDNZkZsmRAoPFgZFIrA9J8wArd/tV77K/qQAMSkJALca+QydV7U7w6iF5gPAynMB44li8FHeX1nn+AI4N57wsi2wkPNyALBwlkGhEvWr/L+yrJ6XK+GQiTaSl4iYxdjORAS8nY4eQjb1VtZmKR1MorFen67ap8DOCboYa8585Vr6SRrBi0qhz9kuWmpFmaOiWAWTD4qj+SRGNaTtzEUCkPDCZqU+DAk3GMwCpD4zYl+LwqL/CA2Yh8Ck4fzxDuDQYOdqKpCK7eW8leNTZDjIcEez9Zcc9TBvPmAbcNZMp90uBRHKRYLyQXx9xrmOalsQjMwRk6QrfAbZWP9MjANWiE3Ib9DGgsL/EiLFqJxDMoON1V9uVY0Vh/+lkZkCsHJl73CA7o9DIgKKGiIhHJiArXQ5gv/qJhRWt05fe40gKtAD1EQFxF5ybOgrttKDqS2OVW9MalpnfwkB+N0qtBeevOmGaWRK6kI3saGl28lGuQXkhVi2adNZkYIgmyabaVbUVaRnxErXqTTUhaJRdseKiGbV54KNCUtbyFLR+VCRQ8hUmDqTvSCYHxtFN3+xlQYziMixnNlyKbKonX0+kaNMuIglusOOI+ERMeGCzXWriLbr0yvMoFXXtC0RSYA6EzBXYurdfpg3izVGCrqLBZNR0cafnehdlUVek8Hg5TUJF4Fv2Q46fqBEHQeMhNE1Tp2yNaoUFa+giflDRFXjQPdzMYZ/JNmjJJq4y10JkLvH+RzQbJfyvXMgUghLvgq3qvssoUgywQqydB+hbzaElJl1aFfq3Ygw2okBbjolAwKYVoU5aVKEPljcy33fFXtVrAFt4zVB2rbH0AAc30LjLswEyuydRD0PpI00E5o9lVkokpGwnA3PWjDArHf2TrtELVTsBUEWo8hTzgEsawVUwW/IiaFPgAyKsxcZc3ESKVab7plgeiYLz3IES/FKac1FOuwyVBnJVe5QuqKikFUkY8LWe8VsEUDoq662UaaaHfyniwAXX2FMHnXGFEfZGRKSgEVGi6s8qt2oNyd/WqrffhWxY/7k7+p5mqCC99/hxjSCv8eAWqV0ZXvuUCgkE5G2zcpEziFgnz5eAs3+ptrC4NNd7C6bgkNZ4a34WkaYQ8e1LTjY/qzprZUqZ/NFMdaQw12wO8iieuTbrlNqnNYNSfRqV/atgqv5XrDdQ8G5VlCydxY2GaLCOVtL1p8boEQ0pbpGMpXDtFKb23AYlMYl5DxEg/uK3mXiTLmMgEMG46lSvQvgHFBp2i+Uek0VZvJbT1b3rLg5QghvJclDPP8lhWVIbrrEUz0sBTFRUI8oWpzoemw311M7X2hIdtspEByZK7fF8IUrqFyG4sXEudWz2Z5VrFiUvwMLylOpYwExplKMVJ4KtAcFu8hy53IQR3T+jXBqiMyl/DD7AX0ugiZRo/SWhl9jCgHVbVsiGCQ9BtpoquK7J1kq9SVLXiBpw8GWyNu8o/4GzJFWMYKadFaQQq00tL611nptGm+p9LSuGJaMvRDolp5FZFM0pwyH4CWos8RgKvFG4a48if6nNRz2k65RxL4Q3tsJ1EjB/IDHHHMWiCLOcQsRim802QYMtsiYS8iybtlJODFIgMltRFBo9dHSKYK8sdLhHipXUNgoiAZBRcwZvaknPRE1pGHdegIxDbk/wkcE1lIn2hHZO52RIa86RqMMHAtSqvQYsM5L0FKWCSAPRvZFcGiXY+giMIC0+7jZDeR4FcO9wYT1rDatOQBKHyO7PmtwyTQrdzY7o8p9CWDtHGeF0bJzGiLVqArLLC0b1Nl1QU4qiqqqod+SgmSn7wdSiLFJ4dIlpIFGVaYYt8RmPMpoK/FZGbHlxgMF34oCDTxlxdYBVJsRQqmIYmmepbzquw13aYZiC/B5oPuT1Bgsn3KlBdJWzog8rdz6FJMfKAo942UL1g8d8+nGu+piGcyDnZdUSYeKqAkGxmhW4w1SJdz4G++GhKQWHLNYRv8pC2K8t88ZfKOZPtINl8dwGGvh6INhb+giiFPPEnSNTHTdEFYUG5GJg73ZYMKYtlXNkjgN5YYZEPB9umedITFJ7C3nCax23B1L2TDnOLFtjqppEkB8+jTHo4Q8mObigX3UFAHlIf0uRQ4qoHok2P8TiRsdFTHohlUgHN8srqXG7ASX351+OmVRcmg9Kpk6CNe8GTBVFWL307lEpwt59x0ZoPxSqvwSRKG5AYnqgGiFYg5Snr1zUUKIzq8i1KvFjU2HgU4PMzcErLzef64NCL4EBKNIRDrHBFcBJzLZwzaYFZPsqAKk7nQroBxY70arqcn9yGZtawGl/RgnxWodiT/NWipbkoFd7cBy6dyGwa9wZhu26tBH/4pXiCDjwqp/EbHjxrFK1YZDHvgLdXlaUMIKYQZjTI0PDKXwwGPtOVQleepOeTeD8HOKO/yWZ+N5FRRr4M3o+8Ar9ixdqH4/nIOfEIXqDlLLoiKOsu720go+eZvCXA59d4ZnPCC3BH7OM9ZFO78bJkGBFJxyMOGPJ7zBc8WNUYjB+wf8eyGmEHjWKJ9JZp3P3ElzzNV2iVt+CNhaPj43vloq7QwSBaRUovFeCTeYJ0jvxoAdeEBqf6o9imFX8/7PXr16HnNwqPeD/rGHrK10P0QHnppliT74qHk93Y57wlon4iH7AG6RiMdl36gy/+atAoH2/bSk/+f/jh+XDF03ILSM2g/F98/nm+nXgLr372RSOTzsnpSeSLYYVmGULeS6OshnQNj6/fvI5BZBO/X4L1U3oarZ44rHpiJKeR8txSPV5Rd2/4ZaNb7gvGepWj4ss7A9otYRNT0J38QmtBWhcMH7MB/MnTJzkULK0lhGtQ67aBIPUdJwi/ePmCLRTs6ST4CVvLLlDY0u0YCKdS9QnxMhAz7dLHIFxVtLCnZ2fDZ59/lu8nj5XFIwl5qoot/lTuK55uaxAjvSdPhkO+eupeJRUTl69QerUmp5UpXulpAI8ePRqePn1KOb5ViDz+InNXoIYur/6K0C17nl6+fJWn6PKhfJaLfHoY0uTR0BuYaRqIOLt8Z8r32Wep6HO+nn/FhjyrpJuQfHzx7IsY2Wu+KnvFU3t3PmS77hdfhJ649BgKpRfSOGQ6m/zYXqN8ynLK+/dnyPf48SMMsjbiyUt9rLTqwTq4Yd/QOXRXPHSOB6NReo3SFAncPeQnuIpjPYm9c7cg2xuAKEE96J6PadEq6ZvvvsGKF8M5Fqqgp2wON1gZIj+mIlSwqM4P+J1SmBTm66+/yqss8Uw8GRZWKnYbBl2/45TzN29iTFUpT4Zvv/0WekfDG9NR3gmGbOVoLHJ7xOsxboeQl3MUZp4V8xX0rFA9mkqMiwe+i2+36t5t8Xp/yjvqTz97Ovzq619Fwcpj5cQY8CbCik+PcQ1tG9vsTY1zpGc5G1anp2z5bwTVu5X75lw5VnjWw+Hxk8fDN9/+ijKXw5/+/KfIEKGaPg74FsCXXz6L/pQ9LY68R3ya+OuvkA+Pqb7cjKbckQlZ5Fkvp46Vw6+nqEP5/JJyx/QG6k+9CNcNPuVO2ALsLgGM0ri/9HjHs7v3hebfrQZpISH/veVwgyyVZ1p1CzAB8/6a4GsYN6hQg4yqq3RVeKHDo9d0SWwY5ZdDbDF6E7sGGepM621yNNrXeCArzZZgS9c4ztw7TIuJccCP9GCnGQ3fTEQZ8qNrjgciz4o8xcXrMV7iCa3UkotmYTshGO+8GLdydfMakrTPNSAUXINNXTxP0uHDV3H8HN3hKyoBXh2HWjmWk94rPNMFjStBhRBKi+w+RPbIh7w2FnlWL47xlEO+S+c2h9LlKfrWe0Q+9Cmu0FMvyH3+Bi9D16ZFVx3iCnj+qAe6Qp8aiek21EMMTiOyLm046rR/41s+9XhnZ3go8t0laXcmv72+hNkNDKtgh38JqCgtaBxAtv4sg8KmdeEkeMsWhO+//z64Hj9+nMp4/vwH8FTrsCUI52FlG/ebigrz4sWLuH9x3cGcrc8vcklXRhXalv4YI5I3PdiSnYU//AB+/s5468Oyf/nLX0P/RINCOeEeeJkw37hjgD//+c/A/iVuPl6uNWPv5c8vrKlYeUs3B8NWyHP4fP7ieeECmfzb3dgNaCihFw5Kf3YF8v7H//iP4a9//WsaQbn+MiBZ82PmN+yi1FCibxL1LPJ/zBc61OVu0HNrzG8PLYr2Jp7HBvLixcsYzJLtNDbaZRuoK9M1P3duw9Aw0gVDy670d7/73fBf6KX0ZR0Nw5fPvhx++9unePnPMLBzGsI5jUxPXPWpXpWjBz6x06Ow1FpmzwwkySohwkZlpSwr3NZr+TKSCR6I/hsY4wcH1S2JSxgPaOc6xwtZYSbUoI33s2ixVoDeSIWmHw8jzGpoTVao9GJQxB0AXrgRi2ClLGjNnY4w3huc8bxi7PA9xhelQrN3ZeIFMK1Reg5GS5k1fnGcYEtXaaYHFt774DgEPEmq0ZTeS8ZiNq7uWbsXD27gfJab2SjFrFCDvyL9BWMaPUPnHUgMinEcuoo46jDQnOSHkO9LM/i3K3Pv1SVvn9ho7A2U17pwnKPMevUeNKyXL18O32PoQR50vK4UWnh1DM5766rqbqTcUeQ6GlBGIwq3m00kLRlmNaIokvzoC2F6hXUCMjjCxOM4oGO632DNcxz13XffDauvFYp9yQhhF2Dlae0ag8KqWA9AIngpgql2wye/8iov+cIpBtDL6Cns0qxojVHjcxCpdOElpdSbpcsDyFsvrxx2U/L59ddfB0ZGhFahdqF6mqSZztF5kGa+GQm9viRgvviVUX5WbvKnYtXNLFN/vA/joX/4h38IPfkwWMYu3674yt84gwEP8UR2Inqtb7/7NuMa9ebA/ne/+/+CX2NSdhs/NRN8aaDIJ47iu+pHevJUfFY9Rh/QyFsv5L0vtFlYayMAZ12pKXjXnGTcbihKNwJM7rmTqMcW3jzhC86syq/Ksk/1HXAV3LuNLF7JIbCIVziNy0vQ9EqIKiop2UXLhC0f8BmISov3hAnRGJr6020kZsVGoZ1neNDr0UrltULRkUa8Z0v1EroyLquRuTJHjVDG+wqdC2LbxNC3+7ZLj/LMVnEArVaMMXOvVMWHZMy10h2Hyadfe/XV6O5pOtUMH6i7EW9KtsakscofyOTdw/tM8cFfQUzqz7/7Ya5ybcsyE+GjhALqDi+WSAu3xXSr3CpK5RdkH+d0JhTRPI/e4uyG/vVf/3X44fsf4q59W+AN6zB9+m3ZKJLKs3sTh2493Ru8pvWFXgmrSCpa/HarljXY0vv4Q0P1MEQ5Ggv3dlvKbZlxTaQpUW/47//9v9P1fV80LUh4xozoX/7lX9JliEzZQp8ZS1pw49d1ocgtr61sdIeH8k9+hF/RzfhZHGdS/++//3u6vo5TOKfw//zP/5wxYZ4tKgt8qGt5duni3/7t36LPyAI+uzANSvzSVKfqUO9NQuibljxw+WFzeVQfHmRFps6HcHnTWDmaLOrCwNu7ki272j0n1xwSdcvdKIRPEU7C5+l1u9eFCld4yKOiCr6UL538idSyMG5X85j1GlNk3lbvwl4W8iKJPLi+0XiggqRvVjyiiJQfWn2kGbqkWc4u89kXz0JXUC2mu28bhLOsN6/fhJ6VKh8e/qjKc8ZNf/rjf8YQagxYebe/YUrM+CBBsqHNDSUdOzz78kuJR75UggYLUrs5V3nz/pxjHf7UgcF1s+//+v3wn//5x/CXxHa6/TX0/BUfSahTGdzRg112p6ehPGn6VE4blUsOrmZrCAmAy/+zZ89UB11qTePVv5ME6dhFO2O89l0yDBGqrSyFw0hFsyzs8xx5EqS8kTHvrTR5q0Iyky5HhModSSgV3JZph+nkK4DXjGlsMcSdQv72X347XP+GV4FpeZaY+xRfhXP/ildcfv/734fxfOFDMiqNa7UYK6NXtKXVqbv9qpXNec8r3SEFXLs6fXpKC/6/8HDX4SM8VrHwbQv+/R9+nwrUa0go9BSQ++iAc74jCC0/HhUdqUT+DdERleijmjNmTf/0T/80/OM//uM42I6BAWcjsHH84fd/QD5eSWrjH1u3WPP4gP3j8QLE9aKmCxcPEIOoytS7qLMnT57iEX87/OY3/AAe+jSoT4OeVfn++Mc/ZjoeHafinCk/imf79a9/HVgbevc4GvVzJh7Oll3FdjFY3so7lfLK8UAL/vwvXYw60aBahleQa4Vasq79ZaaMTLd5cdCSr3kPTDAtViYdGEvMmZXE9WCX88vhxfMXMaCsedBSq4uyopsBoSA9TxTLyzi6Yem5oq0yMnCFousshqJf8awvXfD2Ke5bRfhuvlNbp8HKcsgrPfLmIa8GleBMy98qlZZvbtqVvGTmZVeb8QgwBY4X5M4uxxVhZ1vy5rqVeGz58umalXblNL1aPOZGvkHS82t+zgDPp1E5DnTmKp+1aOl6DYDWg0S5+sEpPaSLesJKz1Ggntvpux5NmfQoZUB2jxSmrDypMz2fOnFNx8Vf6Z2xZmXw98n0YPKoUQr/kp8Eta6cvUovSxuBbid5bGFuqzDeH/cnkgQFLil8iU5hXa/5Yfo8gzYZd93HYAVZ5AfGC8ZUjkbhQqMVIxYX8izv+k65YCErVAsto1UA11506d67pnGF99CAHY+o4K5k14VEIn0N1tatkmT74vwyBqzrj4uHVB9MSz+iUc7xgl7PMZgNwIrUiDQQ+e0EpWEZefqPP/whszEX4pTPoMF1+ZIA7DZIUFR81IHyL394GeO8uXGQjhHBq+tq8m7jES5Gh6zy8z/+x/+fMZeLfq7wO8m45rUgeT/EUBMQyjro5aw7u2Rnbxqa8vVFwSve0E09UECZ4tG52mPUutxFnmMqj7NXvZ+9SPhqXW6Xra1E9+juVXaKKUpmaqrbdU3BPjzXeCAIN9epsAY9i1bvjECrNswueRsUhkxPhwTnGq9BeJlTaF2lDyktF6+Agq/9fVJcrwo0+J6ZvLnAFSNHcFu7Cu2uXaFdodWw4nopERdd1JvinKL68JB+HkUppx4zrRycPl8jKTNTDcCQsQoTAOnJX6enN7xo9BCsgFWhYSfq2oyezoGzwwFpy6eTBBup8kizTrwgiVH9lbGR3kQe1btDjqsr5OfzMRkYh0gjRGEbirp1icDxjcZtWb1ZDAS9aVxd59Fh41H956EtvPQPfqaewlcNJRpoqPoJHELPIKvneq1M0sqrOF3UIqfXRVzlGc6bAemVbAYXfKmCIlVhDYdM+pAuGRbaIdVbTehgKLpi0zTMEqg+hpRKpujlqi0gQl82z9c8/+IqP10p4lLw8hxFLHSAGwPJnU6fhfn69ZJxiLLr9WTU/UXix6bimdZ5TMEYhUpXc+YVPScRiXhKUL2VVuqUjnJJV9km02401YU4ZhRFUSyZ+tDAMqMMAN1Oy7sXJc+twYcnMEBYev2Zlp930YCjl85UFRtRdH1ENuhZn/0Vb3US8UZouskynZbyVq7C9yCcFdSNpqd7fTvNnyv6qULqsG/Yakj9INNueJv+bt5D7zMMLaL3inZd6ClW/iLcTxDsisatSW/ja3VhheqpfrLwHtn+Ju4u/HsA27zuPTm/JP2igY/QwC8G9BFK+gXkwxr4xYA+rJtfcj5CA78Y0Eco6ReQD2vgFwP6sG5+yfkIDfxiQB+hpF9APqyB/wkKcMzPHrqhMAAAAABJRU5ErkJggg==;" vertex="1" parent="1">
          <mxGeometry x="524.4300000000001" y="49.800000000000004" width="41.14" height="40" as="geometry" />
        </mxCell>
        <mxCell id="yftwJMYlTaSGauuBOo6N-62" value="" style="shape=image;verticalLabelPosition=bottom;labelBackgroundColor=default;verticalAlign=top;aspect=fixed;imageAspect=0;image=https://www.rabbitmq.com/img/rabbitmq-logo-with-name.svg;" vertex="1" parent="1">
          <mxGeometry x="502.5" y="98.30000000000001" width="85" height="13.6" as="geometry" />
        </mxCell>
        <mxCell id="yftwJMYlTaSGauuBOo6N-65" value="" style="shape=image;verticalLabelPosition=bottom;labelBackgroundColor=default;verticalAlign=top;aspect=fixed;imageAspect=0;image=data:image/png,iVBORw0KGgoAAAANSUhEUgAACLYAAAI0CAYAAAAK1DK7AAAMTmlDQ1BJQ0MgUHJvZmlsZQAASImVVwdYU8kWnltSIQQIhCIl9CaISAkgJYQWekcQlZAECCXGhKBiRxdXcK2ICJYVXQVR7ICIDXXVlUWxu5bFgsrKurguduVNCKDLvvK9+b65899/zvxzzrlz79wBgN7Fl0rzUE0A8iUFsriQANaklFQWqQdggAH0gC0AfIFcyomJiQCwDLd/L69vAETZXnVUav2z/78WLaFILgAAiYE4QygX5EN8CAC8VSCVFQBAlELeYmaBVInLIdaRQQchrlXiLBVuVeIMFb48aJMQx4X4MQBkdT5flgWARh/kWYWCLKhDh9ECZ4lQLIHYH2Lf/PzpQogXQmwLbeCcdKU+O+Mrnay/aWaMaPL5WSNYFctgIQeK5dI8/uz/Mx3/u+TnKYbnsIFVPVsWGqeMGebtce70cCVWh/itJCMqGmJtAFBcLBy0V2JmtiI0UWWP2grkXJgzwIR4ojwvnjfExwn5geEQG0GcKcmLihiyKc4UByttYP7QSnEBLwFifYhrRfKg+CGbk7LpccPz3siUcTlD/DO+bNAHpf5nRW4iR6WPaWeLeEP6mFNRdkIyxFSIAwvFSVEQa0AcJc+NDx+ySSvK5kYN28gUccpYLCGWiSQhASp9rCJTFhw3ZL8rXz4cO3YyW8yLGsJXCrITQlW5wh4L+IP+w1iwPpGEkzisI5JPihiORSgKDFLFjpNFksR4FY/rSwsC4lRjcXtpXsyQPR4gygtR8uYQJ8gL44fHFhbAxanSx0ukBTEJKj/xqhx+WIzKH3wfiABcEAhYQAFrBpgOcoC4o7epF96peoIBH8hAFhABxyFmeETyYI8EXuNBEfgdIhGQj4wLGOwVgULIfxrFKjnxCKe6OoLMoT6lSi54AnE+CAd58F4xqCQZ8SAJPIaM+B8e8WEVwBjyYFX2/3t+mP3CcCATMcQohmdk0YctiUHEQGIoMZhohxvivrg3HgGv/rC64GzccziOL/aEJ4ROwkPCdUIX4fY0cbFslJeRoAvqBw/lJ+Pr/ODWUNMND8B9oDpUxpm4IXDEXeE8HNwPzuwGWe6Q38qssEZp/y2Cr57QkB3FmYJS9Cj+FNvRIzXsNdxGVJS5/jo/Kl8zRvLNHekZPT/3q+wLYRs+2hL7FjuIncNOYRewVqwJsLATWDPWjh1T4pEV93hwxQ3PFjfoTy7UGb1mvjxZZSblzvXOPc4fVX0FolkFypeRO106WybOyi5gceCOIWLxJAKnsSwXZxc3AJT7j+rz9ip2cF9BmO1fuMW/AuBzYmBg4OgXLuwEAPs94CfhyBfOlg23FjUAzh8RKGSFKg5XXgjwy0GHb58BMAEWcH9zBC7AHXgDfxAEwkA0SAApYCr0PhuucxmYCeaCRaAElIFVYB2oAlvANlAL9oADoAm0glPgR3ARXAbXwR24errBc9AHXoMPCIKQEBrCQAwQU8QKcUBcEDbiiwQhEUgckoKkI1mIBFEgc5HFSBmyBqlCtiJ1yH7kCHIKuYB0IreRB0gP8ifyHsVQdVQHNUat0XEoG+Wg4WgCOgXNQmegRegSdAVaidagu9FG9BR6Eb2OdqHP0X4MYGoYEzPDHDE2xsWisVQsE5Nh87FSrAKrwRqwFvicr2JdWC/2DifiDJyFO8IVHIon4gJ8Bj4fX45X4bV4I34Gv4o/wPvwzwQawYjgQPAi8AiTCFmEmYQSQgVhB+Ew4Sx8l7oJr4lEIpNoQ/SA72IKMYc4h7icuIm4l3iS2El8ROwnkUgGJAeSDymaxCcVkEpIG0i7SSdIV0jdpLdkNbIp2YUcTE4lS8jF5AryLvJx8hXyU/IHiibFiuJFiaYIKbMpKynbKS2US5RuygeqFtWG6kNNoOZQF1ErqQ3Us9S71Fdqamrmap5qsWpitYVqlWr71M6rPVB7p66tbq/OVU9TV6ivUN+pflL9tvorGo1mTfOnpdIKaCtodbTTtPu0txoMDScNnoZQY4FGtUajxhWNF3QK3YrOoU+lF9Er6Afpl+i9mhRNa02uJl9zvma15hHNm5r9Wgyt8VrRWvlay7V2aV3QeqZN0rbWDtIWai/R3qZ9WvsRA2NYMLgMAWMxYzvjLKNbh6hjo8PTydEp09mj06HTp6ut66qbpDtLt1r3mG4XE2NaM3nMPOZK5gHmDeZ7PWM9jp5Ib5leg94VvTf6Y/T99UX6pfp79a/rvzdgGQQZ5BqsNmgyuGeIG9obxhrONNxseNawd4zOGO8xgjGlYw6M+cUINbI3ijOaY7TNqN2o39jEOMRYarzB+LRxrwnTxN8kx6Tc5LhJjynD1NdUbFpuesL0N5Yui8PKY1WyzrD6zIzMQs0UZlvNOsw+mNuYJ5oXm+81v2dBtWBbZFqUW7RZ9FmaWkZazrWst/zFimLFtsq2Wm91zuqNtY11svVS6ybrZzb6NjybIpt6m7u2NFs/2xm2NbbX7Ih2bLtcu012l+1Rezf7bPtq+0sOqIO7g9hhk0PnWMJYz7GSsTVjbzqqO3IcCx3rHR84MZ0inIqdmpxejLMclzpu9bhz4z47uznnOW93vjNee3zY+OLxLeP/dLF3EbhUu1ybQJsQPGHBhOYJL10dXEWum11vuTHcIt2WurW5fXL3cJe5N7j3eFh6pHts9LjJ1mHHsJezz3sSPAM8F3i2er7zcvcq8Drg9Ye3o3eu9y7vZxNtJoombp/4yMfch++z1afLl+Wb7vu9b5efmR/fr8bvob+Fv9B/h/9Tjh0nh7Ob8yLAOUAWcDjgDdeLO497MhALDAksDewI0g5KDKoKuh9sHpwVXB/cF+IWMifkZCghNDx0dehNnjFPwKvj9YV5hM0LOxOuHh4fXhX+MMI+QhbREolGhkWujbwbZRUliWqKBtG86LXR92JsYmbEHI0lxsbEVsc+iRsfNzfuXDwjflr8rvjXCQEJKxPuJNomKhLbkuhJaUl1SW+SA5PXJHdNGjdp3qSLKYYp4pTmVFJqUuqO1P7JQZPXTe5Oc0srSbsxxWbKrCkXphpOzZt6bBp9Gn/awXRCenL6rvSP/Gh+Db8/g5exMaNPwBWsFzwX+gvLhT0iH9Ea0dNMn8w1mc+yfLLWZvVk+2VXZPeKueIq8cuc0JwtOW9yo3N35g7kJeftzSfnp+cfkWhLciVnpptMnzW9U+ogLZF2zfCasW5GnyxctkOOyKfImwt04I9+u8JW8Y3iQaFvYXXh25lJMw/O0polmdU+2372stlPi4KLfpiDzxHMaZtrNnfR3AfzOPO2zkfmZ8xvW2CxYMmC7oUhC2sXURflLvq52Ll4TfFfi5MXtywxXrJwyaNvQr6pL9EokZXcXOq9dMu3+LfibzuWTVi2YdnnUmHpT2XOZRVlH5cLlv/03fjvKr8bWJG5omOl+8rNq4irJKturPZbXbtGa03RmkdrI9c2lrPKS8v/Wjdt3YUK14ot66nrFeu7KiMqmzdYbli14WNVdtX16oDqvRuNNi7b+GaTcNOVzf6bG7YYbynb8v578fe3toZsbayxrqnYRtxWuO3J9qTt535g/1C3w3BH2Y5POyU7u2rjas/UedTV7TLatbIerVfU9+xO2315T+Ce5gbHhq17mXvL9oF9in2/7U/ff+NA+IG2g+yDDYesDm08zDhc2og0zm7sa8pu6mpOae48EnakrcW75fBRp6M7W81aq4/pHlt5nHp8yfGBE0Un+k9KT/aeyjr1qG1a253Tk05fOxN7puNs+NnzPwb/ePoc59yJ8z7nWy94XTjyE/unpovuFxvb3doP/+z28+EO947GSx6Xmi97Xm7pnNh5/IrflVNXA6/+eI137eL1qOudNxJv3LqZdrPrlvDWs9t5t1/+UvjLhzsL7xLult7TvFdx3+h+za92v+7tcu869iDwQfvD+Id3HgkePX8sf/yxe8kT2pOKp6ZP6565PGvtCe65/Nvk37qfS59/6C35Xev3jS9sXxz6w/+P9r5Jfd0vZS8H/lz+yuDVzr9c/2rrj+m//zr/9Yc3pW8N3ta+Y7879z75/dMPMz+SPlZ+svvU8jn8892B/IEBKV/GH/wVwIDyaJMJwJ87AaClAMCA50bqZNX5cLAgqjPtIAL/CavOkIPFHYAG+E8f2wv/bm4CsG87ANZQn54GQAwNgARPgE6YMFKHz3KD505lIcKzwfdxnzLyM8C/Kaoz6Vd+j26BUtUVjG7/BebdgwsgGujHAAAAbGVYSWZNTQAqAAAACAAEARoABQAAAAEAAAA+ARsABQAAAAEAAABGASgAAwAAAAEAAgAAh2kABAAAAAEAAABOAAAAAAAAAJAAAAABAAAAkAAAAAEAAqACAAQAAAABAAAItqADAAQAAAABAAACNAAAAAADvFAtAAAACXBIWXMAABYlAAAWJQFJUiTwAABAAElEQVR4Aezdu5Ybx9YgaACkw5fgC9Do6ZmhmjJOuXwD0S37/NaxdUzRpqVj0xWdtqbXYo9XMlgjzkxPG3oBvYScU4XBLipZKBAo3PKyI+LLtSSigLxEfDsikciIjJgvV8vMUpXA23f/mv307ucHefr44f3s4tXLB+/5gwABAgQIECBAgAABAgQIECBAgAABAgQIECBAgAABAgQIECCQWWCuY0vm8JyWtmfPX2zd8M8/ft/6vjcJECBAgAABAgQIECBAgAABAgQIECBAgAABAgQIECBAgAABAhkFFhkTJU2nC8RoLbuW128ud33kfQIECBAgQIAAAQIECBAgQIAAAQIECBAgQIAAAQIECBAgQIBAOgEdW9KF5PQEbZuCaH1vV58+zx7r+LK+rtcECBAgQIAAAQIECBAgQIAAAQIECBAgQIAAAQIECBAgQIAAgakF5re3t8v5fD51Ohz/TIGr68+z1z9cHrSXjx/ezy5evTxoXSsRIECAAAECBAgQIECAAAECBAgQIECAAAECBAgQIECAAAECBKYSWCyXy6mO7bg9Crx99/PBeztm3YN3akUCBAgQIECAAAECBAgQIECAAAECBAgQIECAAAECBAgQIECAQM8CC6O19Cw6we5ieqGYZujQxZREh0pZjwABAgQIECBAgAABAgQIECBAgAABAgQIECBAgAABAgQIEJhSYL4ascWQLVNG4MxjR6eWn44YrWX9cKYkWtfwmgABAgQIECBAgAABAgQIECBAgAABAgQIECBAgAABAgQIEMgmML+5uVkuFots6ZKeAwWePX9x4JrbV9O5ZbuLdwkQIECAAAECBAgQIECAAAECBAgQIECAAAECBAgQIECAAIHpBVZ9WnRqmT4Mp6UgRms5d3l74mgv5x7X9gQIECBAgAABAgQIECBAgAABAgQIECBAgAABAgQIECBAgACBfQJ6tewTSvr5OVMQrWfp6tPnWR8dZNb36TUBAgQIECBAgAABAgQIECBAgAABAgQIECBAgAABAgQIECBAoA+B+b///e/lkydP+tiXfYwk0FenlvXkmpJoXcNrAgQIECBAgAABAgQIECBAgAABAgQIECBAgAABAgQIECBAIIPAfLlaMiREGg4XePb8xeErH7Hmn3/8fsTaViVAgAABAgQIECBAgAABAgQIECBAgAABAgQIECBAgAABAgQIDCtgKqJhfXvf+5DTBr1+c9l7eu2QAAECBAgQIECAAAECBAgQIECAAAECBAgQIECAAAECBAgQIHCqgI4tp8pNsN0QUxCtZ+Pq0+fZkB1n1o/lNQECBAgQIECAAAECBAgQIECAAAECBAgQIECAAAECBAgQIEBgn4CpiPYJJfn86vrz7PUPl6Ok5uOH97OLVy9HOZaDECBAgAABAgQIECBAgAABAgQIECBAgAABAgQIECBAgAABAgR2Ccxvb2+X8/l81+feTyLw7PmL0VJy8f3L2cdf3o92PAciQIAAAQIECBAgQIAAAQIECBAgQIAAAQIECBAgQIAAAQIECGwTWCyXy23vey+RwNjTA8WURK/fXCYSkBQCBAgQIECAAAECBAgQIECAAAECBAgQIECAAAECBAgQIECgRYHFamkx38XkOTq1/PTu59HTG51bxu5QM3omHZAAAQIECBAgQIAAAQIECBAgQIAAAQIECBAgQIAAAQIECBBILTBfjdhiyJakIbq6Xo2c8sPlpKn7+OH97OLVy0nT4OAECBAgQIAAAQIECBAgQIAAAQIECBAgQIAAAQIECBAgQIBAmwLzm5ubpVFbcgb/2fMXKRL25x+/p0iHRBAgQIAAAQIECBAgQIAAAQIECBAgQIAAAQIECBAgQIAAAQJtCSzm83lbOS4kt5mmAXr95rIQNckkQIAAAQIECBAgQIAAAQIECBAgQIAAAQIECBAgQIAAAQIEahJYmIkoXzijU8tP735Ok7CrT59nmTrapIGREAIECBAgQIAAAQIECBAgQIAAAQIECBAgQIAAAQIECBAgQGBQgfnt7e3SqC2DGh+182ydWtYT//HD+9nFq5frb3lNgAABAgQIECBAgAABAgQIECBAgAABAgQIECBAgAABAgQIEBhMYH5zc7NcLBaDHcCOjxN49vzFcRuMvPaff/w+8hEdjgABAgQIECBAgAABAgQIECBAgAABAgQIECBAgAABAgQIEGhVYNWnRaeWLMEvYbqf128us3BJBwECBAgQIECAAAECBAgQIECAAAECBAgQIECAAAECBAgQIFC5gF4tSQKceQqidaKrT59nJXTAWU+z1wQIECBAgAABAgQIECBAgAABAgQIECBAgAABAgQIECBAgECZAvPb29vlfD4vM/WVpLqUTi3r3B8/vJ9dvHq5/pbXBAgQIECAAAECBAgQIECAAAECBAgQIECAAAECBAgQIECAAIFeBebL1dLrHu3saIFnz18cvU2GDXRuyRAFaSBAgAABAgQIECBAgAABAgQIECBAgAABAgQIECBAgAABAvUKLPRrmTa4r99cTpuAM47+9t3PZ2xtUwIECBAgQIAAAQIECBAgQIAAAQIECBAgQIAAAQIECBAgQIDA4wI6tjzuM+inMQXR1afPgx5jyJ1H2iMPFgIECBAgQIAAAQIECBAgQIAAAQIECBAgQIAAAQIECBAgQIDAEAKL+Xw+xH7tc49AdAj5qYIRTyIPOrfsCbaPCRAgQIAAAQIECBAgQIAAAQIECBAgQIAAAQIECBAgQIAAgZME5qupiJYnbWmjkwWurj/PXv9wefL2GTf8+OH97OLVy4xJkyYCBAgQIECAAAECBAgQIECAAAECBAgQIECAAAECBAgQIECgUAEdWyYI3LPnLyY46vCH/POP34c/iCMQIECAAAECBAgQIECAAAECBAgQIECAAAECBAgQIECAAAECzQgsmslpkozWPG3P6zeXSZQlgwABAgQIECBAgAABAgQIECBAgAABAgQIECBAgAABAgQIEKhBQMeWEaMYnVp+evfziEcc91BXnz7Pau64M66moxEgQIAAAQIECBAgQIAAAQIECBAgQIAAAQIECBAgQIAAAQKL5XJJYQSB2ju1dITRcUfnlk7DvwQIECBAgAABAgQIECBAgAABAgQIECBAgAABAgQIECBAgMA5AvObm5vlYmHglnMQ9217df159vqHy32rVfX5xw/vZxevXlaVJ5khQIAAAQIECBAgQIAAAQIECBAgQIAAAQIECBAgQIAAAQIExhVYzOfzcY/Y4NHeVjz90K5wtpjnXRbeJ0CAAAECBAgQIECAAAECBAgQIECAAAECBAgQIECAAAECBE4T0LHlNLeDt4ppea4+fT54/VpWjDy/fnNZS3bkgwABAgQIECBAgAABAgQIECBAgAABAgQIECBAgAABAgQIEJhAYHF7ezvBYds4ZHRq+anB0Vq66EbnljCwECBAgAABAgQIECBAgAABAgQIECBAgAABAgQIECBAgAABAgROEZgvV8spG9rmcYHWO7Ws63z88H528erl+lteEyBAgAABAgQIECBAgAABAgQIECBAgAABAgQIECBAgAABAgT2CujYspfo+BWurlfT8PxwefyGFW+hc0vFwZU1AgQIECBAgAABAgQIECBAgAABAgQIECBAgAABAgQIECAwkMDi5uZmoF23u9u3DU8/tCvqTHbJeJ8AAQIECBAgQIAAAQIECBAgQIAAAQIECBAgQIAAAQIECBDYJbB48uTJrs+8f4JATEF09enzCVvWvUmYvH5zWXcm5Y4AAQIECBAgQIAAAQIECBAgQIAAAQIECBAgQIAAAQIECBDoVWDR694a31l0avnJaC07S0F0bgkjCwECBAgQIECAAAECBAgQIECAAAECBAgQIECAAAECBAgQIEDgEAEdWw5ROmAdnVoOQFqtEh1/dG45zMpaBAgQIECAAAECBAgQIECAAAECBAgQIECAAAECBAgQIECgdYH5crW0jnBu/q+uV9Ps/HB57m6a2v7jh/ezi1cvm8qzzBIgQIAAAQIECBAgQIAAAQIECBAgQIAAAQIECBAgQIAAAQLHCcxvb2+X8/n8uK2s/UDg2fMXD/72x2ECf/7x+2ErWosAAQIECBAgQIAAAQIECBAgQIAAAQIECBAgQIAAAQIECBBoUmBhwJbz4v76zeV5O2h4a3YNB1/WCRAgQIAAAQIECBAgQIAAAQIECBAgQIAAAQIECBAgQIDAAQKL1XLAalbZJvD23b9mV58+b/vIewcIhF0YWggQIECAAAECBAgQIECAAAECBAgQIECAAAECBAgQIECAAAEC2wT0atmmcsB70SHjp3c/H7CmVR4TCEOdWx4T8hkBAgQIECBAgAABAgQIECBAgAABAgQIECBAgAABAgQIEGhXYHF7e9tu7k/MuU4tJ8Lt2Eznlh0w3iZAgAABAgQIECBAgAABAgQIECBAgAABAgQIECBAgAABAo0LzFcdW5bz+bxxhsOzf3X9efb6h8vDN7DmwQIfP7yfXbx6efD6ViRAgAABAgQIECBAgAABAgQIECBAgAABAgQIECBAgAABAgTqFpjf3NwsFwszEh0a5mfPXxy6qvVOEPjzj99P2MomBAgQIECAAAECBAgQIECAAAECBAgQIECAAAECBAgQIECAQI0CC6O1HB7W128uD1/ZmicJMD6JzUYECBAgQIAAAQIECBAgQIAAAQIECBAgQIAAAQIECBAgQKBKgcVyuawyY31n6u27f82uPn3ue7f2tyEQxmFtIUCAAAECBAgQIECAAAECBAgQIECAAAECBAgQIECAAAECBAjMVx1b9GzZUw6io8VP737es5aP+xT4+OH97OLVyz53aV8ECBAgQIAAAQIECBAgQIAAAQIECBAgQIAAAQIECBAgQIBAYQI6thwQsGfPXxywllX6FtC5pW9R+yNAgAABAgQIECBAgAABAgQIECBAgAABAgQIECBAgAABAmUJmIpoT7xev7ncs4aPhxJ4a5ScoWjtlwABAgQIECBAgAABAgQIECBAgAABAgQIECBAgAABAgQIFCGwmM/nRSR0ikTGFERXnz5PcWjHXAmEfcTAQoAAAQIECBAgQIAAAQIECBAgQIAAAQIECBAgQIAAAQIECLQpYMSWHXGPDhU/GTFkh854b0cMdG4Zz9uRCBAgQIAAAQIECBAgQIAAAQIECBAgQIAAAQIECBAgQIBAJoH5zc3NcrFYZErT5Gm5uv48e/3D5eTpkIB7gY8f3s8uXr28f8MrAgQIECBAgAABAgQIECBAgAABAgQIECBAgAABAgQIECBAoHoBUxFtCfFbI7VsUZn2LTGZ1t/RCRAgQIAAAQIECBAgQIAAAQIECBAgQIAAAQIECBAgQIDAFAI6tmyox7Q3V58+b7zrz6kFIiav31xOnQzHJ0CAAAECBAgQIECAAAECBAgQIECAAAECBAgQIECAAAECBEYUMAfRGnZ0avnJaC1rIrleRueWiJGFAAECBAgQIECAAAECBAgQIECAAAECBAgQIECAAAECBAgQaENgvlwtbWT18VxeXa9GBPnh8vGVfJpC4OOH97OLVy9TpEUiCBAgQIAAAQIECBAgQIAAAQIECBAgQIAAAQIECBAgQIAAgeEEjNjyl+1bI7UMV8p63rNY9QxqdwQIECBAgAABAgQIECBAgAABAgQIECBAgAABAgQIECBAIKnAwoAts7vpbWKaG0sZAqYkKiNOUkmAAAECBAgQIECAAAECBAgQIECAAAECBAgQIECAAAECBM4VmN/c3CwXi3YHbnn77l+zn4zWcm45mmR7UxJNwu6gBAgQIECAAAECBAgQIECAAAECBAgQIECAAAECBAgQIEBgNIH57e3tcj6fj3bAbAd69vxFtiRJzxECOrccgWVVAgQIECBAgAABAgQIECBAgAABAgQIECBAgAABAgQIECBQmMCi5U4tMVqLpWyBt0bbKTuAUk+AAAECBAgQIECAAAECBAgQIECAAAECBAgQIECAAAECBB4RWKxGbHnk43o/MgVRHbG9+vR5poNSHbGUCwIECBAgQIAAAQIECBAgQIAAAQIECBAgQIAAAQIECBAgsCkwX66WzTdr//vq+vPs9Q+XtWezqfyZkqipcMssAQIECBAgQIAAAQIECBAgQIAAAQIECBAgQIAAAQIECDQi0GTHlmfPXzQS3nayefH9y9nHX963k2E5JUCAAAECBAgQIECAAAECBAgQIECAAAECBAgQIECAAAECDQgsbm5uGsjmfRZNW3NvUdMrUxLVFE15IUCAAAECBAgQIECAAAECBAgQIECAAAECBAgQIECAAAECXwSaGrElOrX89O5nsa9YwJREFQdX1ggQIECAAAECBAgQIECAAAECBAgQIECAAAECBAgQIECgOYGmOraYgqiN8q1zSxtxlksCBAgQIECAAAECBAgQIECAAAECBAgQIECAAAECBAgQqF9gUX8Wv+TQFEStRHo2e2tUnnaCLacECBAgQIAAAQIECBAgQIAAAQIECBAgQIAAAQIECBAgULVAEx1bTEFUdRn+JnNXnz6vOrf865v3vUGAAAECBAgQIECAAAECBAgQIECAAAECBAgQIECAAAECBAiUJTC/vb1dzufzslJ9ZGpNQXQkWCWrm5KokkDKBgECBAgQIECAAAECBAgQIECAAAECBAgQIECAAAECBAg0K7BYLpdVZ97IHVWH99HMmZLoUR4fEiBAgAABAgQIECBAgAABAgQIECBAgAABAgQIECBAgACB9AKL1ZI+kacm0BREp8rVsZ0pieqIo1wQIECAAAECBAgQIECAAAECBAgQIECAAAECBAgQIECAQLsC89WILdUO2WIKonYL9nrOTUm0ruE1AQIECBAgQIAAAQIECBAgQIAAAQIECBAgQIAAAQIECBAoR2Bxe3tbTmqPSKkpiI7AqnxVUxJVHmDZI0CAAAECBAgQIECAAAECBAgQIECAAAECBAgQIECAAIFqBRbz+by6zJmCqLqQnpUhUxKdxWdjAgQIECBAgAABAgQIECBAgAABAgQIECBAgAABAgQIECAwmcD85uZmuVgsJkvAEAc2BdEQquXv05RE5cdQDggQIECAAAECBAgQIECAAAECBAgQIECAAAECBAgQIECgLYHqRmwxBVFbBfiY3JqS6Bgt6xIgQIAAAQIECBAgQIAAAQIECBAgQIAAAQIECBAgQIAAgekFFsvlcvpU9JQCUxD1BFnpbkxJVGlgZYsAAQIECBAgQIAAAQIECBAgQIAAAQIECBAgQIAAAQIEqhWYrzq2VNOzxRRE1ZbTXjNmSqJeOe2MAAECBAgQIECAAAECBAgQIECAAAECBAgQIECAAAECBAgMJrAYbM8j79gURCODF3w4UxIVHDxJJ0CAAAECBAgQIECAAAECBAgQIECAAAECBAgQIECAAIGmBKqYisgURE2V2bMzG1MSXV1/Pns/dkCAAAECBAgQIECAAAECBAgQIECAAAECBAgQIECAAAECBAgMK1DFVESmIBq2kNS69z//+L3WrMkXAQIECBAgQIAAAQIECBAgQIAAAQIECBAgQIAAAQIECBCoQqD4EVtMQVRFOZwkE8rOJOwOSoAAAQIECBAgQIAAAQIECBAgQIAAAQIECBAgQIAAAQIEDhaY39zcLBeLxcEbZFrRFESZolFmWj5+eD+7ePWyzMRLNQECBAgQIECAAAECBAgQIECAAAECBAgQIECAAAECBAgQqFxgMZ/Pi83i1fVvxaZdwnMIvH33c46ESAUBAgQIECBAgAABAgQIECBAgAABAgQIECBAgAABAgQIECDwjUCxHVtitJarT5+/yZA3CBwjEGXIlETHiFmXAAECBAgQIECAAAECBAgQIECAAAECBAgQIECAAAECBAiMJzBfrpbxDtffkZ49f9HfzuypeQFTEjVfBAAQIECAAAECBAgQIECAAAECBAgQIECAAAECBAgQIECAQEKBRcI07U2SETb2ElnhSAFTEh0JZnUCBAgQIECAAAECBAgQIECAAAECBAgQIECAAAECBAgQIDCCQHEdW6JTy0/vfh6BxiFaEogpia6uTW3VUszllQABAgQIECBAgAABAgQIECBAgAABAgQIECBAgAABAgTyC8xvb2+X8/k8f0r/SqEpiIoJVXEJvfj+5ezjL++LS7cEEyBAgAABAgQIECBAgAABAgQIECBAgAABAgQIECBAgACBWgUWy+WymLyZgqiYUBWZ0Bi1RRkrMnQSTYAAAQIECBAgQIAAAQIECBAgQIAAAQIECBAgQIAAAQKVChQ1YovRWiothcmy9fHD+9nFq5fJUiU5BAgQIECAAAECBAgQIECAAAECBAgQIECAAAECBAgQIECgPYFFKdMQGUmjvcI5VY7fvvt5qkM7LgECBAgQIECAAAECBAgQIECAAAECBAgQIECAAAECBAgQILAmsLi9vV37M+fL6NTyk84GOYNTYapiSqKr688V5kyWCBAgQIAAAQIECBAgQIAAAQIECBAgQIAAAQIECBAgQIBAWQLz5WrJnmRTEGWPUH3pu/j+5ezjL+/ry5gcESBAgAABAgQIECBAgAABAgQIECBAgAABAgQIECBAgACBggQW2dNqCqLsEaozfTFqi7JXZ2zligABAgQIECBAgAABAgQIECBAgAABAgQIECBAgAABAgTKEZj/+9//Xj558iRtio3WkjY0TSTszz9+byKfMkmAAAECBAgQIECAAAECBAgQIECAAAECBAgQIECAAAECBDIKLDJ3ajFiRsYi01aaXr+5bCvDckuAAAECBAgQIECAAAECBAgQIECAAAECBAgQIECAAAECBBIJzJerJVF6vibl6vrz7PUPl1//9oLAVAIfP7yfXbx6OdXhHZcAAQIECBAgQIAAAQIECBAgQIAAAQIECBAgQIAAAQIECDQrsMia818/fc6aNOlqTODtu58by7HsEiBAgAABAgQIECBAgAABAgQIECBAgAABAgQIECBAgACBHAIpO7bEFEQ/6UyQo4RIxexq1ckqRhCyECBAgAABAgQIECBAgAABAgQIECBAgAABAgQIECBAgAABAuMKLDLORHR1/du4Co5GYI+AUVv2APmYAAECBAgQIECAAAECBAgQIECAAAECBAgQIECAAAECBAgMIJCuY0uM1hIjZFgIZBIwakumaEgLAQIECBAgQIAAAQIECBAgQIAAAQIECBAgQIAAAQIECLQiMF+N2LLMlNlnz19kSo60EPgqcPH9y9nHX95//dsLAgQIECBAgAABAgQIECBAgAABAgQIECBAgAABAgQIECBAYFiBxbC7P27vMVqLhUBWgRi1RRnNGh3pIkCAAAECBAgQIECAAAECBAgQIECAAAECBAgQIECAAIEaBeY3NzfLxSJH/xajtdRYxOrL059//F5fpuSIAAECBAgQIECAAAECBAgQIECAAAECBAgQIECAAAECBAgkFFjM5/MUyTISRoowSMQBAsrqAUhWIUCAAAECBAgQIECAAAECBAgQIECAAAECBAgQIECAAAECPQikGbHFaC09RNMuRhP4+OH97OLVy9GO50AECBAgQIAAAQIECBAgQIAAAQIECBAgQIAAAQIECBAgQKBFgRQjthgBo8WiV3ae3777uewMSD0BAgQIECBAgAABAgQIECBAgAABAgQIECBAgAABAgQIEChAIMWILUZrKaCkSOI3AkZt+YbEGwQIECBAgAABAgQIECBAgAABAgQIECBAgAABAgQIECBAoFeBxWrpdYfH7sxoLceKWT+LgFFbskRCOggQIECAAAECBAgQIECAAAECBAgQIECAAAECBAgQIECgVoH5crVMmTmjtUyp79jnChi15VxB2xMgQIAAAQIECBAgQIAAAQIECBAgQIAAAQIECBAgQIAAgd0Ciyn7tRitZXdgfFKGgFFbyoiTVBIgQIAAAQIECBAgQIAAAQIECBAgQIAAAQIECBAgQIBAmQKTjthitJYyC41UPxQwastDD38RIECAAAECBAgQIECAAAECBAgQIECAAAECBAgQIECAAIG+BCYbscVoLX2F0H6mFjBqy9QRcHwCBAgQIECAAAECBAgQIECAAAECBAgQIECAAAECBAgQqFVgfnNzs1wsFqPnz2gto5M74IACRm0ZENeuCRAgQIAAAQIECBAgQIAAAQIECBAgQIAAAQIECBAgQKBZgcV8Ph8980ZrGZ3cAQcWMGrLwMB2T4AAAQIECBAgQIAAAQIECBAgQIAAAQIECBAgQIAAAQJNCsyXq2XsnButZWxxxxtDwKgtYyg7BgECBAgQIECAAAECBAgQIECAAAECBAgQIECAAAECBAi0JDD6HERGa2mpeLWVV6O2tBVvuSVAgAABAgQIECBAgAABAgQIECBAgAABAgQIECBAgACB4QVGH7HFaC3DB9URphMwast09o5MgAABAgQIECBAgAABAgQIECBAgAABAgQIECBAgAABAvUJjDpii9Fa6itAcvRQwKgtDz38RYAAAQIECBAgQIAAAQIECBAgQIAAAQIECBAgQIAAAQIEzhGY397eLufz+Tn7OHhbo7UcTGXFggX+/OP3glMv6QQIECBAgAABAgQIECBAgAABAgQIECBAgAABAgQIECBAII/AYrlcjpIao7WMwuwgCQSU9QRBkAQCBAgQIECAAAECBAgQIECAAAECBAgQIECAAAECBAgQqEJgtBFbjNZSRXmRiQMFjNpyIJTVCBAgQIAAAQIECBAgQIAAAQIECBAgQIAAAQIECBAgQIDAIwKLMaYhMoLFIxHwUZUCV9efq8yXTBEgQIAAAQIECBAgQIAAAQIECBAgQIAAAQIECBAgQIAAgTEF5jc3N8vFYjHoMY3WMiivnScUuPj+5ezjL+8TpkySCBAgQIAAAQIECBAgQIAAAQIECBAgQIAAAQIECBAgQIBAOQKrPi3DdmoxWks5hUFK+xO4+vR5ZtSW/jztiQABAgQIECBAgAABAgQIECBAgAABAgQIECBAgAABAgTaFJgvV8uQWTday5C69p1ZwKgtmaMjbQQIECBAgAABAgQIECBAgAABAgQIECBAgAABAgQIECBQgsBiNRXRYOk0WstgtHZcgIBRWwoIkiQSIECAAAECBAgQIECAAAECBAgQIECAAAECBAgQIECAQGqBxZMnT1InUOIIlCzw9t3PJSdf2gkQIECAAAECBAgQIECAAAECBAgQIECAAAECBAgQIECAwKQCg05FZBqiSWPr4EkEPn54P7t49TJJaiSDAAECBAgQIECAAAECBAgQIECAAAECBAgQIECAAAECBAiUI7AYKqmmIRpK1n5LEzBqS2kRk14CBAgQIECAAAECBAgQIECAAAECBAgQIECAAAECBAgQyCIw2IgtRmvJEmLpyCDw5x+/Z0iGNBAgQIAAAQIECBAgQIAAAQIECBAgQIAAAQIECBAgQIAAgaIEFsvlsvcEG62ld1I7LFzg6vpz4TmQfAIECBAgQIAAAQIECBAgQIAAAQIECBAgQIAAAQIECBAgML7AIB1brq5/Gz8njkggsYDpiBIHR9IIECBAgAABAgQIECBAgAABAgQIECBAgAABAgQIECBAIK3AYrX0mrgYreXqk9EpekW1s+IFok4YtaX4MMoAAQIECBAgQIAAAQIECBAgQIAAAQIECBAgQIAAAQIECIws0G+vlpET73AEShIwaktJ0ZJWAgQIECBAgAABAgQIECBAgAABAgQIECBAgAABAgQIEMggML+5uVn2OWrLs+cvMuRLGgikFPj44f3s4tXLlGmTKAIECBAgQIAAAQIECBAgQIAAAQIECBAgQIAAAQIECBAgkE1gMZ/Pe0tTTENkIUBgt8CvpunajeMTAgQIECBAgAABAgQIECBAgAABAgQIECBAgAABAgQIECCwIbBYLpcbb53+50/vfj59Y1sSaEDg6vq3BnIpiwQIECBAgAABAgQIECBAgAABAgQIECBAgAABAgQIECBAoB+B3kZsMVpLPwGxl7oFrlYjtlxdf647k3JHgAABAgQIECBAgAABAgQIECBAgAABAgQIECBAgAABAgR6Euh1xJae0mQ3BKoWeGtko6rjK3MECBAgQIAAAQIECBAgQIAAAQIECBAgQIAAAQIECBAg0J/AfDUVUS9zET17/qK/VNkTgcoF/vzj98pzKHsECBAgQIAAAQIECBAgQIAAAQIECBAgQIAAAQIECBAgQOB8gcX5u5jNTEPUh6J9tCRgOqKWoi2vBAgQIECAAAECBAgQIECAAAECBAgQIECAAAECBAgQIHCqQC9TEV1d/3bq8W1HoEkB0xE1GXaZJkCAAAECBAgQIECAAAECBAgQIECAAAECBAgQIECAAIEjBRbz+fzITR6uHiNPXH36/PBNfxEg8KhA1BmjtjxK5EMCBAgQIECAAAECBAgQIECAAAECBAgQIECAAAECBAgQIDA7e8SWX3VqUYwInCRg1JaT2GxEgAABAgQIECBAgAABAgQIECBAgAABAgQIECBAgAABAg0JzG9ubpaLxeLkLD97/uLkbW1IoHWBP//4vXUC+SdAgAABAgQIECBAgAABAgQIECBAgAABAgQIECBAgAABAjsFzpqK6O27f+3csQ8IENgvYDqi/UbWIECAAAECBAgQIECAAAECBAgQIECAAAECBAgQIECAAIF2Bc7q2NIum5wT6EfAdET9ONoLAQIECBAgQIAAAQIECBAgQIAAAQIECBAgQIAAAQIECNQpMF+ullOzZhqiU+VsR+BewHRE9xZeESBAgAABAgQIECBAgAABAgQIECBAgAABAgQIECBAgACBdYHF+h/HvDYN0TFa1iWwW8B0RLttfEKAAAECBAgQIECAAAECBAgQIECAAAECBAgQIECAAAECbQuc3LGlbTa5J9CfgOmI+rO0JwIECBAgQIAAAQIECBAgQIAAAQIECBAgQIAAAQIECBCoS2B+e3u7nM/nR+fKNERHk9mAwE4B0xHtpPEBAQIECBAgQIAAAQIECBAgQIAAAQIECBAgQIAAAQIECDQssFgul0dn3zRER5PZgMCjAqYjepTHhwQIECBAgAABAgQIECBAgAABAgQIECBAgAABAgQIECDQqMDilNFaGrWSbQKDCZiOaDBaOyZAgAABAgQIECBAgAABAgQIECBAgAABAgQIECBAgACBggXmqxFbjh6yxTREBUdc0tMKmI4obWgkjAABAgQIECBAgAABAgQIECBAgAABAgQIECBAgAABAgQmEljc3t4edWjTEB3FZWUCBwuYjuhgKisSIECAAAECBAgQIECAAAECBAgQIECAAAECBAgQIECAQCMCi9XSSFZlk0BuAdMR5Y6P1BEgQIAAAQIECBAgQIAAAQIECBAgQIAAAQIECBAgQIDA+AJHT0VkGqLxg+SI7QiYjqidWMspAQIECBAgQIAAAQIECBAgQIAAAQIECBAgQIAAAQIECOwXWNzc3Oxf6681TEN0MJUVCZwkYDqik9hsRIAAAQIECBAgQIAAAQIECBAgQIAAAQIECBAgQIAAAQKVCiyePHlSadZki0B5AqYjKi9mUkyAAAECBAgQIECAAAECBAgQIECAAAECBAgQIECAAAECwwkcNRWRaYiGC4Q9E+gETEfUSfiXAAECBAgQIECAAAECBAgQIECAAAECBAgQIECAAAECBFoXWBwKYIqUQ6WsR+A8AXXtPD9bEyBAgAABAgQIECBAgAABAgQIECBAgAABAgQIECBAgEA9Agd3bPn10+d6ci0nBBILmI4ocXAkjQABAgQIECBAgAABAgQIECBAgAABAgQIECBAgAABAgRGFXi6XC5n8/l870Gvrn/bu44VcglcfP9ydqVDUq6gSA2BEwRMA/ctWpzfPv7y/tsPvEOgMAH1+2HATMf30MNfBAgQIECAAAECBAgQIEBgXcB9hHWN6V/HPcpty8Wr776+/be1dS5ebV//68peEHhEIEb7f/3D5SNr+CizwLbzxfq5okt7d85wvuhE/EvgXmB+c3OzXCz2D9zigukerZRXHz+8n8VIOz+9+7mUJEvnXwIRO19aikMn4PzbSTz8VwP4Qw9/lSfw9t2/fEdvhE293gDxJwECBAgQIECAAAECBAgQWBNwn3ANo+CX0cC93qAdDdnaAwoO6EhJ17FlJOhkh1k/X+j0kiw4kjO6wNNDOrVEw4uFAAECBAhkEogLeT/4MkVEWggQIECAAAECBAgQIECAAAECBAgQ2CcQI+0/GG3/3f0Wm43Y7n/e23hFoEWBB+eLtXNFWHTnC53jWiwZbeb5aZvZlmsCuQXerkbZuTDNSu4gSd3kAurJ5CGQgDMFjKh2JqDNCRAgQIAAAQIECBAgQIAAAQKVCWxrxO4aryOrP/7j75XlWHYIEDhV4Ov54q8OL925QkeXU0Vtl13goKmIDG+XPYzb0xfT2cRizr07huL+ZzqG4kI2WIKdg3fTmrZrt41PcguYhmh7fHz3bXfxLgECBAgQIECAAAECBAgQCAH3CZWDTuCf//iPu5c6unQi9f9rKqL6Y9x3DnV06VvU/qYWmN/e3i7n8/nOdDhR7qRJ/0E0Dolf+jDtTKAG+500zX3gB+vukMeF2UejG+0G8klaAfV6e2h0bNnu4l0CBAgQIECAAAECBAgQIBAC7icoB7sEdHTZJVPP+9r76onlVDmJ84TRXKbSd9w+BBbL5fLR/fy6muvPQoDA+ALq3vjmjliewN1Qe9e+p8qLXNspjtFaLAQIECBAgAABAgQIECBAgAABAgT6Eogpr+O/6Pz0+s3lzP2nvmTth0A9AnGOiFk+4jzhHFFPXFvKyeKx0VoC4ur6t5Y85JVAGgF1L00oJCS5gE5gyQMkeQQIECBAgAABAgQIECBAgAABAgQIjCYQDwN2nVyi8VoD9mj0DkSgGAHniGJCJaFrAvObm5vlYrFYe+vhS0PbPfQo6S9TEZUUre1pNSXDdpfW3nUefjzipiN63Men+QTU6d0x8b2328YnBAgQIECAAAECBAgQIEDAPQVl4BwB0xWdozf9tqYimj4GtafAVEW1R7j8/K36tOzu1BInSQsBAtMJqIPT2TtyOQKmIyonVlI684SMQkCAAAECBAgQIECAAAECBAgQIDCJQIzQYJSGSegdlEARAnF+iKmKYpQn7ZNFhKy5RO7u1bKiML1D+eXh4tXL8jPRcA7err5ELAQI7BdQV/YbWSOHQPw4sBAgQIAAAQIECBAgQIAAAQIECBCYUmCzk8uUaXFsAgRyCax3cMmVMqlpXWCxXC53Glxd/7bzMx/kFoipOSwECBBoRcCoLa1Euux8ms+47PhJPQECBAgQIECAAAECBAgQIECgRoFoxI5prty7qjG68kTgdAHnhtPtbDmMwGI+n+/cczQUWggQmE5AHZzO3pHLEzBqS3kxay3FOgy3FnH5JUCAAAECBAgQIECAAAECBAiUI7DeiK2TSzlxk1ICQwusnxuGPpb9E3hMYOeILebOeozNZwTGE1AXx7N2pLIFdAQrO361pz7O5cpo7VGWPwIECBAgQIAAAQIECBAgQIBA+QLRiK0hu/w4ygGBvgWcF/oWtb9jBZ7GVETbRm351Wgtx1pan8AgAlEXL16ZWmoQ3EJ2esrUYq02oEfnAfWlkILdWDJbva465fzVWNGQXQIECBAgQIAAAQIECBAgcLDAP//xHwet240a2+o9woOQrHSQQNfJJcrej//4+0HbWGk4gUPOAer/cP72/EUgzgtRzn5cnRe0xygVYwrMb29vl9s6trx+c+nJ4jEj0fOxoiHp4y/v7/Yqlj3jjry79ViOfGiHK1wgOnlEY3pcZLSyqC+tRLq8fMY8xS0sUQf9oGkh0vJIgAABAgQIECBAgAABAqUIdFPKtHSPsJTYlJhOHVzKipr6X1a8Skytc0KJUSs3zfPViC3LbclvpQFmW95reG/9RKJjS/kR/fOP38vPhBxMKhAXsK38eP344b1ewpOWNgffFGih/q1fd2zm398ECBAgQIAAAQIECBAgQIDA9AIt3J+YXrmdFLgXVFaso/7HCBtGcSorbqWk1vmglEiVn87FtizEU/4WAgTyCKiTeWJRakpimMjoIBWjKdS+vG1ohJraY1lL/mrvVBadyQxFW0tplQ8CBAgQIECAAAECBAgQqFWguz8YDZAWAucKxP2uL50ltCeeaznG9lH/Y5YH9X8M7faOEeeDGDAjzgkWAkMKbO3YElNXWAgQIECgPoG4eK29c4te5/WV25JzVPPFfJxL7jrMvaq/w1zJZVDaCRAgQIAAAQIECBAgQIDAukA0cGvcXhfx+lSBaMx+/cOlxuxTASfYTv2fAL2hQ3Yd3hrKsqyOLLC1Y8vIaXA4AgT2CBiBYg+Qj48SaKJzi5HHjioTViZwikCcSywECBAgQIAAAQIECBAgQIBAeQIat8uLWeYUG60hc3S+TZv6/62Jd/oT6M4HZqLoz9Se7gWeLpfL2Xw+v39n9SrmWbMQIECAQL0CP66GHL36dFltBqMz2IVG92rjW1LG4kK+xiWmH7IQIECAAAECBAgQIECAAAEC5QpE43Ystdy76Eapvnj13aBB2Ww/M3r0PXeUpfCJGHTl6/5TrzIJdPGppf53tt15oPt76n9bPj/EaE5xD/nCaN9TF8Oqjr+9Y4upiKoKclxEtHzyrCGY4ldDFHPlIS4m4iKv1rIV+YoewS6acpW71lJT6zREMVyxutVaaZZfAgQIECBAgAABAgQIEKhRIBq3oyNCyfcI4x5nPMQ31r2KH2dfOgTtKg/dKAW//tXOVrrvrnzuev/uvuxfee86T+xa1/vTCnTxKb1zy9jngFOj1uK5ITq3xL3krqydamc7Ap3A/Pb2drk+YktUrCholrIF1nvBRcNa6V9MZUejn9Svx7SfPdpL6wK1n+/jgtZUKa2X8mnz/+z5i2kTMNDR//zj94H2bLcECBAgQIAAAQIECBAgQIDA2AKl3iMspTF7PZ7dQ1CtdHYpMUbr8Wrldan3MGsqX3Ee7jrD1dieq3NLK2eT4fP5dL1TSxyuqzjDH9oRCBAgQGBKgRZGbZnS17HbFuhuVNSmED9CLAQIECBAgAABAgQIECBAgEA9AnGPMH7vl9SYWmojaTdqwfqoLzU3aH8ZvcWIDdnPFvFQdWkDHpR6DthVFu7aav6asifOE915oZZOcN33S3cO3OXgfQL7BBarEVv2reNzAgQSCLxdzU9pIUDgOIFaOxccp2BtAgQIECBAgAABAgQIECBAgAABArsF/rYa+biUJRrha2ocjQbtyE/8F6PkRoN9/FfTEo3ar99c3jXW15SvWvISZbCkpbZOLdvsu/NCjEjfnRe2rVfSe3Ee0F5TUsRypnWxWh6kLHp/WQgQIECgDYGYf7bmxXdazdHNnbeuF3ruVB6fupJudB2fO1sQIECAAAECBAgQIECAAIE2Be5GCyigc0t0aimtEf7YElVrJ5cYvSVGBdGwfWyJGGf9mNanhKW2jm2HmtfS8U3nlkMjbr1dAg97tazWii8XS10CGqHqiKe6WUcc5WJcgbvhLlfzU1oIjClQ8w/02m8ejVlOHIsAAQIECBAgQIAAAQIECGQSyP4AXIzS0Np9iRo7uWjYzlTr79OSvf5HSls8B9xH6MurzXPC5ucl/O0cUEKU8qZxcXNz8zV1MWeXpQ6B1i7w6oja/lyoo/uNrEFgU8A0Xpsi/h5aoNbRWoZ2s38CBAgQIECAAAECBAgQIECAwDaBFqYe2Zbv9fc2G7TDpNQl7p2ZmihX9LK3KToHfFte1kdx+fbT3O/EOUB7Z+4YZU3d4smTJ1/T9qvRWr5aeEGAAAECdQgYtaWOOJaSi5pHayklBtJJgAABAgQIECBAgAABAgQI1CUQDbiWe4Guk0s09pfawSXu2Zqa6D6mXj0u4Byw26fUDi5R/3Vu2R1Xn2wXeLr9be8SIJBRIDqfZe85m9FNmgioO8oAAQIECBAgQIAAAQIECBAgQIAAgd0CWe87l9pxY7d0f59sNvaXOIpwl+bNvPSnZE+lCzgHHBbBrg51deqwraZdK0bbv/jl/bSJcPSiBBbrqb26/m39T68JEEgmoI4mC4jkFCNQ0sVcMagSulVAWdvK4k0CBAgQIECAAAECBAgQIECAwEkCXWPtSRs3slEYxX8fP7wvcgSXuJ9mFORGCuuR2bz4/uVd2T5ys2ZXj/PAn3/8Xsx54G7kpjeXzcZLxo8XeNixxVRExwvaggABAgSKEDCsXRFhKjqRfoAXHT6JJ0CAAAECBAgQIECAAAECBJIJGKnhuIDEqDulNWx3OYzOLa81cHcc/v1L4OLVdyxOEIjzQCnnz+jc4r76CUFudJPFcrlsNOvtZDvrEILtRKC/nMYJ3kKAwGkCMaydhcCQAkZrGVLXvgkQIECAAAECBAgQIECAAIHWBP62Gq3BcppAiR1cov3j2fMXMw8onhbzGreKcmw5TaCkzi1xX129Py3OrW31tWOLAlNP6GNoLku9AupqvbGVs2EF4oeR+jOscct716u85ejLOwECBAgQIECAAAECBAgQIDCEgId2z1ctsYPL6x8u3cc9P/T2QOBuBKdSRm5R7xXYQwQWq+WQ9axDgAABAgSKFzBqS/EhlAECBAgQIECAAAECBAgQIECAAAECBI4UKGn0hshaNHJ7kOzIIFudwBaBkuq+9pstAfTWA4GvvVp+NcXJAxh/EMgqoK5mjYx0lSBgOq8SolReGmMkINMQlRc3KSZAgAABAgQIECBAgAABAgQItCRQ2ugtcb9N55aWSujDvJqd4qHHOX+V0rnFqPvnRLmNbRe3t7dt5FQuCVQicHX9WyU5kQ0C0wiYjmga95qPqsNhzdGVNwIECBAgQIAAAQIECBAgQIBAXQKlNHKHus4tdZU9uZlOoJR6b9SW6cpICUdezOfzu3RqLC8hXKenUc/G0+1sSYBAXQIujOqKZ4bcGK0lQxSkgQABAgQIECBAgAABAgQIECBA4FCBkkZv0bnl0Khaj8DjAlHvs7cXx6gtRmp6PI4tf7pYLpd3+Tc9Qz3F4OLVd/VkRk4IECDQs4Dh7HoGbXx3LrIbLwCyT4AAAQIECBAgQIAAAQIECBAoWKCUURx0bim4kEl6KoEf//EfqdKzLTEeJN2m4r0Q+DpiCw4CBMoQ0AmtjDhJZW4Bo7bkjk9JqTPiXUnRklYCBAgQIECAAAECBAgQIECAAIFNgejc8vHD+8230/2tc0u6kEhQgQIXr17O/llA55bXby4L1JXkoQXuRmy5uv489HHsnwCBHgXU2R4x7apJAR3Emgx775mO0VqUpd5Z7ZAAAQIECBAgQIAAAQIECBAgQGBkgWjs/vOP39M3eOvcMnLBcLgqBUoYqcnI+1UWvbMztVgtZ+/EDggQIECAwKZA9l6/OohtRszfBAgQIECAAAECBAgQIECAAAECBAi0LFBCg3d0bnFvt+VSKu99CERdv/j+ZR+7GmwfRt4fjLbYHd/1avn1kxFbio2ghBMgQCCpwN9WF0WZL4xcFCUtOAUly1yfBQVLUgkQIECAAAECBAgQIECAAAECBA4SKKFzy+sfLnVuOSiaViKwW+DH5FMSGbVld+xa/eRuKqJWM99Svi9efddSdqvPq85o1Ye4mgxmvjByUVRNMZskIzENkYUAAQIECBAgQIAAAQIECBAgQIBAjQI6t9QYVXki8FAgpiDL/HBypNYDyg9j1vpfi/l83rpBdfmPURIsdQtcXf9WdwblrhqBuDDKvLgoyhyd3GkzWkvu+EgdAQIECBAgQIAAAQIECBAgQIDAeQLRueXjh/fn7WTgrd3fHRjY7qsXyPxwcuDHA8oWAp3A3YgtGsk7Dv8SIECAQN8C/0w8nJ1RW/qOdhv7G2u0luy95duItlwSIECAAAECBAgQIECAAAECBNoViAcXM3duifu7r99cthsgOSdwpkAJo7ZcXevccmaYq9ncVETVhFJGCBAgkFMg+yhSpvbKWW5aT1XmDmGtx0b+CRAgQIAAAQIECBAgQIAAAQItCZTQuWWsB9Fairu8tiOQfdQWIzO1Uxb35fRuKiLD+Oxj8jmBXALqbK54SM3jAtl7/Bq17PH4+fRbAdMQfWviHQIECBAgQIAAAQIECBAgQIAAgXoFsnduift1OrfUW/7kbFiB9G04q5GZjNoybBkoZe93HVtKSax0ni6QfcSE03NmSwIEShDI3OPXdEQllKA8aRzrB3LMYWwhQIAAAQIECBAgQIAAAQIECBAgkEWghM4tGr+zlBbpKE0gcxtOWBp5v7QSNUx6F8Ps1l4JEBhawAXa0ML236dA9h6/hrLrM9p172uM0VpMQ1R3GZI7AgQIECBAgAABAgQIECBAgECpAtk7t7z+4dLIDqUWLumeVCB7G46R9yctHmkOvvi//t//mSYxEtKPQJx8LAQIEDhEYMxerpl7/Bq15ZDSYh2jtSgDBAgQIECAAAECBAgQIECAAAECrQtEG1TmB7M8xNh6CZX/UwW04ZwqZ7uxBBbL2XKsYzkOAQIECDQskL3TnR88DRfORFnPfFMgEZOkECBAgAABAgQIECBAgAABAgQITCgQ02hnvY8VDzGO9YDahCFwaAK9C2RvwxnzQe3ece2wF4GFfi29ONoJAQIECBwgcPF93hGl4gePhcBjAmNMQxQ3BSwECBAgQIAAAQIECBAgQIAAAQIEsgvEfays93vjPt7Vtfu92cuQ9OUTyFqnQ8p0RPnKy9gpWlz/3/9j7GM6HgECBAg0KpB5KLsIiR87jRbMA7I9xlMeWZ9yOYDHKgQIECBAgAABAgQIECBAgAABAg0KfPzlfdrOLUbobrBAyvLZAtnbcM7OoB0ULbCYz+dFZ0DiDxPIPnzUYbmw1rqAIbfWNbwuRSDORZl7/PqxU0pJGj+dY4zWMn6uHJEAAQIECBAgQIAAAQIECBAgQIDAeQJZG8JjhO7Xby7Py5ytCRBIIxB12sPJacIxSUJ0bJmEfbiDZm4wHi7X9kyAQEkCWX/ohKELo5JK0nhpHWO0lsiNaYjGi6kjESBAgAABAgQIECBAgAABAgQI9CMQDzN+/PC+n531vJe43zvWvb2ek253BCYRyP5w8iQoDppGYHF7u0yTGAkhQIAAgfoFso8gZdSW+stgxhyahihjVKSJAAECBAgQIECAAAECBAgQIEDgEIG455v1/laMxGyUh0OiaB0C+QXMZpE/RkOmcPHb//ifQ+7fvgkQGEjg6vq3gfZstwSGF8g8ulT04rcQWBcYYxoio7Wsi3tNgAABAgQIECBAgAABAgQIECBQmkDc38p639fDjKWVJumdUiD1qPvaRqcsGpMfezGbGbFl8ihIAAECBBoTyHxhFKHQg7+xAvlIdscYqjTr0yyPsPiIAAECBAgQIECAAAECBAgQIECAwDcCWe/7moL+m1B5g0CRAh5MLjJsvSV6sVzq2NKbZvIdZe0pm5xN8ggQGEAg+zyNevAPEPRCdznGaC2F0kg2AQIECBAgQIAAAQIECBAgQIAAgQcCmackev3D5YO0+oMAge0C2dtvPJi8PW4tvLuYz+ct5LOZPF68+q6ZvMooAQJlC2TtvR+qevCXXbb6Sv0Yo7VEWk1D1FfE7IcAAQIECBAgQIAAAQIECBAgQGBqgcxTEr1+czk1j+MTIECAwIkCq6mIdGw50c5mBAgQIHCGQPZev0ZtOSO4lWx6NcJ8naYhqqSwyAYBAgQIECBAgAABAgQIECBAgMBXgawPNXqg8WuIvCDwqICBFB7l8eFEAquOLRYCBAgQIDCNQNYfOKFhrsZpykSWo8ZwhmOUAaO1ZIm4dBAgQIAAAQIECBAgQIAAAQIECPQlkHlKIg80HBUpzwAAQABJREFU9hVl+yEwjcCvnz5Pc2BHnVxgcf3//H+TJ0ICCBAgQKBNgfiBk3kxV2Pm6AybtjEujo3WMmwM7Z0AAQIECBAgQIAAAQIECBAgQGA6gaxTEsXDbGNNQT6dviMTOE/gb9/nbrs5L3e2LlVgNWLLstS0SzeBpgXGGEmgaWCZH03gIvEFkt77oxWDdAf66d3Pg6fJj4PBiR2AAAECBAgQIECAAAECBAgQIEBgQoGsI3bHvT8PNU5YMByaAAECJwiYiugEtFI3MR9aqZGTbgJ1C2T9cRPq0YHMD5y6y9+23I3xxEaM1pJ9xKJtNt4jQIAAAQIECBAgQIAAAQIECBAgcKiAKYkOlbIeAQKHClxd/3boqtarTGDVsWVeWZZkhwABAgRKEogfN0ZtKSli9ad1jNFa6leUQwIECBAgQIAAAQIECBAgQIAAAQKzWUxJlHHxUGPGqEgTAQIEdgsYsWW3TZGfmNagyLBJNIHmBYza0nwRSAMwxmgtkdmsP+jTBEJCCBAgQIAAAQIECBAgQIAAAQIEqhH4+OF9yryYij5lWCQqgYDRxhMEQRK+EVh1bFl+86Y3CBAgQIDAmALZL5J+XU1JZCHQl0BMQ2QhQIAAAQIECBAgQIAAAQIECBAg0IpA1lG7jdrSSgmUTwIEahAwFVENUZQHAgQIVCCQeToiczZWUMAOzMIY0xAZreXAYFiNAAECBAgQIECAAAECBAgQIECgGoGso3YbtaWaIiYjjQhEhzRLmwJGbGko7qYpaijYskqgQIGsP2yCUs/9AgvUCUkeYxoio7WcEBibECBAgAABAgQIECBAgAABAgQIFC9g1JbiQygDjQlkfRg5a7oaKx6TZNeILZOwOygBAgQIbApk/WHTpVPP/U6i3n/HGK2lXj05I0CAAAECBAgQIECAAAECBAgQIPC4QNaHG937fTxuPiVAgEAGASO2ZIhCj2mIhmELAQIEShXI+sMmPI3aUmqpOizdY4zWEikxDdFh8bAWAQIECBAgQIAAAQIECBAgQIBAfQJZH25077e+siZH5wuY8ud8Q3voV8CILf162hsBAgQInCGQ9YdNlyU99zsJ/54iYBqiU9RsQ4AAAQIECBAgQIAAAQIECBAgUJNA1ocb3futqZTJS80CF6++qzl78vaIwNNHPvMRAQIECBAYXSAuSrL2BM6artGDVOEBx5iGyGgtFRYcWTpa4Or684Ntfv10//fV9W8PPos/Ns+7m3Pobvsh+7fv70cwNJrhN6TeIJBOoDsvHHs+6DLy2HmhOx84F3Ra/q1ZYFtdivwe8v0a623WpXgvlu67Vn364uH/BE4V6Opot/2x33ubdbSrm93+4t+unsZr332hYCFAIKtA93Dj5m/+qdMb6YnztXPo1JFwfAIECGwX0LFlu4t3CRAgQGAigWj8H6OTwanZ8+PmVLm8240xDZHRWvLGX8qGEehu3McN+65BrY8bVpv72Pz7LjfvHuYpGgG6G/9xs98Nqoc+/iIwlsAk5wXng7HC6zgjCoxVl7osff2u3VKfYp3uO1Yn7k7Mv60LjFVHv9bNdfAt9bSro66D16G8JkAgg0CM2nL16TJDUh6kIUZtufjl/YP3/EGgRYHumqbFvMtzXgEdW/LGpveUuYnfO6kdEiAwkEA0Qm69STPQ8Y7ZrR83x2iVse4YHanWn5wrQ0UqCRwu0P3Q7YbszXb+jvR8TdPazX4dXg6PsTUJnCIQ54Zs54Vt54P1c4GG+VMibZshBaIe9d1JtK/0dt+t3b/dNbU61Zew/ZQg4Dq4hChJIwECWQWM2pI1MtJFgACBvAJPX/1v/2n2X//b/5k3hVJGgMBWgbhZZCFQq0DWHvvhfdcgYkjKaoreGKO1fLm575xdTaGRkbthebM1Vp8SlscauD3ReoqobVoXWG/c6xq6SzBZPxdEw3w3yppOLiVEr840dp3CSqpH65HYrFPxmXq1LuR1yQJd/Yw8lFpHu7R/Tf9fHb+7Tmmug0suodJOoDyBrPeAo2OxB8XLK09STIBA/QJPl/XnsZkc6ujQTKhllEBvAt30EL3tsKcdZe2x32XPqC2dhH8PEeiGfj5kXesQyCrQ3cT/egM8a0LPTNfXxri/bvBHQ5yb+2ei2rxqge7cEJms5fzQjToR/3aNfDq5VF2MJ89c1KNY4jdGLfVoE3VbvYp11K1NKX9nFOi+62qtn5256+BOwr8ECIwpkPUecFy7uE4ZsyQ4VkaB6OCVdTE6etbIDJ+up/Phj+EIBAgQIEDgaIGsPfYjI7Xf0Do6WAVv0N1kHzILfggPqWvfQwq0chP/McO7c4ROLo8R+WxNIOrMsTd+Suw41dK5oWvki3OBESfWCruXZwt09Sh21Npvi65eRd7X61b8bbkX8Bvi3mKKV10dba1+rlu7Dl7X8JoAgRYF4rvAqC0tRl6eSxBQN0uI0jBpfDrMbu2VAAECBAicJ5D94sSPm/Pim2HrMaYh6hrBMuRXGggcIuAm/m6lzZv7saZGp91eLX1yTr25uH45u/jlfRFc5+SziAzuSeTdOWC1TtcQr/7vAfPxVoHW69E2lK5ubfus5fecY8aPvvq529x18G4bnxAgcL5A1ocbjdh9fmztgQABAn0LLGYzY7b0jWp/BAgQINCPQOYp1uLHjaVsgTFuorshXXYZaSX1cRP/9ZvL2bPnL2avf7hs7snxU+Ic54/4L8zG6CR3ShptM45A1J3a6013jqg9n8eUGPX/GC3rhkB8V7RwvhBtAqUJdN9xroMPj5zr4MOtrEmAwGEC3XREh6093lp3o8z9NWXkeEd1JAIE9gl4kHSfUN2fL/RrqTvAm7nL3Ei8mVZ/Py5w8eq7x1fwKYEKBKLHftbFj5uskTksXWM0RJ97ke08f1gsrXW6QHcjX2P16Yax5XoDd5ha2hCI75FoBDt3ioLM1xNdHp0jdpfp9fq/ey2ftCrQfc/GuSLKyrnni1Yd5ZvAEAJd/fQdd57u+veg6+DzLG1NoHWBrPeAPdjYeslsO/9X17+1DSD3KQWe/pf//L/M/uv/8d9TJk6ijhPQAHacl7UJEMgv0PXYz3oT2JCU+cvQrhS6MN8l4/0WBOKmc5y/sp5bS41B3NifvZvNuk5tRmwqNZKPp7uF+nPX2LcavclyuMBd/f9rdXX/cLda12zhPFFr7OSrfgH1c5gYuw4extVeCbQkkH1K+pZiIa8EOoGs9w3/9v3LLon+bVDg6Wy2bDDbskyAAAECpQhknWc1/LJe3JUS26nSGTczx4idhq2pIuy4uwTcyN8l0+/76w3csWfngn59p9rbkPUnS0fZIfM4VdzGPO563Vfvx5TPcyx1KE8spITApoD6uSkyzN/r34VxBN+HwzjbK4FaBWK2gTHu1x3jF+mJ7xAdb45Rs24NAlHusy7qY9bIjJOuxXKpY8s41I5CgAABAqcIdKO2nLLtGNtkvsgbI/8lHuPX1Y/SoZduxIahjzP2/pX3scX7OV7E7fWby5mh1vvxPHQvcWM//ospKMaY/uzQdFnveIGI35D1J8PN26HzeLx6uVtEvY9zru/McmN4bMp9zx4rZn0C4wmon+NZrx/JdfC6htcECBwqYDqiQ6WsR2B4gTHun5+Si1rvuZ9i0eo2i1f/+39uNe/yTYAAAQKFCGSeas1cq4UUorVkxk22oRdPpg0tbP+HCERDdXSqGLJB/pB0WGemg0uhhaCrQ2N8b0zVCSKOG+eJMfJYaDE4KdnRWSnOvVGGLHUL6BRWd3zlrlyB7jvcdfD0MYxrDB29p4+DFBAoQSDrw40ZHkQoIX7SWJfA1fVvdWVIbqoRWMzn82oyIyMEWhIwj1xL0ZbXzJ0EuiEpRakMgTEamPQcL6Ms1JzK7slUDdX5ouzGfr6YbEtRC3Woy2M0+FmGE4g6H6O3WOoT6OqQ79r6YitHZQuom3nj5zo4b2ykjACB/QLx/WIh0JJA1g5d2kVbKoXb87q4vb3d/ol3qxTIPOpBleAyRYBAbwIxz2rWxagtWSPzbbrG6G3uAvtbd++MJ2DKofGszzlS3Ngfo6PdOWlscduuMWyKp7vHvJa4y+eqQ0vWG1W1lb1wjifV3QyvI7JTnifqEJQLAsMJuA4ezrbPPbsO7lPTvgjUJ2A6ovpiKkflCWT97RrtQzGyk6VtgcVqaVugotxrSKsomAdkxQn8ACSrVCWQ9YdNIBu1pYyiFo3IQzfiucAuoyzUmMr40XnXcLpqQLWUIeCp1Vxxiu+IKTq0dApDfz91x+ny2f3t3/EE7sqXJz3HAx/gSF39Gau+DpAFuyRQpYDr4PLC6jq4vJhJMYGxBLK2ebj+G6sEOE4GgV+T3ls0cEOG0jF9Ghb/5X/9T9OnQgoIECBAgMAegazzrHbJznrB16XPv+MIuMAex9lR7gXWnxy/f9erkgQ8tTpttKKhOjqFRRymXoZ+KiqeZM+Qz6mdpzx+dG6JMmcpS6D7rlV/yoqb1NYv0NXNOLdayhRwHVxm3KSawNACWUftHvr32tCu9k/gUIExRjw/NC3r6/34j7+v/+l1owKLm5ubRrMu2wQIECBQmkDqUVuufyuNs7n0jtEY4QK7uWI1aYY9OT4pf68Hj/NTdK7Q4N0r66M76xrDxvhueDQhax8O1Um2y6unDNewJ3ypEW9C/BMOfVd/Vo3m6s8JeDYhMKCA6+ABcUfetevgkcEdjkABAlnv/445fWwBYZLEigUy/vb55z/+o2JxWTtGYPHkyZNZ1h6Qx2TEuocJmK7oMCdrESCQUyDrcJShFRd8eu7nLDeRqjEai11g541/bSnrGqkzNcjXZjxVfroGb98nw0Wgqz9TTju0K3dDPBWl4W+X9rTvd3V92lQ4+j6Brv7sW8/nBAiMJ9B9j7sOHs98rCP5bhxL2nEI5BfIfP83v54UEjhPYIx76KekUNv2KWp1brOoM1tyRaBuAZ3R6o6v3D0ukLn867n/eOym/HSMG59Ga5kywu0cu2tky/j0RDtRGDancb4yXckwxtnrT9/1OvI7xvffMNGqf68a8HLH2NRdueMjdW0KZP8ebzMq/eY6vhuNYtivqb0RKFUg4/1fDzWWWpqk+xiBjPcQ4mFSHd6OiWLd6+rYUlF8VeyKgrknKxevvtuzho8J1CuQdTjKEPcDJ2e5ixugQy9Gaxla2P5DQCNbW+VAo3d/8Y7vgWgkyXiDZjOXfY3Wo1PLpmzOv6NM9hXznDksL1XdaBB9dzQrT6LOFMc1+92N8e9fGr26sBC7Di4sYGcm13XwmYA2J1CBgPaPCoIoC8UJjHEPvTgUCU4n8DRSFF8SfrSni40EESBAgMAWgejEF732s35vxagtF7+835JybxEgQOB0gbiZn/W8d3quvmy5+STW5g2sGG7019V0b9uWbuqWWm2+NHr/Nvvoe2Vb+Pe+Fw3U8b1cUvmIsn7uAwuldmrZPBd0AS4pfl2aj/k3Rmj6+OH92XE/5pjW3S5Qat3Znpvt767Xs83v2+47tduy1roXoyz+OPt7l827f7sOZuvXG+FRq8GDzBfwh+tg18EFFFNJJECgZ4G7aUfe9bzTHnbnvm8PiHZB4EgBo6QfCVb56k+Xy+Us65dE5fayR4AAAQInCsSoLVefLk/cetjN3Pwc1veUvY/xhL4L7FMiY5tDBO6eHF81etawdI1p0ZDWzY17aAP+rvW2NUzV1igV3ysx2oiG78NrQYkdWrrcRUPqZrnuPjvk36wN81H/1+t+l5dddbv7fPPfzcbnWhqeo3PLn3/8vpldf48okLXunEIQ9W19lMtD69m2c0/Uue57tYb6tqvDaGfU/Rvumx6b559YpwaTyEfWJczj/FjD4jr4tCjGdXB0bIpz2nr9PG1vtiJAoCSBrHXefd+SSpG0HiOQ9feQUdKPiWIb6951bGkjq3JJoB6BrjGonhzJCYHjBOLHTdwYyvpjIm7AZf0Bdpx0+WvHRfnQiwvsoYXb3X/pN/O7G/hj3oi++35YfUd0S9co1Z0Lxujo1h2773+jYSfONzrSPS6b9WbM46m+//Sca5sseV+v+5GzPq+Jun11/1ZVx1cNd0Znuq8LY77KUndOzfN6nevqxqn72twu9tfts5b6FufZUzqMdg7dv2HVmXRuOr90Euf/6zr4eMP1+hpbd+Wz9OvgqLPxYJNO3seXCVsQKF0g671f931LL1nSX4qAe2ClRGrcdM5XI7YsS/+xMC5Z3qMd+oRX/IC3lC3gx1zZ8cuU+iGH9B26nGa+AR0/vDRM5CjpY3znHfr9e6xIxjI+dL0+1qjm9TPG/xDvOP91T4mvN/wcsu2Y65R8g98P+8dLyhjn/cdTcP6np5xrpz5ndHU/Q72P+xsxwkSJHdnU7/Prz7F7mLruHJvebv2uzsXfU9a7kutb2E1R58Islm4knHi9beSXoX5jxPGyL+rlsBFyHTysbw17z3Y93fL5sIbydE4ehrxvfU66ar7vm63+12x9ThkcYttssY88Ov8PEeny9/k0sjDlj+DyCeWAwPgC6uz45o6YTyDzNHp3TxQZtWXyQtPdsBsyIXEz3EKgb4HSbubHjYZuipFSrlG6UU/i39K8u8b6Lg99lz/7m17g2HnbpyzDXeN6profaYn/Sq3fcY2byXP6GjFcCqasO6fmaoqOGI+lteT6Fvma4ju1q9/dv5GObmSNeB1L1/nly19t/b+0euk6eNzyOUWdHTeHjkaAwLpAPDSTdSr69XR6TaB0gbj+yra4554tInnSs7i9vc2TGik5WSB+SFkIECDQksDdTdTE575olLIQIEDgWIF4Iqm7YXvstmOvH9efMbJEjFAVDcjrDTRjp+Wc40Xa4ymQ+NFcyg/nKCMZbzycEwfbniYwRQNgV/ej3kT9z1z31+v3acLjb+UachzzKerOOTmL76eoc1Gmsy7r9a2U79OwzPidmvm8OmT5cx08pO72fZdYbzPW2e263iVA4FyBrN+H50wfe66J7Qn0LRAdqjPeh8z8u6fvGNjfcQKL+Xx+t4WOEcfBWZvAVALq6lTyjptRoJvuImPa/MiZPipDX5TH+dhF9vRxrikFWYfZ3TTuGrWzN2hvpnvf31Gf12/u71t/6s/jHBdlxlKfwKHXEGM3zJdc90uq2xF/HdeGrddj151zchP1LnuHls38dd+nOoxuyvj7MQHXwY/pDP9ZV2+7zt7DH/G8I7gOPs/P1gRKEohroYxLy6OrZYyHNJ0ukPHBipI6yZ8ub8tTBRbL5fLUbW1HgMAEAjHUv4UAgS8C0XM/6w+cSKEfOdOV1DEahJyPp4tvjUcu4WZ+yY3ax5aZuLkfo9Fk/zEdDeA6txwb3TLWP+QaYugOnJ1UTXW/q9uZrx/DPWJ7SBnoYuTfwwVK6dSyXu8Oz12uNbuG8uzfpZ2aetdJjP+v6+DxzR87Yvddmb3uug5+LIo+I0CAAAEC+wXit9GhD9bs31s/a8T1R1yLWAjsErgfsUVj+S4j7xMgQIBAYoHMo7Zk7PGcOJS9Jm2Mxj4X2b2GrOmdZb+Zv964lnUo4CEKUOQ16nn8qM58Y99N/SGiP/0+911DjNWhKcp+baMzRd2OPGWu11EC95WB6UtpeSkooVNLjd+58V1ayigQr3+41Kls5KrtOnhk8AMP5zr4QCirESAwuEDWh8pcqw8eegcYWCDrbyP32wcOfAW7/zpiy9+SDulVgXG6LGR/Oi0dmAQRIJBaIHMjazQ2etp2/OITF+ZDL9kbw4bOv/33J5Dx6Yj13NXYqL2ev0Nex4/qroPLIetPsY7OLVOoT3fMMc4bXeN6zTeVSqjXriP7q2dhOUbH53NSXPt3bvY618VOQ1UnMfy/Y3yfnZOL2uvkITZRb7PX3bgOHuMewCFe1iFAoH8B7Zb9m9ojgRDI+NsoRk62ENgnsFgt+9bxeQECWXuuFkBXXBJdzBUXstQJjhsANSyZO+y5MVpDCfs2D3Fzz0LgXIG4AZvxh2Tkq4VG7WPjF/U+njjP+p3jpv6xEc29fsRzW6eGMc4bcTOptlFadkU7e2Od68hdkTv+/RiJI/MSDegtXF9236WR36xLnH/HGhUrq8EY6Rrj++zUfLgO/lauq7tZr4PjN5XOLd/GzTsECAwnUMs99eGE7DmzQMbvzPh9kPkB5szxbC1tX3u1KDCthV5+SxVQV0uNnHQPKZB5OiI/dIaM/PZ9D91RIPON+O0i3s0okPlmfpTxVhq1TykbmacwcVP/lIiWs83QI050DXmt/d7I3LllVwenckptjpRmvHHbyXT1roVOLV2e49/M9S7SF3Uvc7mJNJa8uA4uN3qug8uNnZQTKFUg82+TbQ8ilOos3e0IZLwOi/uQrf0eaqfE9Z/Tr1MRxa6z9rruP9v2SIAAAQI1CcSPnMzfYX7ojFfa3IAez9qRThfI+CMyctNq49opkYwf3DGqRcbvntY7t0RM9v13Ssyn2GZztI4hR5y4q/+/rMr06pqqxSVzI/tmOWgxPufkOet3buRJvfv7LHOH8da/T8+pd49tm7VO3tXH1bWdRpXHovflM9fB+42sQYBAvwJxjs64/FrJSOgZbaVpGIGM12E6tQwT65r3+nQ+n9ecP3kjUJVA1ou4qpBlpliBGLXl6tNlyvRHg8TFqrHIMrzA0KO1RA7c7Bw+jjUfIeOPyPDuGtdqtu87b3edKlfn9piuINvoXHEujOkrW+ykEE8SH7NEnYxljO+PY9K1uW6Xzs33+/jbjaQvit33e7ay0I3a0mJ9Prd8Dz3K0TnpU+9y17sutnE+6M4N3Xv+PV3AdfDpdtm2dB2cLSLSQ4DAFAJX17/NfpyZqnwKe8c8XiDjbyO/iY6Poy1ms4cjtrz6jgkBAokFLtTRxNGRtKkFMt/s7xokpjaq/fhDNvp1dnHBbSFwqkDGH5GRlyjXx3YGONWgxu2yDskeo3sYMWx/iYsGy/jvzz9+TzdyQFw/PHv+4u6/oTpbuJH0sIxEWcj4MIFRWx7G6dC/srrFiF86S9xHMSzCJOsSHVgt5wu4Dj7fMOMeXAdnjIo0EahPIPMU9PVpy1GNAnHPfMgRYE8xi9/dfhOdImebBx1b4qk+S/0COkfUH2M5JNCqQOZOB1lvrNdUVuJJiaEXF9xDC9e9/2w/IkNbo3Y/ZS7ODRm/gzKWuX7Eh9lL17iasWPDEDlW/7erZrxxrpP09lg99m7cvA23bMvdNHaNTvn1WCziIYWsnVvUv8cid/hnGa9JfA8eHr/H1sx6HewezGNR8xkBAn0IZLzW7CNf9lGXQMYR84waXVcZGzs3C1MRjU0+zPF0ShrGNdtexTlbRKQnm0DmOuKG6LClJZ4AHPoHZcZG62FV7b1PgYxP+7qZ32eEv0xTlvE8kbHs9Svf797uGldX0xnV3rlF/d9dbu6mV0j40I8Gut0x2/wk483bSGPUu8yjTG46jv132GT8Hg0H9e+80pDxWsT34Hkx3dw6Y+eWuD+Qsext2vmbAAECBAgMJZDxd5FOLUNFu539PujY4gd2O4GX0zIF1NEy4ybV4wlEHcncEPVrwqdGx4vOsEdiO6yvvZ8nkPGpcTfzz4vprq2z3tSPMmg5TiDjqB3H5WD32ur/bpvuk4zxH7oDb5f3Gv4dauquc2zUu8P0Mn6PRsqj/vkuPSyGm2u5Dt4UqffvjPVX3a23vMlZWwKZ20RM/9tWWSwlt1Euo3Nntt9F8ZvIVOillKK86VxsJi1zg+BmWv1NoCUBdbOlaMvrOQIZGyK6/IwxVU53rNb+HeNCPW7UWQgcKxA388con8ekS+PaMVrHr5vxpn6UQTfcjotl9s6yx+Xmfm31/97isVcR/7DKtqjH+yOSsfOBerc/butrZPwejfT5Ll2P0mGvXQcf5lTTWhnrr7pbUwmTFwIECBDYJ3DXqeWHy8FHNt+Xjs3P/SbaFPH3qQLfdGw5dUe2I0BgWIGLV98NewB7J1CJQOaGqHhaSINE/wVtjAaMjI1b/Uva4xACOrUMoZp/nxlv6ptG4fhyU9uTRG4kHVcGoh5ne7hAPd4fQ9+7+41KWCNj/Qs3dfC40qM+HudVy9qug2uJpHwQyCWQ7bq80zGCdCfh36kF7jq0rEZpeb3q1JJtcS8iW0TKTs83HVsyP+leNnWe1P8t4XzheXSkhACBGgQyf5e5Gdp/CRvjhmncnLMQOFZgjE5Xx6TJD8ljtM5fN9tNfUOxnxbTrDdQj82N+n+s2Jf1s11TRj227BbI9r0bKXUNuTte+z7J2LnQgwr7onb/ebb66HvwPjZjvHIdPIayYxAgkEHA6NwZotB2GtY7tGT8vegarO3yOUTuF8vlcoj92ufIApnnGRyZotrD6ZBUbWhlbACBzOdEN0P7DfgYN0zjAtxC4FiBKJtjdLo6NF1+SB4q1e96cVM/U8eIKJNGDjsuxjWMmqj+Hxfz9bUzjgSoDq9H6OHrTN+7kbKPH94/TKC/jhbIaOhBhf1hdB2836iFNVwHtxBleSQwnkANv8vG03KkFgSyd2iJGLgX0UJJHD+P33RsydwYOD6PIxLII6Bu5omFlJQhkKkhcVPMzdBNkdx/T/WkrQ6NucvFvtRla1ybqhzvc2rh83jiPNN3UsZhaTOXg9LPxVH21P/zSli2UVtcR26P5xidnbcfefu7cRPXb/jtNse8G4ZhmWnxoML+aLgO3m/UyhrZroN9h7ZS8uSzRoGsv8syjpBRY/zl6V6ghA4tcR8iOqi7F3EfN6/6E1jM5/Nv9pbpxus3ifMGgQYF1MkGgy7LZwtka4RYz5AfPesa570e+qZpthvp52nZeiyBbI1rGZ92HisWWY6T7Tvp9WreZUsbAtnKXonqOifkj1q20SFCzE3c/spNWGa7J6JxfHd8XQfvtmn1k0zXInEvJlsZbbVcyDcBAgQIHCYQHVm6zizPnr+YxcNKmdsW4l76XcfWVQd1C4EhBLZ2bBniQPZJgMDpAobaO93Olu0KRCNEthug69GIC1LLeQJuSJ3nZ+thBLI1rnlifJg4H7vXbE+cx00Q30PHRrG89dX//mKW6Zoy803M/sTL3pOO0f3HL1PDeOTO9+j2GLsO3u7S+rvZroPj4RjXwa2XSvknQIBAXoH4jor/4oGku/9WHVmyd2YJzfjNbJSWvOWqppQtbm9vv8lPth+M3yTQGwQIECBA4ACBzN9nnvI7IIB7Vhl6tJY4vKdt9wTBx98IjFEuvznojjeiYU0Z3oEzwdvZnjg3JdFhhaDU0TrU/8Pie+ha2a4pNcjdRy5jQ7rv3vv49PUq40MLfs99G13Xwd+aeOeLgOtgJYEAgZoFXJvXHN1h8tZ1Xol/4/dM14mlG5Gl68hSykMNcf/BKC3DlBV7/Vbg6WKx+PZd71QtUOrN2aqDsidzboztAfIxgR0Cmc933VN+mdO4gzXF23HRP/Tiaduhhevb/xjl8hg11w/HaI2zbvzQjxsWWW5ORFoiTZb6BNT/fmPaNapnqbu/rkZdcg35JcZX17/1G+wz96bunQn4yObRwezq0+Uja4z7kd9zD71dBz/08Ne3AnHNGQ12WRbXwVkiIR0EDhNw7XuYU21rxfVWnK9LXrL8hhzKMEZpUT+H0rXfbQJPt72Z7abNtjR6714g07DI96nyigABAjkEonNCpifH1lXiKb8LDYrrJKlea5hIFY70iYmb+ZnONfHD0pJTIFPDnEa5nGXk3FTpmHmu4PbtU9XdVWeOH2d/357Qxt7NdKNY3Ru28GW8V+n33JeYuw4etuzXtPf4jZJl1EDXwTWVLHkhQKBmgUzX+zU7H5u3u6mHtGscy2b9HgQWNzc3PezGLggQGErAzbGhZO23FYG/reZ3zLq4MD89MkN3IHDuPT02rW45dJk8xjXKr6cljhEbd92ITaZzjKkUxo3/0EeLsqVj5jDKmc6rriG/xDjbCBGZf3cMUyvG32u6acFWTxFbZqk6d7sOzl0iuw5qWVLpOjhLJKSDQNkCMZqihUArAncdWlYdVY3+20rE8+Vz8eTJk62pyvZjcWsivUmAAAECBPYIZLtxsplc87Buiuz/O1sjxv4UW6N2gWxlUqN2/hKXKUbd06r51aTwEIFMZeuQ9Ja2TqbRUl1Dakwvrf70kd6Mv+1ar4uug/so2W3tI1NDmOvgtsqe3JYvkOlavHxNOSBwnMB6h5ZMD30clwtr1yCwqCET8kCgZgFPfdUcXXkbSyBzZ01PCB1fCsYYGUPD4PFxaXmLMcrkob6ZRgI5NM2trpdpuijfRXWUQvV/+DhevPpu+IM4wkEC2RrTD0q0lXoRyPbbrvXvUNfBvRTr5naS6Zql9TrcXOGTYQIDCFytpgm1EKhZIL63o2OqDi01R7mcvO3s2KKAlhPEU1Kqd+spatNsoy5O4+6odQlEPcp63vOE0HFlbYxGjEw32Y7TsfYUAmOUyUPzFWVXp6xDtaZfL9N3k++i6ctDHylQ//tQfHwfHjp43KflT9W/8aKf6fszch3foa0uroNbjfz5+Y5zZpZ7NK6Dz4+nPRAgQIBAnQJxn/HPP353r7HO8Babq50dWyJHWS4wi9UdKeGeGhsJeoLDaFydAN0hqxXI9mTfOrQnhNY1pn+tYWL6GJSUgkxP5mhwLankfElrpu8m30XllZ/1FPvdsK4x3OtMDx382nBjekTYKBHDlfMS9pzp+zO8Wp2OyHVwCbUlbxoz1WPXwXnLiZQRIECAwPgC0TcgRhl2j3x8e0fcL7BYLpc718p0gbkzkT4gQIAAAQIHCGRqiNhMbstP+W1a7Pt76EYMDYP7IuDzdYF4SjVL/Y2ym/k8t+7m9b1AxCzLecfTqvdxKfGVG07jRS3LA0CZGpTH0/9ypEyjRESKdCwduwSsHsRbfX9mWlpsFHcdnKkElpmWqMdpvlNXnUVb7aBWZumRagIECBAYUiDuD8WDFNl+dw2ZZ/suR+DRji3lZENKCdQp4AZ1nXGVq+kEstw02SbgJso2lYfvjXExrWHiobm/yhFwzVBOrDZTmum802LD3GY8Svw7S+eoEu2kuUyBbJ16snWyKDOqx6c60287nUOPj1+fW7gO7lNz3H1leqjWdfC4sXc0AqcImLngFDXbEDhNIB4ujf+ePX8xe/3m8q6Tyxj35k9Lra1aElislp35zdRzemcifUCAAAECBA4UyHTTZDPJbqJsinz79xijtWiY+NbdO9sF4sfc0GVy+5G/fVej9rcmJb2T6TeXhrmSSs59WjXo3VuM8Srz9eQY+c9wjDhXZVl8B08XCXVxOnvXwdPZ13Zk18G1RVR+CBAgQKBGgfj9td7RJa4FdXKpMdJl5Gl3r5Yy0i+VBKoVcIOs2tDK2IQCmW6abDJoTNwUefi3i+WHHv4isC6gUXtdo8zXmRrndLQsqwz5zVBWvPpMbabOHX3ma9++XBPuE2rn82wd0n1/TlP2XAdP497nUV0H96lpXwQIECBAYHiB9U4u3Wguwx/VEQh8EVjc3t4+apHp4vLRhPrwKAHDth3FZWUCVQq0OvVN5u81N0N3V7Uxhpx3U3S3v08eCkSjmtFaHpr46zyBTB0vdbQ8L5Zjb+27a2zx2SxbY/r4Ao64LqAOrmuM/zrTdETj536aI7oOnsa95qO6Dq45uvJGgAABArULdKO5rE9ZVHue5W9agcV8Pn80BW7aPMqT4sO/ff8yRTokol8BN8j69bQ3Ap1A5u81jYldlB7+G52whn4q2RPvD839RYDA+AKZOl7qaDl+/E85ou+uU9T62UZjej+Op+xljM7Oh6ZLOThUarj1Mn13+i03XJztuX6BTHXZdXD95U0OCfQtMPQ9y77Ta38EhhKIuhAPAkYnl+gMbbTNoaTb3u9iuVzuFfBjfS+RFQj0KqDO9cppZwS+Echcx35dXQBaHgqMYaIz4UNzf+0WyPaUqrK7O1alfeJp1dIiJr0EphdocQTGTA0HRsKdvg5IwbgCroPH9W7paK6DW4q2vBIgQIBACwLr0xXp4NJCxMfL494RWyIpmXpNj0fjSASmE3CDbDp7R25DIPP3WqanULOUhqGnfPHEe5ZISwcBApm+nzytmr886tiWP0ZS2K9Aix15+hWsb2/ZRuP03VlfGZOj8QRcB49n7UgECBAgQGBMgfVRXMY8rmPVKXDQiC11Zl2uCOQVML1U3thIWR0CmZ4G2hQ1hPVDET26H3r4a3qBoTtaHZNDjdrHaJWxbqYGukyjIpQRvXFTqVPmuN6OlkNgjFH8jsmp3+3HaA23bubROIfL9TR7dh08jXsrR3Ud3Eqk5ZMAAQIEWhXQwaXVyPeb78Vq2bvHzA2AexNvha0CbsBsZUnzZqYfc2lQJIRAzwKZngbazJon/e5Fxrh5qnPAvbdXjwtk6milUfvxWJX8aaYGOqMjlFySpH1IASNsDqlbzr79bi8nVmOltOaHFFwHj1WK2j6O6+C24y/3BAgQINCGwHoHl0zXmG3ol5/L/b1ays9j9TlwM6WuEGuoqiuecpNXIHOnzZpviB5TIsa4sHXOPSYi1s0koJNypmj0m5ZMHS91tOw3tn3uTafMPjXtqxSBMTo8H2qRqfH10DTXup6OZrVGdne+XAfvtin9E9fBpUdQ+gkQIECAwOEC8fsu/hujDeDwVFkzu8DBUxFlurDMjip9BM4R8AP9HD3bEjhOIPN3m8bE42J56toaBk+Va3O7VA1qr162GYQGcp2p46XpiHIWOJ0yc8ZFqggQmEYg2z2UbFNm9RUV18F9SdrPYwKZHt50HfxYpHxGgAABAgT6E4jrzGfPX+jg0h9p1XtazOfzgzKY6cLyoARbiUChAupaoYGT7CIFMtc3N1Fmdz22hyxYGgaH1K1v35mmZFF26ytfmXOUqexndpK2tgSyNaS3oJ/tXGSUkDylLttvuqvr3/Lg9JSSTPXPdXBPQU28m0wjYmUq+4lDJmkECBAgQKAXAR1cemGsfidPl8vl7ODOLd+/nGloq75MyOCEAn6gT4jv0M0KxE2TrN9tcRMl243asQrKGEMQapQaK5p1HCfT07fKbh1l6rFcxIhiV58uH1tltM9iBLGLX96PdjwH2i9gtLH9RtaoTyDT93B9unJE4HGBTPXPd+DjsarhU9fBNURRHggQINCPQKbOjv3kaPtesrZNbE/t8O9GB5foLB7XBK22jQyvXO4RjurYkunCslxyKSdAgACBTAKZv9tabkwceqjr+GHkwjhTTcyflqHL5KECyu6hUmWvF+enzB0vy9YtO/Wt3NgrO0pST4DA2AKZvjNrbJjIdB08dtlyvPEFXAePb+6IBAicJ+A32nl+j20doyS23qk1Hnzd7GQcnT5qvOZcLwuRv3jgKwYDaL0MrLt4PZs9PXS0lsDSAFRPkRHLnLF0gs4ZF6mqWyDzTZO7C7gGR20ZY7QWw8fXXa/7zl2mIaiV3b6ja3/7BFr9LtrnMtXnzgFTyTsugYcCRk976OGvegVcB9cbWznbL+A6eL+RNQgQIEBgWIG7tovVw0/ry4+zv9/9ud7ppdbOLkZvWY+81yGwOKZjS2yg92Eo5FnEI08szk2JaYjOFbQ9gdMF/v/27h1LbhtrAHBX2clsYjbg2D5yYKXagZ0q9kSO9Yej2NFMrHS8A6XtwDp2PBuYTUwy6v77tkx1qVQvFkngAvx4jtT14AP4ALJA8BKMUVuyTjFqi2l+AYGE85v2vMb9OyN6zqu85RHI9NvktyhPvXAxPU9ZSAkBAgSOCWQKBjmWxks/z9QO9ht4aam1P592cPtlKAcECBAgsLxABL1EH3f8e/vwCOn//uffN29/efM4yklP1xsj0PTF9y9vStwMu3yp2cJUgS/HriDzIxvG5sX8BAgQIEAgBDKPYhUNt7VNSw913VPDfm11o1Z+l66TY/IlKGuMVtvzZv5talu27dSrF22Xn9T3I2Bf7Kcs5eS0QKZ2sP3udFn5lgABAgQIECAQ7aWhzRR9iEMwSKY23bWlNORB3+i1gn0stx2bjWGHGLuc+QkQOC3gYHzax7cElhbIPAJWT3f8nSvHobF9br4p3zveTtFb37KZ9r/Mx6n11YwyOc5S5sMw7GVybSvHBARmHpPx+RoEYmhtE4FjAh7Tdkxm2ufawdP8LH29wONFuW8/fezC9WubtqR28DQ/SxOYU0B7cE5N61qLQPSDx78YzSX6FFrvV4jglhLXD9ZSP1rM5+jAlshklg7WFsGlmcAhgdZ/TA7lyWcEWhPINNTtvt2aHgExRF7vG8z13vF2Lsn1rCfT8Osu2qyn3g05zVTma/otGvz9JUCAAAECaxbQDl5z6cv7roB28K6G1wQIECDQqsB+kEur+YjrB3/561c3mYKwW7VsMd3b+/v70enOfPFvdGZWvIAApTyF7znBecpCStYrkOmOoP1SWMsdQqKt90ve+wwCme4I0l7IUCPKpkGZl/XOvjX1IXsJSR8BAgQ+CGQKCJlSJtrBU/QsO1XA9YepgpYnQKCUQKYbUkrl2XbaF9gdxaXV3Lz4/qXgllYLb0K6rwpsyXzxb4JFk4v60Wyy2D5LtEd8fUbiAwJVBDJ3nLhDaJ4qEY12E4ExAhFYlmXSXshSEuXSkanMM+0L5Uog15Yy1YdcMlKzBgHHoDWUsjxmE8i03/kNzFY7lk9PpjLPtC8sL28LBPIK2Bfzlo2UtSvQeoCL4JZ26961Kd9uNptrl7UcAQIzCHgsxgyIVkFgJoHoOMk6mtUaTt48hmimimw1XQpkPTZ1iZ0sU5nK3jCvySqH5BAgQIAAgRUIZGoLrYA7VRYzlb12cKqqITEECBAgMLNAywEugltmrgzJV3d1YEvmu9qTm0segU8EjB7wCYc3BKoLZB4Jq+dH9ZTIm+Nt9d2ruQSUqJeXomQ+Nl2aB/MRIHC9QKYLO9fnwpIECBAg0IqAdnArJSWdBAgQIECAAIH5BKL/vMWb8SO4xbQOge3d3d1VOc18V/tVGbIQgQoCOqgroNskgTMCmYMfMj3j/Azj6K+N1jKazAIECKxEINMNBb8mejTXSor/YzYFt32k8GKlAs6dV1rwsk2AwKoFMrV/tINXXRVlnsBJge++/frk974k0JpAXB/573/+3VyAy4sfXrZGLb1XCGwfpisW+7BIpk7WqzNhQQIVBTKdoFVksGkC6QSydpzH44h6HP62xN2ALZ5kZnqmeLqddIUJarEOr7CYus9yzwGW3ReeDBIgQIBAMQHttnmpec7r2dLaMpW9dnBLNUdaexTosT+0x3KSp74EWhu9Ja6dlLjO0Fcpt5eb66NaHvLqgkt7Bb6bYkEVuxp1XmceGaKOiK0SyCGQOXDz9c//yIHUUCoiUEmbpaECS5TUpUcSGpNVdXiMVl/zKvu+ylNuCBAgQIBACwLawS2UkjQSIECAQAYB5+wZSkEalhKIa5hvf3mz1OpnX2+0YQW3zM6aaoXb9+/fT0pQ1rvaJ2WqoYUzRa43xJYiqS0+py4FnEQQKCAQJyRZf996G7Ul7rhYutNUIGeBncYmCBBYVCDLb1L8BpnqCDjvq+NuqwQIECBAgEA9gUwXi7WD69UDWyZAgACBugLxexyPJsrSN3VOI641GOXpnFK732+/+OKLSanPfFf7pIxZmAABAgRWLZD5962nZzuXyIvRsVa9K1+d+UwnQK2cOF6NbcGmBDLtG03BSSwBAl0JOBbmKs5sjwjJdDH+mpLKVL+1g68pwb6WyVQHMu0bfZWy3BA4L1Ci//B8KsxBYN0Cb//15qaVG/aNet9vXZ30KKJgyXxXe7/FJmc9CLjQ2kMpykPPApk7I5ce4aRkuS6dl1Ya2yXNbesygUydJkYduqzMep5LHei5dC/LW+Z2yWU5MBeBaQKOg9P8LE1gjIB28Bgt8xIgQIDAmgUyBd+tuRzkvZxAXNdsod7HSGseSVSuXpTc0uTAlkisDoaSRWZbPQi40NpDKcrDGgQyN9J6uFOoRONSEOEa9lR5JNC/QKbH0Ljrpf/6JocECBAgQIAAgSwCmUbT1Q7OUiukY40C2UZnW2MZyDOBQSBGbsl83WRIp0cSDRJ9/Z0lsCVTR2tfxbNsbpTbsr6n1u5C6ykd35USyHQXVqk8j91Opg6U/bT30KGy9EmpIML9WuP9GIGl6+eYtGizjdEyLwECBAgQWF7AudTyxrZQT0A7uJ69LRMgQIBAWwJu+m+rvKR2PoFWglt6uIYyX6n1sabt/f395Jx4HNFkwqtXYEjqq+mqLehCazV6GyYwWiDz71sMp9fyqC2R9siDiUBWAfUza8lIV20B+0btErB9AusUEOS5znK/NNeZfptauHv1nGsmz3Np9T2BkgL2jZLatkXgUwH736ce3hHIINBCcEscO0qMGp+hPNaShlkCWwIr813taylM+WxDQIdcG+UklQQGgcy/by1HHJe4y9XoWEMt9nesQLagMYHMY0uwv/mz1YFs+0h/JS5HBAhkF8g0okV2q6XTl+03qfU7t/N5fr10FbL+5ALawckLSPIIrFzAtZ6VVwDZbyI2wCOJ+qqo24dplhxlvqt9lgxaCYEZBGK0lmwnZDNkyyoIdC2Q+fet5bsVokG55GR0rCV1rZsAAQIESgr0cPd/SS/b6lPAeXSf5TpHrkoEzM+RTusgQIAAAQIErhPIFnS5mwtt1F0Nr9coEPtAC/3wLd8gvMZ6dSrP80S1/LmFzHe1n0LwHQECBAgQOCWQ+a67zCd3x0xLDP9ntJZj+j4nQKBVAcENrZacdBMgMJdApuNgywHmc5WH9RwWcOf2YRefEiBAgAABAgQI9CkQ/fDZg1vi/K3F6yh91phpudre3d1NW8PO0qITdzC8JHBAwIXWAyg+ItCAQObOyRajjY3W0kCll8Q0Apku4qVBkRACBAgQIJBAQMdogkJ4SEK2x0LpG52vXmgHz2fZ+prUhdZLUPoJTBPIOjqbY9O0crV0XwJx7TP7PtHidZS+ask8udluNpt51vTnWrJHZc2a2cZX5mS7bAHaN8p62xqBOQXieJm1YdZatHGJ0VrmLHvrWqdA1k6TdZaGXBMgQIAAgQ8CRglWEw4JZBo9J+s54yG3Y59pBx+T8TkBAgQIEPhUIPMI35+m1DsCZQSyn6+1dh2lTKm1t5Xt/f39rKnOfFf7rBlNsLIeTpgTMBZLgtFailHbEIFFBDI3zEQbPxV5/DY63j55eNW+gI6S9suwxxy46NVjqcoTAQJjBbTBx4r1P79227xlzHNeT2ubR0A7eB5HayEwRiDb6Gxj0m5eAmsSiJuDs9/g7xyu/Ro5+4gtme9qb7+45KBVgewH81ZdpZtASYHMv2+Z7lI8VyZLP4ZI5+e5EvA9AQKtCji+tVpy0k2AwFwC0R43EdgV8DioXQ2vCfQroB3cb9nKGYFLBFrq97wkP+Yh0LNA9htOjdrSfu2bfcSWIMl8V3v7RSYHLQpkP5i3aCrNBGoIZP59a6FTt8RjiBxva+wZtkmAAAECBAgQKCOQaeRaF1nKlPmprWQbOcG5yKnS8h0BAgQIEBgvkLm/09MrxpenJdYh8PaXN6kzmu0cIjVWwsRtH6bZk5X5rvbZM2uFBM4IGK3lDJCvCTQkkPku0RaG0Vt6tBbH24Z2JkklQKBpAUNBN118Ek+AwIwCmS+2zJjNtKta+vwibcYljACBagLawdXobXilApkvQGfuJ15pdZHtJALZYwScQySpKFcmY/6olj8Tkvmu9iutulws091OXQI/ZModO72WrHytVSDrcTP7MHpGa1nrHtNmvnVWtlluUk2AAAEC/Qtk62tqIbi811qRLaiolyB77eBe9xj5IkCAAIE5BbL2D8+ZR+siMEUg23nbfl6ynUvsp8/74wKLPIooNpc9Ius4STvfeL5o/rLqpWMjv7QUEignkLlRtuaOdcfbcvuALREgQIAAAQIEagnoa6oln2+7me/gzqclRQQIECBAoE2BrAGXrs21WZ+kupxA9vO2NV9HKVcLltnSdrPZLLPmh7Vmvvi3WKatmAABAgS6FsjcKItRW7JOhvjLWjLSRYBAKwKe391KSUknAQJrEsg+amLPZZHtQpfRenuubfJWW0A7uHYJ2D6BegKZ+zrrqdgygTYEMscIOI9row4dSuViI7bExjJf/DuE4TMCcwrE6AE6NuYUtS4CeQQyN8pKPPJnbEmUSJPj7dhSMX8rAjpxWykp6SRAgACBUgKZ2+KlDGzn5ibThS6jRy5TI7WDl3G1VgIECBCYLqAfcrqhNfQvEDECJgJzCywa2BKJ1eEwd5FZHwECBAjUFsgcuJntzsUoq6VHa9GRXHuP6G/7mS6U9KcrRz0I2Ed6KEV5INCuQLa2uGGsy9elEoHzY3LV08Utv/FjSt68axSwj6yx1OW5lkC23/taDrZLoGWB59/mDW5xHtdmzVr0UURBkq3Doc1ikurWBIzW0lqJSS+B8QJZn6UanSy37/I8kqjESWhPHcnja6IlCBAgQIAAAQIEagpka3/XtCi17aUD58fkI3Nn/Zh8mJcAAQIECBC4TMANdpc5mYtACGQe/EKwapt1dPHAluwVt81imy/VWS/MzpdDayJAgMAyApmHRV5TtLGTyWXq97G1/voQOGUiQIAAAQIECNQWyNZBuqb2d+2yLxE4PyaP+tXGaJmXAAECBAhcLpApkPXyVJuTAIFdgeyDX2S6QXjXzevjAtvjX833TfaKO19OrYnABwGjB6gJBPoXyPzblumuUSeh/e8LckiAAAECBAgQKC2QrS2eqf1duixKby/b+YX+n9I1wPYIECBAgEBdgcw3O9aVsXUChwUyB4K7QeFwmWX+tEhgSwBku5smc6FcmjY/oJdKlZ3P6AFlvW2NQE2BzL9tGRplJe6m1JFccw/od9uGlO+3bOVsHgH7yDyO1kKAwDSBbG3xDO3vaaL5ly5xfjFGocf+H7/xY2qAedcoYB9ZY6nLcw2BbL/5uwYRYG0iQOByAdeyL7cy53mBYoEt2e6mOU9jDgLXCbjIep2bpQi0KJD5ty3DMyKXvpuyx47kFvcDaSZAoIyAR4GVcbYVAgTaEcjWFs/Q/m6n9K5L6dLnF9elylIECCwtoB28tLD1EyBwqYC+yEulzEfgSSDbedtTym5unMPtarTxent/f18spdnupimWcRtajYCGzWqKWkYJfBTI/NtW8xmRJe6sEEj4sRp60bGATtyOC1fWCBAgQGCyQLa2+IsfXk7OkxUcFihxfnF4y4c/jf4f5yOHbeb6VDt4LknrIUCAQHsCglnbKzMpJtCqQM1rKK2a1Ux30cCWzFFZNQuh5rYNATWfvk6N+SytiUBLAvHblnWqORz67bvfF2URSLgor5UTIECAAAECBJoQyNbPFHf86Rhdpuq4wLWMq7USIECAAIFsApnbUoJas9UW6WlFINsNCbtugql3NfK/3m42m6KpzFx5i0LYGAECBAh0I5D1Gcu1OtbjBHTpYfycSHaz+8gIAQINCjx/9k2DqZZkAgR6FcjWz1QzuLzXMjZaS68lK18E2hPQDm6vzKS4PYGsF5mz9v+2V8JSTCCXwNI36ObKbfupKR7Yku1umpaLMPMoAS27XpN2o7Vco2YZAv0IZOtM35Wt0bG+9Amo0Vp2S9jrJQR0Vi6hap0ECBAgQGAZgWx9I7WCy5fRrb/WCGrJNlpLz0H22sH167wUECBAYO0CWS8y+41ce82U/ykC2c7ZpuTFsnUFtnd3d8VTkPkCYHEMG+xCoOdOjS4KSCYILCyQOWhz6ZFTDtFm63g+lEafESBAgAABAgQI9COQLfD5xfcvPZJopuqV7dwiW12bidlqCBAgQIBAGoEafZmXZP67b/M+jv6S9JuHQG2BrKMeZT3m1C6vrNvfPkzF05b5AmBxDBtsXkCnRvNFKAMEZhHIHLRZ8jKJFp4AAEAASURBVNm0JYYJF0w4S5W1kkYEst6p1AifZBIgQIDASgSifZito7TGyIm9FXeJc4uxZs5FxopdP7928PV2liRAgECrAhl/+wdLI04MEv4S6E+g5PWT/vTK5qh8VMuf+ct8AbBsEdha6wI6NVovQeknMI9A5pObkp3qS99RKZhwnvpqLacF3IVz2se3dQRc3KnjbqsECLQjkK2fKe78y3xxJnvJht3S5xZjDdZwLqIdPLZWmL+EgHZwCWXbIEDglMAa2gCn8u87AnMIeJzXHIrWsX3//n0VBaO2VGH/bKOZL8R+ltiEH2jQJCwUSSJQUSDrMSE61UtEHZfouBdMWLGC2zQBAgT+FHDRS1UgQCCjQPRvZGuPR2BGiXZ4xvKYkqaMQS2RH+ciU0rVsgT6ENAO7qMc5SKvQLag1kHKvj9I+EvgegH70fV2lnwS2H7xxRdP7wq/ynY3TeHsT9pctiF2J2Wm4YV1ajRceJL+0MH6O4WZBTI3zkqO2jIz68fVZbtQ8TFhXhAgQKCAgGf+FkC2CQIEmheIc/Rs/SUvvn8puGVEzYpAoIwXtZyLjChEsxKYWUA7eGZQqyOQVKDEDXPXZD3alm4Qv0bOMgTaEfj14cZgUxsC1R5FFDwZ76Zpo9ikMoOATo0MpSANBHIJxO9ato70QahER1DGDugh/63+zVqfWvVsMd0l9t0WXaSZAAECBAgcE8h4E5XglmOl9fnnYZVtiv4fNzaVLxXt4PLmtkiAAIGaAllvwvT4lJq1wrZ7EsgcIJb1+NNT+c+Vl6qBLZEJJ4ZzFaX1lBZQd0uL2x6BNgQydqQPcksOg17irgrH3aEk/SVAgAABAgQIEDgmkPUmKsEtx0rs6fMXP7x8epPolfOQRIUhKQQIECDQpUD0WWYNaNQO6LLKyRQBAo0KVA9sCbe3v7xplE+y1ypgtJa1lrx8EzgvkHnUliUfR7T0aC2Ou+frnjnmE8h2B8GSQWnzqVnTkgLZ6kC2fWRJe+smQKBNgbgAkXHkuyXb422W1FOqI6gl4wWttfVZZvuNz9YGeqqxXpUSyFYHsu0jpcrBdggsLZD1MSD6I5cueesnQIDAOIHt/f39uCUWmDsahBk7HBbIqlV2IGAI2g4KURYILCyQddSW6CheolPIaC0LVyirryKgbVqF3UYbELBvNFBIkkiAwKNAxjZ5tMf/8tevbkq0n1uqBlmDWqL/Z40Xsf3Wt7T3SGtJAftGSW3bWpvA0jfMrc1TfgkQINCrQIrAlsDN2OHQa6Hv50ujfF/k9HtDz5328S0BAjepOz9bvEvU3RH2KgIE1i6Q6e41zxdfe22UfwLtCERAQtZ2ZFy8Edxy8xh0H4E+GUdqcVNTO/u6lPYtoB3cd/nKHYEQyNwmci1IHSUwr4Dr0fN6rnFt24cpRb4zdzikANpLhA7lPZBCb7N2ihXKvs0QIDBCIGsjbYlRW5a+q+K7b78eIW9WAvMIZAq6ztSZO4+utRAgQIAAgTICcTEi63n82oNbYiTJF9+/LFMRrtjKmi9kaQdfUWEsQoAAAQLdCWRtQ3YHLUMEEghkDLRPwJIyCTmiWv6kWfNJY8raIVGfCaijn5H4gACBIwKZOgP3kzjnRfKl76qIk8g1Dv+9X2ber1vg9t3v6waQ+4c72vPUAcGGKiQBAq0JxHl81qDzCG55fAzPQ5DHmqY4h8gc1PL2lzdrKo7Uec3UBkoN1XHiMtUB7eCOK5qsVRVY+oa5azPnWtC1cpYjQIDAcgLbu7u75dZ+xZqdPF6BZpEiAiJ0izDbCIFuBCIYI2sH+pwdQ1lPPrupSDJSTUBAVTV6Gz4gkOnOEfvGgQLyEQEC6QXe/utN3rb5bx9GLlk6YDxDIT2O0vLDy5vM5xAC63M/WjdDPZaGsgLawWW9bY1AaYGs7R/XgkrXBNsjQIDAZQLbzWZz2ZyF5sp8IbAQgc0kFIiGjAjdhAUjSQSSC2QdtWWuxxGVOPl07E1eyTtPXpbgtEyduZ0XuewRIECAQMcCWdvmA3kEe5RoXw/bK/038hajtGRu1+j7eaoV2sFPFl4RIECAwHICmYNdl8u1NRMgQIDAtQLb+/v7a5ddbLnsnQ2LZdyK0wq4sJq2aCSMQGqBzHe1v37oOM8+uTsiewlJX0mBuMPZtE6BTGXvuLzOOijXBHoRiLZ59lGC4+LOX/76VVcBLi2M0hJ1XFBL3j09U1sor1KfKctU9trBfdYxuaorkDmg1/WgunXD1vsVyBrkniWou9+Sny9n6UZsiaxFZ4PG4nyFfG5Nz599c26WVX+vLq66+GWewGSBrMeQOUZtWfquCieRk6ufFUwU0EaaCGjxWQR+fXhEhYkAAQIE5hFoIbglctpDgEtckG5hlJbwjnM25x4h8TRpBz9ZeFVPQDu4nr0tEyghsHS/4rV5yNqXe21+LEeAAIGeBFKO2BLATihPV7Pvvv369Ay+nU1AXZyN0ooIrFIg8/F6yqgtS99V4SRylbtLukxn2n+n7K/pYCWIAAECBAhUFGgluCWIWgxwGUZoiccOZb1gtVv9BLXsajy91g5+svCKAAECBOYXWLpfcUqKXQ+aomdZAgQILCuwfZiW3cKEtbuoNQHPorMIqIOzMFoJgVULRMd51qHspgz910In9aornswTINCNwO2739PkRQdfmqKQEAIEJgq0FNwSWY22d1wAynwRaDegZcp5xsSiHbW4oJZRXGYmUFxAO7g4uQ0SKCaQtV/R9aBiVcCGCKQSMFphquI4mZi8US0PyY6O06wXA0+q+rILAR0cXRSjTBBIIfDqYWjrrNM1z6wu0aHu4mnWGrOudMVFryxTKxeIsnj1lA5l31NpygsBApkEWgxuiYtAL354+Rjgck07fm7/SEOLAS3hoM/ndG3QDj7t49syAtrBZZxthUBpgRL9itfmSX/ktXKWI3BeIMP5y/lUmiO7QNpHEQ1wmS8GDmls/W+m4UUzWWrEZCoNaSHQtkB0CmYN1Mz4eBN3R7Rd33tLfaZ91wlgb7XrfH4ylXmmfeG8nDkIECBwmUBrwS2Rq7jQ+xjg8vCon7/89aviI7nEb1P8iwCbeNxQ/Gvt4rOglgv3j0SPQc/UJrpMz1xTBTKVuXbw1NK0PIFPBYzW8qmHdwQIECBwucB2s9lcPneFOaOTwQWuCvAr36Q6t/IKIPsEFhDIGqgZndBjOoxi3qVPQAUWLlABrbILgV8f9lfTugQylblhWddV9+SWwJoEot/pv//5d9pA9HNlEW3z+BdBLkuM5hLt/7iz+jGQpeFglsFRUMsg0dbfTG2ituTaTW2mMtcObrceSXk+AaO15CsTKSJQSiDTb3upPNvO/AJf3t/f32QPbokLXPFMzdbuAJm/uJ7WGB0vpmUEdHIs42qtBNYukPm4HaO2PP/Xm4uKaOkGqMDCi4rBTAUFIijt9reXBbd4fFPRHn518+PxGXzTnUCUeZbJKI9ZSkI6CBBYSuDtQ3s4LrYsHcS9VPpjvY9B6xEI+/OnWxlGG9i9OLt7XN9v4w+/P731w+nv+bRenHunHXxOyPdLCgzHoSW3cem6d4+Xly5jPgIEPhcocbPc51u97BP9kZc5mYsAAQK1BZoIbAmkTCdTtQvN9pcVMFLAsr7WTmDNAtGhnLFzeEyalu7o12G05j0kZ94jKC3LvjtmX82pKVVjBTKVeeYAzbGu5idAgMAxgaE/YOk277HtL/X58Hsy/H3czl7wy1LbzrLet7+8ufFbNq40tIPHeZl7XoFPjlfzrnr02hw7RpNZgMBBgf1A2oMzVfpwaANW2rzNEliFQKag1X1w1yT2RfK+T/8oooEuGpCiJgcNf5cSUMeWkrVeAgRCIOvjiCJtlzyOaOnhQiN4QIdRlIaJwHGBS/bV40v7piWBpY+5Yyy0kcdomZcAgdYF4sJGBEGY+hCIc4zHR00Z+bj5AtUObr4IL86AdvDFVGYk0IxA5lHxnO82U40ktHGBTEGrjVOuOvnNBLZEKUXnQpyQmggsIRANGJG5S8haJwECg8Bwx9vwPtPfeBzRuWnpqOrdodHPpcX3BEoKZApKu2RfLWljW+sQcOfKOspZLgkQeBKIdnsEQ7jQ8WTS4qsov3jElOl6Ae3g6+0s2YeAdnAf5SgX9QUyj4bnmlD9+iEF/QtkD1B2s207dXDbTlI/pDTTCVVrdsfSa4cd6taPx4h8ToAAgdkEsv6ORcT0qQZm3FmxdFS1E8nZqpkVzSyQOSht5qxaXSKBpYMJx2TV+cIYLfMSINCTgBus2i3NGHXH+cX08tMOnm5oDeMFtIPHm1mCQGaBTKMw7TsJYt4X8Z7AMgKZH0W2TI6tdSmB5gJb4oTKj81S1WG961Wn1lv2ck6gtEDmi4M1R4JwHC5dE22vVYFzQWit5ku6PxWIQMOlgwk/3eLxd47Px218Q4BA/wKZjsf9a8+TwxjpOYJaMp93zZPT9a1FO3gdZZ7puKsdvI46J5fLCsQ+nXW0ltjHBcEuW/7WTqAFAb/3LZTSUxqbC2yJpK/9jhmPY3qqwHO80oCZQ9E6CBAYI5D1OH7qIurSJ6FOJMfUIPPWEMg02lLNILQa9mvcZqY7WQy/vsYaKM8ECAwCL75/Obz0twGB6N+JRw8Japm3sLSD5/W0ttMC2sGnfXxLoDWBzP0X+iJbq03S27LA0tcWWraR9nEC2/v7+3FLJJk700lVEhLJuFJAA+ZKOIsRIHC1QObfsLiTYn9aeshQUdH74t5nFHCBJGOp9JumTCf86n6/9UzOCBA4LbB0G/j01n07RmAYpUX/zhi1y+fVFrjcypzTBbSDpxtaA4EsAiUea35tXvVFXitnOQLjBQ5dbxi/luWWcEPXcrZLrLnZwJY4qfLjs0SVWNc61aF1lbfcEsgiEL9hWUdtOXQnRaaOpSxlKB3rFMiy3xqGve/6l+mEX1u577omdwQIHBeICzHawMd9snwzBLQYpWX5EtEOXt7YFm5utIPVAgJ9CWRuSwmG7auuyU1ugUyjsR2SEsR9SCXvZ9vNZpM3dWdSFj8+WU6sziTV1wkFoqNeAyZhwUhSMYFTj50plogVbyjrqC37F8xL3KnqWLziHaGxrGfabw8FoTXGKblHBLKf8B9Jto8JECDQjUBcWM18IaYb6IkZiT4dAS0TEUcsrh08AsusVwtoB19NZ0EC6QRe/PAyXZqGBLmBY5Dwl0AZgcznVmIMytSBObfSdGBLQDyexH779Zwmq1zX2nbeyK8Lqaus6jJNII1Aa6O2LAXnZHIpWetdQiBTBL/gxCVKOMc6M53way/nqBNSQYBAWQHBo2W9x24t+nPe/vJGn85YuInzawdPBLT4RQLawRcxmYlAeoHsjyBynpu+CklgRwKZRmM7xPr82TeHPvZZYoHt3d1d4uRdlrRMdw1cluJpc9nRpvnF0murM9PFrIEAgSUEsh6LdkdtWbpjycnkEjXLOpcUyBQMnP3kcMly6HXdJUbJutRO4OGlUuYjQKAngcwXYnpyviYvQ0CLUVqu0ZtnGe3geRyt5bCAdvBhF58SaE0g9uWl+xKnmOiHnKJnWQLjBYzGNt7MEqcFtg/T6Tka+DbuGtDx2kBBJUli1JVMd5okYZEMAgQqCGQ+FkWjc+mOJb/dFSqdTU4WyBSQ5o7yycVpBQQIECBA4KNA9gsxHxO6shcCWvIUuHZwnrKQEgIECGQVyBzUoh8ya62Rrp4FMh8Twl2wW3u1r/2olj/No/JlunOgvaqwjhRH48WBah1lLZcEWhHI+tt1++73xe+w+M6jBFupptK5IxABaVn2293RlXaS6GWjApkuqGozN1qJJJsAgUkC2TtdJ2WuwYUFtOQrNO3gfGXSS4q0g3spSflYu8DSN8hN8XWOO0XPsgSuE8h8TLguR5bKILB9//59hnTMkoZMdw7MkiErmV1AUMvspFZIgMBEgay/XXHBfMkpOqozj1izZN6tu32BTPutUVvar09yQIAAAQL1BV788LJ+IqTgMXj47S9vbv77n3/feORQzgqhHZyzXKSKAAECtQUyBagdsnBd6JCKzwisW8AoTm2W//aLL75oM+UHUh0XyFTEAzA+ehRQN1QEAgQyCmS6662kz/Nn35TcnG0RmFUg035r1JZZi7bqyrKMFOBOtqrVwMYJEKggEBdilg7q3s9WBHnro3hSMTrLk0X2V9rB2UuozfRpB7dZblJNYBDIHtQSQbMmAgTKCmQ/LoSGgLeydWKurXXzKKIBJCqizoFB4/K/vV9g1EF/eV0wJwEC5QUy3fVWKvcajqWkbWcpgUz7rVFblirlcuuNE34TAQIECJQXqNHhGv0TMRpJtIdjZJK19mENwT1xscnoLOXr/pQtagdP0bPsvoB28L6I9wTaEqjRlhojFO2sCMo0ESBAYFdgredguwatvu4usCUKIjoH4gS51+m7jvO2RJlFXXABdQlZ6yRAYC6BtZ1gaTjOVXOsp6aAu1Vr6ve3bXep9lemckSAQBsCNY6/+/0TuwEuvbeTh5FZhkcNPfbfudjUxs6yk0rt4B0MLycL1DgOH0p0HH/3j8+H5vMZAQJPArfv/rjJsg8/perplf36ycIrAqUFMh8bSlvY3rwCXQa2BFGmuwfmLTJrGysQd/6YCBAgkF2g54DMfXudRfsi3rcqkKm9+etvf7TKuPp0u0t19VUAAAEClQRqHH9PBa5EGzn+DaO49HB+EHmIPMeoLEMwy9qC+itV78U3qx28OPEqNlDjOLwKWJkkUEjgxfcvC23pus3of7zOzVIEpgq08Pvu+DC1lOst/+X9/f3NZrOpl4KFthwnynHinP3HdaHsW+2fAp6fqCoQINCKQHQM3v72spXkXp3OU535V6/UggQqCQx3q94mCCqJOyFiVD8XiypVhis3m+kOt7j46MT+yoK0GAECzQlEZ2vpuwjH3DUcx+NXNz8+ug4dw6XTe02hDsE4Q9CDdsk1im0sox3cRjllTqV2cObSkTYC5wVe/PDy/EwV59D/WBHfplctkOn3/VhB9Hh8CPeYhhsfb9/9/vh+6LMeztOeP/vm8fPhyTAtnq91G9gSJRMFEhW0hZP/x5rkv1kFouxb3ClnRbAyAgSaEcjUMdgMmoQSSCCQKSjt9UNwy3Mj1SWoFZcnYTjhvHyJ5eYcTm6X24I1EyBAIIdA9qCWfaUh6DD+Rofl8NsRnZVDR+X+Mku+3+0UbblDdEmjtaxbO3gtJb1MPodj2TJrH7dW7eBxXuYmEEEtNdogl8rHdaGh/XTpMuYjQGAegUy/78dy1MvxIc4Noy/4kuPxMM/w9+bnJ53WjplfbrfdPo3osVQ+nPjXOdl/qhb5Xz12RuxU5PwpPp3C1nbE07nxLQECaxHI1DG4lHkvDcelfPbXGx1sHxuc+196n0IgU1Ba1JU4qRHYm6JqnE1EjQurpxLl+HxKx3cECPQkUOPmp7mOsY/tjoebuGIaRnSJ17sBLx/ef7hDL14P07E25RCoMswXf/cv8gpg2dXxehDQDh4k/B0roB08Vsz8BPIICGrJUxZSQiCbQLbf90M+ce249WlMQMsleY3z4/g32Mx17nrJtq+Z58trFmptmbcPd67+5a9ftZbso+l1seIozeMX0SmTfcc7nQPfEiCwVoFMHYNLlMHQOFpi3dZJoKZApqC0eAznf//z75octn2hQI0Lq8eS5vh8TMbnBAj0JhCdraWnEsfY3YCXyN9u0Evp/NreugS0g9dV3nPlVjt4LknrIVBWIHtQi+tCZeuDrRHYF8j0+76fth7eXxo4NNy4EDcrxA0Ku6PonBr1cyi/+BvnsFmvs2/v7u56KM+zeXj7y5uz85ihD4E4qTYRIECgVYH9uyNbzcehdGdtDB1Kq88IjBEYgtLGLLPkvDUu2i2Znx7Xna2MHJ97rGXyRIDAvsClHYH7y015n7lDcEq+LEtgENAOHiT8vVRAO/hSKfMRyCWQPagltOIGdxMBAnUEsv2+H1Nosf8rRmiJY/AQeLKftwhkiRiIuNEx/sWxMP5FXqOtHn+Hf/H5MF+cqx67CSO2FQOGZCzX7Waz2Tfo8n0U3rEC6jLDK81UlHGUtYkAAQKtCrTYuLrE2m/wJUrmaVkgU2BtnHzESY8pp0CUzbGT0RopdnyuoW6bBAiUFqhx7HXXcOlStr1aAtrBteTb226NY/EpJe3gUzq+I/Ak0ERQixvbnwrMKwKFBWrcQHBNFlv83Q/bGJ17/7GyQzBLBLREsMo118WHYJcIdDlmE/2X2YJbtvf399eUf5PLRCEdK5wmMyTRnwhE2fZ6QfiTjHpDgED3AsNwcd1nVAYJdCQQJxCZ9t3XDyceppwCcUKaZdJ+zlIS0kGAwNICNY690cFoIrAGAe3gNZTyPHmscSw+lnLt4GMyPifwJBDBaC0EtcT+fM1F3aecekWAwBSBTDdvHctHizcdHBulZTeYZa5jX1xbPxbgki24ZTUjtgyVOQon00WHIV3+ThNwMjLNz9IECOQSyHTH2xwyLTYc58i3daxPINMFrIjkjxMgUy6BbHc5CArPVT+khgCBZQRqHHujj8JEYE0C2sFrKu3r8lrjWHwqpdrBp3R8R+DmcRTYQ6MEZLNxXShbiUjP2gRa6Xts7XrLoaDCuMYSwSdzBbMcqqvRPorAmf04ikzBLasasWUopEwnW0Oaav9dckdYOm8umC4tbP0ECJQWiGPyfuOhdBrm3N7zZ9/MuTrrIpBaIBr/WaYIbsnWgZzFpkY6oiwy3cXiomuNWmCbBAiUFqhx7HWBpXQp214WAe3gLCWRLx01jsWnFLSDT+n4jsDNYz9CphGWjpWJNtcxGZ8TKCMQv+/7j8gps+VxW4ljRUvXwA8FtUQeSsU2hFVsa7+9lCW4ZfswjasBncyd6WRrDGlPFzrH5PvUvKV25lNp8B0BAgTmFmgtivhU/t0JdUrHd70JZAtMi5OOGD7YVFcgyiBbUItjc906YesECCwvUOPY68ab5cvVFvIKaAfnLZuaKatxLD6VXxfCT+n4jsCHoJZM567HysS+fEzG5wTKCGQLWj2V65b6vw4FC9U63oVbxuCWdUa1PNTwx4ijRHfUntrpfHdcoNUApeM58g0BAgQ+CMTvVA/TfuOnhzzJA4FzAtmCbl8/BLeY6gpku9utpZP6uiVn6wQItCxQ4/cvWxug5fKT9jYFsu0DNY4DbZbccqnWDl7O1poJzCkQQWgxSoCgljlVrYtAnwItBbW0dG3ikGutoJah5h4LbonfjFrTKh9FNGDHRcOWKvWQbn8/CETZ9XLhV5kSIEDgkEAPo3S5eHqoZH22BoFMwbcxLGgrz7ztsW7EiWmmyflPptKQFgIElhI4dKfbUtsa1uv4Okj4u3YB7eC114Cn/GsHP1l4RSCzwGNQy/cvm3mkiL7GzLVJ2noXOBR8kTXPcX7W0vFiP7DwVPrjuH3pv6nlE4b716lqBi5/udlspuap6eWHSr1fYZrO1AoSf2qHXkH2ZZEAgZUIxOOIbn972Wxude43W3QSPoPAEECdpY0ZwS1x8jm0fWfIolVcIJDthF8b+oJCMwsBAs0L1Dj2Or42X21kYEYB7eAZMRteVY1j8Skux+lTOr5bs0C2ffVUWdiPT+n4jsDyAi0dL0KjpT7QsN2fTqU/RiWMvt6xUwSoPH/2zWibQ9ep4ibKGqM1rnrElqHAo3LsRxsN363pbysGGjBrqpXySmDdAtEh2Mqxed0lJfcEDgtka2NGkM2hE6XDqffpVIGMJ/ynToqn5tfyBAgQyCAQd62VDiqN9rrja4bSl4ZMAtrBmUqjfFq0g8ub2yKBsQKPo7Q08uihyJtrQmNL2PwE5hXI+Nt+KodxzGhp2j+HnSv9+9eWIhgmtvWXv341qo94CFzfNY11xW9J6Ulgy5/iEVW0X8ClC+OS7UUk1ZonHUZrLn15J7BOgYiGbXXSwd9qyUn3nALZ9mHBLXOW7vF1ZTzhn+uk+HiufUOAAIH6AnHnWukp22996fzbHoFjAtn2De3gYyU17+fawfN6WhuBJQRiP43HSFxzt/8S6Tm3TkEt54T6/f723e/9Zq6hnGX8bT/F19oxI3z3p3PXVSKm4b//+ffNqUeAPn7/53zxer9fcGzb+FDg+q9XjBqzn9ex77drfxTRLli2E67dtHl98xh4VGNYI/YECBCoKdDqqC37DaWahrZNoKbAoYj2mumJbY89camd3ta2n/GEv7WT+tbKXHoJEMghEMff0hdo4vgav/UmAgQ+F9AO/tyk90+0g3svYflrXSDurI+79KNPoJXJuWwrJSWdvQrE42ZaOma0ODjCvu+Y6yrHrh0dGsgjAlP21z22j3g/jqJG8JnAlp2jTVSAU9FNO7N6WUFgf4epkASbJECAQBWBFkfrOhdVXAXSRglUEjgU0V4pKR83O/bE5eOCXpwUyNiZ3+JJ/UlkXxIgQOCAQI3jrwstBwrCRwT2BLSD90A6flvjOHyOUzv4nFAb39d4zEEbMpencnjsUIzS0tKkrdVSaUlrbwLDcaP0jQNTHVu7jhztp/1pyesqh9rm+4E1++k59b7G44i2pxK0xu8y3k2wxnLYz3MEHEXZmAgQILBGge++bev4tx/5u8Yyk2cC+wIZR50T3LJfStPeZ+zMjxxlrHvTpC1NgACBzwWmdMZ9vrbzn7hYet7IHAQGgYxtEe3goXTm+asdPI+jtRCYW2C4MN3SY4cGg7getOTF3WE7/uYWaC2oIrfm5amL3/VWjxutX0eudV3l0iDS8N0fDab044AFthzYl+MHs1blOZCc1X8UZdH6wWj1hQggncClP1TpEr7SBB1qMKyUQrYJNC2QcWRAnfrzVKm0nfkPnYEmAgQI9C4Qw2OXnlq7E7C0j+0R2BfQDt4X6ee9dnA/ZZk1J6UvmGV1GJOulgNaIp9uch5T2v3P6zpGuTIejh2lbxqYI4etXkeuYT316QD758KlR20R2HJkj1ljcMvUynyEctLHcTASmTuJ0MIECHQisN9gyJwtx+3MpSNtNQUiSC1rp36Ni4I1y2LObWd93nCrJ/Vzlo11ESDQv0BcUC19J6fja//1Sg7nF9AOnt80wxq1gzOUQv9pKH3BrGXR4aJ0iyMthHuMAiCopeUauEzaBbct47q/1lZHaYl8tHod+VDQVq3rKr/+9sd+lTj6vvZAFNv7+/ujiVv7FxmDW1p7HMWUOtTqwWhKni1LgACBYwKtjNoSx24TAQLHBWJfzrifRGdhdEwfOqk6npt1fzN0Gpa+oHqJunb0JUrmIUCgdYEaowQ4vrZea6S/poB2cE39ebetHTyvp7WdF3Bh+7TRsE+2GtASuYs2Vjy6rvYF09PSvq0hILhtWfXh+FFj5JA5ctby+dmYYJI5rIZ13L77fXj58W9LsQcCWz4W2+EXEdyy/7yow3P6dE6Blg9GczpYFwECBHYFWhi1pVZU8a6T1wSyC2QMng6zx+CW71/exIVC02mBzHeyaEefLjvfEiDQj0CNzldt3X7qj5zUEdAOruM+51a1g+fUzLeuuMCZcXJh+3CpDBekWw5oiZw5hz1cvj59EhDc9mQx16sejh+9HTtKxSIcukFvbFDhflpLBulsN5vNXPtBt+t5jBR9GAbNVEagt4NRGTVbIUBgDQJjGxilTeL4bSJA4DKBrJ36kfq4UOjRRIfLcTjxr3Ex9XCKPv1UO/pTD+8IEOhXoEYQZsbHCfZbwnLWs4B2cJulqx3cZrn1lGoXtj+U5rAv/uWvX920HtASOYr2lcDhnvbUZfISF+JrtP+XyU3dtQ7HkNaPHxFY0dux4/mzbxavHIf2ozmu6RwaBWapzAhsuVBWcMuFUBNn0xk/EdDiBAh0L7AfDZspw701JjPZZklLyUZqljwvmY7YZ7Lu09FpEB1lh054ljTJvO6wyHzirx29TO2JTh8TAQK5BOJ4XDrAMI6x2YPMc5WS1BA4LaAdfNon27fawdlKZLn0lLzjemwu4hx1rTdgDBeiewlmibKPvpD//uff2ldjd4QF589+7hvtf31U11eA4TiSuV/r0tzF8SOu2bc+lepnj7Ifyv/QefQ113RKBOEcK98v7+7ubrbb7bHvfb4jEDtKNJ4ODdOzM1uzLx+fofVzveTrjK9nb8sECLQjEI8juv3tZboExzHcRIDAeIHs7cvdE55rTnTGi+RbIk7+4u7AzOcAcVK/1vLJV2PmT1Hmujd/bttYY5aLPpGOtQVbxDF597epRI1xjC2hbBtrFNAOzl/q2sH5y2juFJa6yHZtuqNdHBe213Du08L+d205ug50rdyyy2U5xzmVy+E8YA3HgFMOY77r7VjS0/Fjyb6eWHcEQ56aPpznXndNZz+eYMm87OfhS0Et+ySn39c+6eq100pH0el651sCcwuUaKiusaN97nI6tL74HYhjZsnGwqF0+KyMQPZOpTIK/W+ldvvynPDQcRDzxYlLr+3RfYdWTv7jNyHqkGkZgRJtpmVSbq0E+hSosU9Gu3utd4gvVYtO3eH32En6sOG1tDeWMm5lvdrBOUtKOzhnuZRIVQt9TXF+Gn0lPZ4DtbLvXVsXh4uofuOvFVx2ud2+n2W3NG3tQzoFtxx37PVY0lNQy6HSG86DDn0352dxLI7zsSn7UI3z8sHgy+GFv5cLRKPpXKTT5Wszp854dYBAnwJxkvnq5sc+M1c5VxlHbZnSEKrMmXrz2TqVIj1xcqQTYv5qk71TP3L82HnwMLpf7yeSLXUAaEfPvy9mXaNjb9aSqZuutbW3azyCaCjhbG2yIV2t/j3peWAk4fi9i2kIiFlToG2rZTwm3drBY7SWnVc7eFnf7Gtv6REf8TsSQadTL8zVKpPY12KKC4PDDU0nfxtrJXTG7fbejzAjVZVVtbT/B5Dgls+rSUu/4Z+n/vwnb395011/dJzj7B774zdhrj73WHf8RsZvzLCN4ZxqicDQYd3nS3L6HJv//e9/91988cX0Na1sDXGQiGeRlZ7iuYNLTTXyFJV9iZ1oKSPrJdCLQKngvB4bHFnqQKZH4zk5XaZW1Lx4cypH9utTOtO/y1ruh3IW+35MvQS2tdYJoB19qFbO/1mpNtO5lCvvc0Jlv89SLyLXS/YRlFU9v7VM7udTa45SAnF8FPBSSnvZ7WgHL+t7au3awad01vNdq7+z2fukYv+KaQhiGS4wrqVmxe903KA318XatbiVzmer+384ZT8GzF2Wazym9NoXvX9959p+n/317O4XUV8OxTJMNd1vt5fcD78U1HLdYSV+iKPgD1WI69a4vqWu3UnXJyXHBOYViB+dUtOcUaal0tzKdh4jbh+ieDNMvVzUzmDZQhpePwz7+9xjTxYrqmF/Gu4+WWxDM6x4SGP8LXkCM0PSP64iTvBa7GBs1fsjfCMvSraZzpGsrQP8nEfN7zPVi3CI49gaLhRkc69ZB237U4E4Pn48Rv452stusMvQtvp0Ke8yCgxlNbQxM6ZxSNOQRu3gQaTcX+3gZaxb/p2N/TD+Dcf+JUf1Gi4o75ZCnE8O0zD6ysf3O98Nn63pr/21jdJuef8P4eEYEPUtpiWPAY8bWOC/S48tH9u8C6Qh4yp7v4Zc4vpO9BWE437dmdq/v/97V7L+bO4fppIb7G1bccApGdyy5N1YJfPS+wGpt3ouP30JlI7Anhr92Zf+fLkpecw+lWonqad0rv8uTirjxCzrpNyXL5nsdeCYwNCRMFyYODZfzc+HDoM4ids/sauZrku3bf+7VGr6fNn2Q2U/vUznWEPptvS5NK/l3Drb/niuXHyfTyCOoS1e6MgnuXyKWt3ftYOXrxvaQssYt7rPLaNhrXMIRPvUKC1zSC6/Dvv/8sa2cJ3AGs5zD13fuSYG4NSILaF/aDvx+ZR21X6/yJR1RVrGTF+Omdm8nwv0NHJLqbu81nBA+rym+IRADoForJaepkZ/lk5vK9s7Fm3bSvql87RAzajn0yn78G0E3bgwcInU9fMMgSGZA5wO5W5I7/A3Swd/nMTF71FMLQazDNaCRQeJ5f9m7OBz7F2+3M9toUZb+lya4pgW6Rp+N87N3+r32dtGrbquKd2PbZM/R3TJ0j5Zk/+YvA7Hs6E9OWbZmvMO6R3+Zqln2sE1a0X+bWds8+ZXk8JTAiUvbp5Kh+/OC9j/zxuZo46Avq953eM6UhybhzbqsPZ4P1f/fqyn1GTElpmkj0U8zbT6x9WUCAjZj7KaM/2xrhJ5mDvN1kegF4GajVUnNcvUohK/PedSfk0U8bl1rv37mvvqGHu/6WO0rp83w35+feo/XTLqTAyzOUxznTwN64u/4RXT8HiheN1yIEukf5ic2A8Sy//NvN859i5f/se2kP33ufdjxNJ9FcfK3ef9CzhXzVvGmX+Px6ppB48V+3T+3n/jPs1tuXfZ2zblJGxpDgHnKXMolluH/b+ctS1dLrC248ihtu41bZ5zI7YMJXBovmvMDx0/Sl4j2tzd3d1vNpshX/5OEDhUCSes7rNFr6lgn63kzAdLdhaVSP+Z7PmawGoFDv3YlMbQYbiM+KEGyTJb+nytyvRzk6mfZNhXx+TBb/sYrWnz1tzXp6X8sqWjLsW0G/iyu2QEwew+uzy+2797v5cAlt18x2v72b7Isu9bOA6rE8vWgUNrb6FeRLp7bZst3ddyqMx9tj6B2H9iGkYLWZ9A3hxrB2sH562d7aaslbZNu8LrSXmcm3jsUFvlbf9vq7zWkNo1H0f227nX9PfsryPqzKG+gWPn1WODafaPIYe2tWS93bx///5+u90uuY1VrftYxZgD4ZoKPXa7SwW2lEj72Lyan8AaBOKYFI9eyHKxz7Fg/lq35O/OudSWjMQ9l5bWv8+2r47xjP1aJ8YYsevn3T9xuH5NlmxFwO9m2ZJqbR8r3XlQtjRybK3F3+ce60XN9m6OmigVpQV63I9KG869vdZ+o+fO/xrXpx28TKm32LZZRsJapwroC5oqWH55+395c1s8L7D2dvehc92xgSaHAluOtaPGzHus9PbjCEqXoUcRHSuZCZ8fqogTVvdx0WMV8eMMM7zYr5AzrNJdpnMgWgeBkQJxHIo72/efmzdyNYvNHj92SzyCYrEEJ1/xEsfuc1ku3WA5l56Wv++lk1adKFMLe6kvZbTa3op9qkz59dC5p101b10Z2tExKlSW4PBrcthbvajR3r3G3TJ9CfgtzlWe2sG5ymPJ1Nj35tWNtk1MmW58mzeH1lZSQEBLSe15ttXDOe88EtaSScCx5Kk09oNNxgS2xP794vuXTyvbeXXopuRj81/a9jrUHj+0nZ1kzP5SYMvspB9WeKxyTN3cmAo9dluHKuTYdezPXyIYZ3+b3hPoTSCOJ5dMwyMaWuuEjx/NmCLQ5dD0/Nnhzw/Nu9bP9hs/JRyW/D0qkf5a29jdn3vtVNrfp+3D89e2qEeZgxfnz/G61ujkflp5xznN/mOqjq2x5aCFY3mK+nPJ9PZfby6ZrZt5ljjX7QZnJyOlO6R2Nn32pcCWs0RmWFDg0o7eBZNg1X8KaAf3XRW0gy8r32jXnJt228M9tnnP5d/38wvYP+c3vWaN9v9r1CyTTUDb+tMS2e+viOPtuT6b/WU+XeOn7/a9Ty177li/f16+v+5Pt7zMO48iWsb141rnvth4SYX+uPERL+LE8FhU14jVfDJrjQr9SQK8IdC4wP6PROPZmZT8pY59kxKVaOEljuGnsuf4flyndFkcT0mb32S+oJZR9NSJSMb0StN5AcfX80bn5rBfnBP68P3ajrfqRfv1wrnRZWVormUF/E4v6ztm7Y7rY7TamNf+dXk5+U283Mqc0wXOXeScvgVrGCNg/x+jZd5sAvFbbxT/z0vl0PWEc+2iMbEHh9Z1avljNzQfan/X6Fv6crPZfK7ok9kEIqrqVAUZu6GIsI71nYvWGrteQS1jxcxPgACBPAIxIkacaLoLJ0+ZSAmBEgKvfvrxJv4dOrEosX3bmE9AZ+F8ltZEgECfAtq6fZZra7kaHvUb7S9TXQHt4Lr+c25dO3hOTesiMJ+AfXM+S2sisHaBQ4EVazfZzf+haztx3nEqCChiBCIg5pLp0GjqsXz0Jx+aDs0f8w3nQsMyUa41pi/v7+9vBLcsS79EcEtUuLlOpCNQZs7JQWpOTesiQIDAZQKvHhoSt7+9vGzmiXPN9fszMRkWJ0DgT4Fhn9w/wQDUhsCxOyHaSL1UEiBAoIxAybZumRzZSqsC0d6KR3xEnTzW6dtq3lpMt3Zwi6X2lGbt4CcLrwhkERDQkqUkpINA2wKOJePKL+II9kdkev1w3vH84fNj09RzkaEdfWz9u58fCoIZs/zuuqa+3gpqmUp42fJRKeeMXooT6UMV6bLUPM0152gysVZBLU+2XhEgQKCkwNSGzKVpnfO37NJtmo8AgfMCcTIRwz/aR89bZZkjTvKjzEodv7PkWzoIECBwjYBj5TVqlllK4HE05e9fztIvt1Qa17Re7eD2Sls7uL0yk+K+BWKfjECzOD+N61jaXX2Xt9wRWFJgOJ44loxXjuPw7hTnHHPEAeyu85rXkYb9mylr9j9vY8QWUxmBONGas7CnBrcIailT7rZCgACBUgJz/sYcS3OtSNxj6fE5AQKfCszd3vx07d7NIbB7kj/H+qyDAAECaxGI46eJQCaBqf1ymfLSQ1q0g/OXonZw/jKSwnUJ7O6TglnWVfZyS2BuAceT6aJxHN6/vlP7fONYUEvNa0Tbh2m6tjVcLDD3Sda1lVpQy8VFZkYCBAg0IxDPXVxy2m9YLbkt6yZA4HqBaG8aveV6vyWXjOOou1aWFLZuAgR6FohHv5gIZBOIfrm5H/GdLY8tpUc7OG9paQfnLRspW5fAcPHZ6CzrKne5JbCEQBxPHn/fH0Ya0dc1j/ChGIJr4wCmpuhQUEuUeaSx5iSqpYL+oYo5JRljK/XcQS0xPFLtijzFz7IECBDoRSCieqNxYSJAgEAIRPtMgEv9urDbcajNXL88pIAAgXYFDt3B1m5upLwngcdHE/3wsqcsNZ8X7eAcRagdnKMcpILA7r7o4rP6QIDAFIE4ngzHlDieRJvLiE9TRD9fNkz3bzAegulv3/3x+QILfBJxBLHN3emx3B/KvPbkUUSVSuBQxZySlEuDW+YMahkOXg5aU0rOsgQIEJhXYMk7WeO3y0SAQHsCse8OAS77J0bt5aadFA9tZR2H7ZSZlBIgkF8gftPi+GoikE0gglv+8tevbkp1NmfLf9b0aAfXKRnt4DrutkpgV+DjfmgkhV0WrwkQuEIgjicfjykPgQ36ua5AHLlItGH3+3Afg+m/f3kTI6ksNcW5zOM5zcO5ze70WP4JgloiTV9uNpvdtHldUCAqZjw24sVDRZxjiuCW23e/Px5U9tcXlXGu7cS6M1Xi/bx6T4AAgTULDKO2RENnzmm/ITXnuq2LAIEyAtH23J32I+93v/P6eoFoJ0eQoeDv6w0tSYAAgVMCcYy9/e3lqVl8R6CaQPS9xcjG2gHViuDghrWDD7LM/qF28OykVkjgYoHY/2JyLnoxmRkJEDgh4JhyAqfQV0P7db//Nt7Hv7heM8wzNUkRQ/A6YgwOXFOacztT0xnLb+7u7u4Ft8xBef06TlWYa9YaB5yImBumuYNaslXiIZ/+EuhNICIjTR8E9o9rXE4LzH3cj63FaA+m8wJL2J/faj9zqGdlyzLq668PJyz7J0hlU9HP1uK3Sidi/fI89Azg+qnKl4K1HW/Vi8vqYGv1Ys4RaS8TMheBywUEt1xuVWNO7eB51bWD5/U8tzb9heeE1vP9sO9FjgVUrqPc7f/rKOcauYzjSUzRrxWTY8ojQ4r/zvVnDDckjw1yifbwsWCWxzqQtJ9z8/79+/vtdpuicNaeiLk7ZeIkeu6LFYJa1l5L5b+kgIbqk3Y0rHYD9p6+8eqYwJz1x7H/mPLnnwts+dxkzCetXVAbk7fs8547Scqe/prpGzoTnfTXLIWnbavLTxanXq3teKtenKoNT9+1WC+U7VP5eZVPQHBLvjI5lCLHkUMql32mHXyZ09xzzdnfM3farG85ARedl7Ntac32/5ZKK3da45jy/Nk3j08V0Z+Vu6yG1F3aZh3KdlgunhwTsQLxxJdhOjQyy/Bd/M18PciILbslleD1pRWzRlIzV+QaHrZJYGkBDdUn4fgxFtjy5HHJqzmDJXXIXiL+YR6BLZdbHZqzxQtqh/LR8mfRFo3JKC6nSzF+l4zOctqo1reZz6dqmRza7tqOt+rFoVrw+Wet1oso3+ikO9c593mOfUJgeQHnUssbz7UF7eDLJLWDL3Naci79hUvq5lh37GcxGTkhR3lkSoX9P1NptJOW4ZgikKWdMjuV0qX6N1pp423uH6ZTQL4rL7BUpbw2J61U5mvzZzkCWQU0VJ9KJo5DAluePC55NVeABftLtJ/mmcv9aY3retXqBbVeSynq89yj/7VspU3cRullO5fKqra24616cVlNbL1eRDnHJDjzsvI2VxkB51NlnOfeinbwp6LawZ961H6nv7B2Ccyz/divYhouNH94/eGzxy/8R+CAgP3/AIqPHgUOHVPiC6Ox9FtB5jr/ba2dJ7AlaZ3O0vEWFdrF5KSVRLK6F9BQfSpix6InizGv5hi1xWhdY8RvHu4W/uPmxfcvxy1k7o8CrV9Q+5iRDl+stXO/tZO7Dqve6CxlOY8anfDCC6zteBvHsHh2tOm0QG/n/sNv1+lcR/ut7mgvw2/NuXS2/H0Eyh6ahuGwex9tx/nsodJv57PhWLK2oLnh2OSCWL66qr8wV5nEvnJoioCVmOIRELuTfWpXw+uxAvb/sWJtzX/seBK5GI4pQ46GY4tjyiCy7r9DezUUDp1jDXVrqEct1x+BLcnr+hwXJa/NoouZ18pZjsA8AvFjZHoS0Eh7srj0VdShqUEWa7vwdantqfnsu6d0Tn9nPz/tk+Xb4WSp9oXAJTyGEz2PGVpC1zoJECCQT6BmMFz85vi9+bRODG2M4dOeAgn0sQ2l2vbfoY5qB7ddjlJPgAABAgQIECDQpoDAlgbKrUZHi2cAN1AxJJEAAQIXCEwJkNT5egGwWQgQeBypaLgTu6VO/t0glihGgVUqMwECBNYjEBenYxSfGiOFCGgZV896CiTQ1zau7FuYe6ifkVbt4BZKTBoJECBAgAABAgRaFtjc3d3dbzablvOwirRPuTA5FsiFzLFi5idAgEBegehou2bUFr8FectUygi0IpClo38IYPHs8lZqjnQSIEBgWYEaNw8NOdLGHiSu/1uz/K5P9dOSglueLHp+pR3cc+nKGwECBAgQIECAQC2Bzfv37++3222t7dvuhQIlT9x1tFxYKGYjQIBAIwJjg1viIvDbf71pJHeSSYBASwJxPBqmYZSX4X38jTtdd6f9O+mHIJXdeYbnw8ZnwzNih++NwjJI+EuAAAECIVCyb2VfXEDDvsi09zXLckrKnWtN0Wt7We3gtstP6gkQIECAAAECBOoLGLGlfhlclIKSJ+w6Wy4qEjMRIECgKYHhjrFzz6kX3NhUsUosAQIECBAgQIDAhQIlR8LdTVIEMrz66W8eebeLMuPrkv1lcyVbv9tcktZDgAABAgQIECBAgMCaBL70GKI1Fbe8EiBAgMBaBWLUgt2RC4bnfw+jHwyP6NidZ61W8k2AAAECBAgQINCXQK2gFkHjy9ejVz/9+BA49GPV0XjG5vL1z/+4eW6EzLFs5idAgAABAgQIECBAYOUCHkXUSAUY+xiJKdly58gUPcsSIECAAAECBAgQIECAAAECGQSiLyWCCPYfbVcibYJaSih/uo2WRm9RPz4tO+8IECBAgAABAgQIECBwTmBz/zCdm8n39QVKBrb89z//rp9hKSBAgAABAgQIECBAgAABAgQIXClQsh9lP4mCFvZFyr6vNULP2Fy6sWysmPkJECBAgAABAgQIEFizwHbNmZd3AgQIECBAgAABAgQIECBAgACBvgQEtfRVnmNz8/bhMT/DI1fHLlty/l9/+6Pk5myLAAECBAgQIECAAAECTQts379/33QGJJ4AAQIECBAgQIAAAQIECBAgQIDAIPDi+5fDy6J/jdRSlPvkxloIbvn7w2OyTAQIECBAgAABAgQIECBwmcD2iy++uGxOc1UVeP7s66rbt3ECBAgQIECAAAECBAgQIECAQHaBeAxNjUlQSw3109t89dPfTs+Q4NsYXchEgAABAgQIECBAgAABAucFPIrovNGq5mhhqNZVFYjMEiBAgAABAgQIECBAgAABAhcJRFDLbYXHu0RfyquffrwojWYqJxA3iUXAUebptVFbMhePtBEgQIAAAQIECBAgkEhAYEuiwpAUAgQIECBAgAABAgQIECBAgACB8QKvf/5nlaCWSGk89saUUyACjjIHt0QgllFbctYdqSJAgAABAgQIECBAIJeAwJZc5XEyNSVGU3n+7JuTafAlAQIECBAgQIAAAQIECBAgQCCTQAS1/L3SyBeZgyYylVHNtERwS4k+tWvz+GuFUYauTavlCBAgQIAAAQIECBAgUEtge39/X2vbtkuAAAECBAgQIECAAAECBAgQIEDgaoEY7aJmUItHEF1ddEUXfJX4kUS3734vamFjBAgQIECAAAECBAgQaFFAYEuLpSbNBAgQIECAAAECBAgQIECAAAECN68rjtQiqKWdCvj82ddpH0kUjyMyESBAgAABAgQIECBAgMBpge3DdHoO36YR8JigNEUhIQQIECBAgAABAgQIECBAgEBlgXgEkaCAyoXQ0OYzByLFyEMmAgQIECBAgAABAgQIEDguIKrluM0qv/nu269XmW+ZJkCAAAECBAgQIECAAAECBNoR8AiidsoqU0r/L+kjiWqNPJSpbKSFAAECBAgQIECAAAECpwS2d3d3p773HQECBAgQIECAAAECBAgQIECAAIFUAjUDATKP/JGqkBImRtklLBRJIkCAAAECBAgQIECAwAUC281mc8FsZskgYDSVDKUgDQQIECBAgAABAgQIECBAgEBNgZqPIMo64kfN8mht2xnL0CO1WqtF0kuAAAECBAgQIECAQGmB7f39felt2l5igefPPIoocfFIGgECBAgQIECAAAECBAgQWL3A33/+RzUDI35Uo59tw24cm43SiggQIECAAAECBAgQIFBMwIgtxahtiAABAgQIECBAgAABAgQIECBAYIpAjNZSa8o40kcti5a3Gzd1Pf82341dt+/+aJlV2gkQIECAAAECBAgQILCogBFbFuWdd+VGU5nX09oIECBAgAABAgQIECBAgACBtgSM1tJWeUktAQIECBAgQIAAAQIECBCYQ2D7MM2xHuvoQCDj3SodsMoCAQIECBAgQIAAAQIECBAgMIOA0VpmQLSKR4FXP/0tncSvvxmxJV2hSBABAgQIECBAgAABAmkERLWkKYrLEiL45DIncxEgQIAAAQIECBAgQIAAAQJ9CdQcraUvSbkxKrI6QIAAAQIECBAgQIAAgbYEPIqorfJaNLXPn32z6PqtnAABAgQIECBAgAABAgQIECBwjUDN0Voiva9++vGaZFsmsUC2m8du3/2eWEvSCBAgQIAAAQIECBAgUFdgu9ls6qbA1gkQIECAAAECBAgQIECAAAECBAicEKg5Wsv/JXxszQkqXxEgQIAAAQIECBAgQIAAge4EjNjSXZHKEAECBAgQIECAAAECBAgQIECgH4Hao7V89+3X/WDKyUcBIxd/pPCCAAECBAgQIECAAAEC6QUEtqQvok8TuORJt46aT629I0CAAAECBAgQIECAAAECBAg8fyawpcdaoB+sx1KVJwIECBAgQIAAAQIEehXwKKJeS1a+CBAgQIAAAQIECBAgQIAAAQIdCNR8DNFzo7V0UIMkZBbnAAAU50lEQVRkgQABAgQIECBAgAABAgRaFxDY0lgJupuksQKTXAIECBAgQIAAAQIECBAgQOBqgdqPIVpy5NyrUSxIgAABAgQIECBAgAABAgRWJrBdWX5l94SAoXVP4PiKAAECBAgQIECAAAECBAgQKC5w++734tu0wXUI6AdbRznLJQECBAgQIECAAAECfQgIbOmjHOWCAAECBAgQIECAAAECBAgQINCdwO1vf1TN06uffqy6fRsnQIAAAQIECBAgQIAAAQIEbm4EtjRWC5a6m8QzoxurCJJLgAABAgQIECBAgAABAgQ6F6j9GKLOeWUvmYDHXiUrEMkhQIAAAQIECBAgQCCVwPb+/j5VgiSGAAECBAgQIECAAAECBAgQIECAAAECBAgQIECAAAECBAgQIECAQAgIbGmwHhhdpcFCk2QCBAgQIECAAAECBAgQIEBglMDtu99HzT/3zPpf5ha1PgIECBAgQIAAAQIECBAgcJ3AdrPZXLekpboSMNxpV8UpMwQIECBAgAABAgQIECBAoHmB29/+aD4PMkCAAAECBAgQIECAAAECBAhMFxDYMt3QGggQIECAAAECBAgQIECAAAECBGYUuH0nqGVGTqtqQOC7b79uIJWSSIAAAQIECBAgQIAAgToC27u7uzpbttWrBYyucjWdBQkQIECAAAECBAgQIECAAIEGBH5NMFqL/pcGKsqEJGYLnnr+TGDLhOK0KAECBAgQIECAAAECnQtsH6bOsyh7lwi4K+QSJfMQIECAAAECBAgQIECAAAECBAgQIECAAAECBAgQIECAAAECJQVEtZTUnmlbglBmgrQaAgQIECBAgAABAgQIECBAgACBVQpkGBVogH/uMUQDhb8ECBAgQIAAAQIECBA4KLB9//79wS98uC4Bw52uq7zllgABAgQIECBAgAABAgQIZBa4ffd75uRJG4FZBTz2alZOKyNAgAABAgQIECBAoEOB7RdffNFhtmSJAAECBAgQIECAAAECBAgQIECAwPUCgmuut2thSeXbQilJIwECBAgQIECAAAECBD4IeBRRgzXB6CoNFpokEyBAgAABAgQIECBAgAABAgQIpBG4/e2PNGnx2PE0RSEhBAgQIECAAAECBAgkFRDYkrRgSibLc3xLatsWAQIECBAgQIAAAQIECBAgcE4gU9DBubT6nsBUATexTRW0PAECBAgQIECAAAECvQsIbGm0hOcMRvEc30YrgWQTIECAAAECBAgQIECAAAECBAiMFnj98z9HL7PUAnP28S2VRuslQIAAAQIECBAgQIBAbYHt/f197TTYPgECBAgQIECAAAECBAgQIECAAIFUAkaNSVUc3SbGDWfdFq2MESBAgAABAgQIECAwo4DAlhkxrYoAAQIECBAgQIAAAQIECBAgQKAfgdt3f/STGTn5KPD3n//x8XXtF69++rF2EmyfAAECBAgQIECAAAEC6QW2D1P6RErg5wLu5vjcxCcECBAgQIAAAQIECBAgQIBAHwIez9JHOWbMRaZgJfU8Yw2RJgIECBAgQIAAAQIEMgqIaslYKoXT9N23Xxfeos0RIECAAAECBAgQIECAAAECBPIL/PqbEVvyl9K4FGYqUzeujSs7cxMgQIAAAQIECBAgsF6B7d3d3Xpz33DOBaM0XHiSToAAAQIECBAgQIAAAQIECDQhcPvu9ybSKZGXC2R6DJH+vcvLzZwECBAgQIAAAQIECKxbYLvZbNYtIPc3z58ZsUU1IECAAAECBAgQIECAAAECBAjsC9wasWWfpOn3r3/+Z5r0x2OI9MmlKQ4JIUCAAAECBAgQIEAgucD2/v4+eRIljwABAgQIECBAgAABAgQIECBAgEAdgdt3HkdUR77vrXoMUd/lK3cECBAgQIAAAQIECMwrYMSWeT2LrW2uOzri7hATAQIECBAgQIAAAQIECBAgQCCTwKuf/pYmOb8atSVNWUxNSKbHEL366cep2bE8AQIECBAgQIAAAQIEViNgxJbVFLWMEiBAgAABAgQIECBAgAABAgQIjBW4fff72EXMn1Ag02OI/i9R4FbCopIkAgQIECBAgAABAgQIfCawfZg++9AHbQjMMdqKYU/bKGupJECAAAECBAgQIECAAAECaxKYa6TaOcxuH0Zs8TiiOSTrrSOCWozWUs/flgkQIECAAAECBAgQIDBVQFTLVEHLEyBAgAABAgQIECBAgAABAgQIzC4wxw09cyXq9c//mGtV1lNBINOoO0ZrqVABbJIAAQIECBAgQIAAgeYFPIqo4SI02krDhSfpBAgQIECAAAECBAgQIECAQDMCMWqLqU2BGK0lU/m9+unHNiGlmgABAgQIECBAgAABAhUFtpvNpuLmbbq2wHfffl07CbZPgAABAgQIECBAgAABAgQIEPhM4NVPf/vss5ofeBxRTf3rt53pEURGa7m+HC1JgAABAgQIECBAgMC6BYzY0nD5C0ppuPAknQABAgQIECBAgAABAgQIEGhKwOOImiqux8TGaC2ZJqO1ZCoNaSFAgAABAgQIECBAoCUBgS0tldYCaX3+zIgtC7BaJQECBAgQIECAAAECBAgQIDBRIPosnicaaTYeZ5MtUGIicdeLR1kZraXrIpY5AgQIECBAgAABAgRWJOBRRCsqbFklQIAAAQIECBAgQIAAAQIECBC4XiBToMT1ueh/yWxBLRGgZbSW/uudHBIgQIAAAQIECBAgsJzA5v5hWm711kyAAAECBAgQIECAAAECBAgQIEDgOoHbd3/cvPj+5XULL7RUBCm8/debhdZutVMFMtaZt7+8uTFq8tSStTwBAgQIECBAgAABAmsW2K458/JOgAABAgQIECBAgAABAgQIECCQVyBjMIBHEuWtL5Gy1z//I1UC/++nvwlqSVUiEkOAAAECBAgQIECAQIsCAltaLDVpJkCAAAECBAgQIECAAAECBAisRCACA7JN8UiiGBnElEvgxQ8vbyLwKMvkEURZSkI6CBAgQIAAAQIECBBoXUBgS+slKP0ECBAgQIAAAQIECBAgQIAAgY4Fvnt49E/GKdvIIBmNSqYpW1BL5P1VwqCskmViWwQIECBAgAABAgQIEJhLYHt/fz/XuqyHAAECBAgQIECAAAECBAgQIECAwKwC8TiiGPki2+SRRHlKJGNQi0cQ5akfUkKAAAECBAgQIECAQPsCAlvaL0M5IECAAAECBAgQIECAAAECBAh0LZB15It4JNHrn//ZtX3mzMXjoLIGtbz66cfMdNJGgAABAgQIECBAgACBpgQ2d3d395vNpqlESywBAgQIECBAgAABAgQIECBAgMC6BDIGMAwlEKNzCGQYNMr8fQxq+f5lmY2N2Iq6MALLrAQIECBAgAABAgQIELhQYCuo5UIpsxEgQIAAAQIECBAgQIAAAQIECFQTyDpqS4AYuaVstYhRcl4kDGqJR2YJcCpbF2yNAAECBAgQIECAAIF1CGzev39/v91u15FbuSRAgAABAgQIECBAgAABAgQIEGhWIPOoLYEagQ1v//WmWd8WEp61Dij7FmqPNBIgQIAAAQIECBAg0KrA5v5hajXx0k2AAAECBAgQIECAAAECBAgQILAugb/89av0GfY4mvmLKOujhyKnglrmL29rJECAAAECBAgQIECAwK6AoVp2NbwmQIAAAQIECBAgQIAAAQIECBBILfD2lzep0xeJ82iieYso66OHIpeCWuYta2sjQIAAAQIECBAgQIDAIYHN//73v/svvvji0Hc+I0CAAAECBAgQIECAAAECBAgQIJBOIOvjaA5BGb3lkMpln0VASwQJZZ0EtWQtGekiQIAAAQIECBAgQKA3AY8i6q1E5YcAAQIECBAgQIAAAQIECBAg0LlA5sfSHKMX4HJM5vPPo3xfPwS03P72x+dfJvokRg96/uzrRCmSFAIECBAgQIAAAQIECPQpILClz3KVKwIECBAgQIAAAQIECBAgQIBA1wKCW/or3lYCWkJeUEt/9U+OCBAgQIAAAQIECBDIKyCwJW/ZSBkBAgQIECBAgAABAgQIECBAgMAJgeyPqjmWdKO3fCrTUkBLpFxQy6fl5x0BAgQIECBAgAABAgSWFhDYsrSw9RMgQIAAAQIECBAgQIAAAQIECCwm8OKHl+kfWXMs8xHgEtOrn348Nku3n0cwy68Pjxr6+8Mjh1qZnn/79UNZ/c3jh1opMOkkQIAAAQIECBAgQKAbgc3d3d39ZrPpJkMyQoAAAQIECBAgQIAAAQIECBAgsC6BloNbhpJaS5BLa6Oz7JbPGgOQhvz7S4AAAQIECBAgQIAAgZoCm/fv399vt9uaabBtAgQIECBAgAABAgQIECBAgAABAlcLRLDEi+9fXr18tgUjyOW7h9FBnj/7OlvSRqcnyiam1w8js9w+jNDS4uTRUS2WmjQTIECAAAECBAgQINCTgEcR9VSa8kKAAAECBAgQIECAAAECBAgQWKlAb8EtQzEOI7m0EuiyG8gSeWg1mCXS7tFDoWAiQIAAAQIECBAgQIBAfQGBLfXLQAoIECBAgAABAgQIECBAgAABAgRmEujhsUSnKCLY4vmzbx5nqR3sMgSx/PowEsvtu98f09RyIMuuezi//deb3Y+8JkCAAAECBAgQIECAAIFKAh5FVAneZgkQIECAAAECBAgQIECAAAECBJYR6D24ZV9tN9hl97sIfBmmax5rNASuxDoieCWm3gJYHjO1959HD+2BeEuAAAECBAgQIECAAIHKApu7u7v7zWZTORk2T4AAAQIECBAgQIAAAQIECBAgQGA+gbUFt1wjFwExvYywck3+Dy3z9pc3DyPiPAUEHZrHZwQIECBAgAABAgQIECBQVsCILWW9bY0AAQIECBAgQIAAAQIECBAgQKCQwOuf/3nz95//UWhrNtOygEcPtVx60k6AAAECBAgQIECAQO8CW6O19F7E8keAAAECBAgQIECAAAECBAgQWKfAq59+vInHypgIHBN4DGh5GKXl7b/eHJvF5wQIECBAgAABAgQIECBQWeDL+/v7G8EtlUvB5gkQIECAAAECBAgQIECAAAECBBYRiOCWmIzcsghv0yv12KGmi0/iCRAgQIAAAQIECBBYkcDmIbDlfkX5lVUCBAgQIECAAAECBAgQIECAAIGVCrz44eXN7W9/rDT3sj0IxCg+Q8DT8Jm/BAgQIECAAAECBAgQIJBXYJs3aVJGgAABAgQIECBAgAABAgQIECBAYD6BeNyMRxPN59namobHDglqaa3kpJcAAQIECBAgQIAAgbULbO7u7u49imjt1UD+CRAgQIAAAQIECBAgQIAAAQLrEnj98z89nmglRR4BLa8eRml5/uzrleRYNgkQIECAAAECBAgQINCXwJeCWvoqULkhQIAAAQIECBAgQIAAAQIECBA4LzCM2vH3n/9xfmZzNCkgoKXJYpNoAgQIECBAgAABAgQIfCZgxJbPSHxAgAABAgQIECBAgAABAgQIECCwJgGjt/RV2gJa+ipPuSFAgAABAgQIECBAgMCX9/f3N0ZtUREIECBAgAABAgQIECBAgAABAgTWKjCM3hL5N4JLu7Xg/x4eN/Tdw2OHPHKo3TKUcgIECBAgQIAAAQIECBwS8CiiQyo+I0CAAAECBAgQIECAAAECBAgQWJXAbnBLZFyASxvFb3SWNspJKgkQIECAAAECBAgQIDBFQGDLFD3LEiBAgAABAgQIECBAgAABAgQIdCUgwKWN4hTQ0kY5SSUBAgQIECBAgAABAgTmENg8PIrofo4VWQcBAgQIECBAgAABAgQIECBAgACB3gRu3/1x8+tvfxjBJUHBCmZJUAiSQIAAAQIECBAgQIAAgQoCAlsqoNskAQIECBAgQIAAAQIECBAgQIBAewKvf/7nY6I9pqhc2QlmKWdtSwQIECBAgAABAgQIEMgqILAla8lIFwECBAgQIECAAAECBAgQIECAQFqBCHIR4LJM8QhmWcbVWgkQIECAAAECBAgQINCqwObu7u5+s9m0mn7pJkCAAAECBAgQIECAAAECBAgQIFBNYHhU0e27329uHx5ZZBovEIEsMb366W83z599eD1+LZYgQIAAAQIECBAgQIAAgV4FNu/fv7/fbre95k++CBAgQIAAAQIECBAgQIAAAQIECBQT8Lii89S7gSwxt2CW82bmIECAAAECBAgQIECAwJoFjNiy5tKXdwIECBAgQIAAAQIECBAgQIAAgcUEhtFcYgNrfWyRIJbFqpcVEyBAgAABAgQIECBAYDUCm/uHaTW5lVECBAgQIECAAAECBAgQIECAAAECFQWGEV16fHTREMTy/Nk3N989PF7ISCwVK5pNEyBAgAABAgQIECBAoCMBjyLqqDBlhQABAgQIECBAgAABAgQIECBAoD2B3ZFdIvWZg172g1cGbUEsg4S/BAgQIECAAAECBAgQIDC3gBFb5ha1PgIECBAgQIAAAQIECBAgQIAAAQIzCkTgS0y//vbh77DqCIA5NN3uzbc/zxCc8tnnDyOt7E4x6sowCVwZJPwlQIAAAQIECBAgQIAAgdICAltKi9seAQIECBAgQIAAAQIECBAgQIAAAQIECBAgQIAAAQIECBAgQIDARQLb9+/fXzSjmQgQIECAAAECBAgQIECAAAECBAgQIECAAAECBAgQIECAAAECBAiUFDBiS0lt2yJAgAABAgQIECBAgAABAgQIECBAgAABAgQIECBAgAABAgQIELhYYHvxnGYkQIAAAQIECBAgQIAAAQIECBAgQIAAAQIECBAgQIAAAQIECBAgUFBAYEtBbJsiQIAAAQIECBAgQIAAAQIECBAgQIAAAQIECBAgQIAAAQIECBC4XEBgy+VW5iRAgAABAgQIECBAgAABAgQIECBAgAABAgQIECBAgAABAgQIECgosL2/vy+4OZsiQIAAAQIECBAgQIAAAQIECBAgQIAAAQIECBAgQIAAAQIECBAgcJmAwJbLnMxFgAABAgQIECBAgAABAgQIECBAgAABAgQIECBAgAABAgQIECBQWGDzMGKLIVsKo9scAQIECBAgQIAAAQIECBAgQIAAAQIECBAgQIAAAQIECBAgQIDAeYHt+VnMQYAAAQIECBAgQIAAAQIECBAgQIAAAQIECBAgQIAAAQIECBAgQKC8wP8Day2FR9+Sjt8AAAAASUVORK5CYII=;" vertex="1" parent="1">
          <mxGeometry x="502.5" y="118.4" width="85" height="21.5" as="geometry" />
        </mxCell>
        <mxCell id="yftwJMYlTaSGauuBOo6N-67" value="SQS" style="text;html=1;align=center;verticalAlign=middle;resizable=0;points=[];autosize=1;strokeColor=none;fillColor=none;fontSize=14;" vertex="1" parent="1">
          <mxGeometry x="220" y="114.9" width="50" height="30" as="geometry" />
        </mxCell>
        <mxCell id="yftwJMYlTaSGauuBOo6N-68" value="" style="shape=image;verticalLabelPosition=bottom;labelBackgroundColor=default;verticalAlign=top;aspect=fixed;imageAspect=0;image=https://docs.aws.amazon.com/assets/r/images/aws_logo_light.svg;" vertex="1" parent="1">
          <mxGeometry x="490" y="144.9" width="34" height="20" as="geometry" />
        </mxCell>
        <mxCell id="yftwJMYlTaSGauuBOo6N-69" value="DynamoDB" style="text;html=1;align=center;verticalAlign=middle;resizable=0;points=[];autosize=1;strokeColor=none;fillColor=none;fontSize=14;" vertex="1" parent="1">
          <mxGeometry x="515.9300000000001" y="138" width="100" height="30" as="geometry" />
        </mxCell>
        <mxCell id="yftwJMYlTaSGauuBOo6N-70" value="本地内存" style="text;html=1;align=center;verticalAlign=middle;resizable=0;points=[];autosize=1;strokeColor=none;fillColor=none;" vertex="1" parent="1">
          <mxGeometry x="510" y="-3.200000000000003" width="70" height="30" as="geometry" />
        </mxCell>
      </root>
    </mxGraphModel>
  </diagram>
</mxfile>
